<ttFont>
<head>
    <!-- Most of this table will be recalculated by the compiler -->
    <tableVersion value="1.0"/>
    <fontRevision value="1.013"/>
    <checkSumAdjustment value="0xfec3dae6"/>
    <magicNumber value="0x5f0f3cf5"/>
    <flags value="00000000 00000011"/>
    <unitsPerEm value="1000"/>
    <created value="Fri Apr 12 16:39:53 2019"/>
    <modified value="Fri Apr 12 16:39:54 2019"/>
    <xMin value="-243"/>
    <yMin value="-263"/>
    <xMax value="661"/>
    <yMax value="1035"/>
    <macStyle value="00000000 00000001"/>
    <lowestRecPPEM value="6"/>
    <fontDirectionHint value="2"/>
    <indexToLocFormat value="0"/>
    <glyphDataFormat value="0"/>
  </head>
    <TTGlyph name=".notdef" xMin="50" yMin="-250" xMax="450" yMax="750">
      <contour>
        <pt x="50" y="-250" on="1"/>
        <pt x="450" y="-250" on="1"/>
        <pt x="450" y="750" on="1"/>
        <pt x="50" y="750" on="1"/>
      </contour>
      <contour>
        <pt x="100" y="-200" on="1"/>
        <pt x="100" y="700" on="1"/>
        <pt x="400" y="700" on="1"/>
        <pt x="400" y="-200" on="1"/>
      </contour>
    </TTGlyph>
    <TTGlyph name="A" xMin="33" yMin="0" xMax="568" yMax="702">
      <contour>
        <pt x="167" y="0" on="1"/>
        <pt x="44" y="0" on="1"/>
        <pt x="33" y="0" on="0"/>
        <pt x="36" y="13" on="1"/>
        <pt x="86" y="255" on="0"/>
        <pt x="161" y="608" on="0"/>
        <pt x="183" y="702" on="1"/>
        <pt x="407" y="702" on="1"/>
        <pt x="412" y="702" on="0"/>
        <pt x="415" y="699" on="1"/>
        <pt x="418" y="696" on="0"/>
        <pt x="419" y="691" on="1"/>
        <pt x="450" y="553" on="0"/>
        <pt x="525" y="202" on="0"/>
        <pt x="568" y="0" on="1"/>
        <pt x="442" y="0" on="1"/>
        <pt x="437" y="0" on="0"/>
        <pt x="434" y="3" on="1"/>
        <pt x="433" y="4" on="0"/>
        <pt x="430" y="12" on="1"/>
        <pt x="414" y="94" on="0"/>
        <pt x="399" y="164" on="1"/>
        <pt x="200" y="164" on="1"/>
        <pt x="185" y="90" on="0"/>
      </contour>
      <contour>
        <pt x="306" y="574" on="1"/>
        <pt x="286" y="574" on="1"/>
        <pt x="274" y="520" on="0"/>
        <pt x="246" y="390" on="0"/>
        <pt x="225" y="289" on="1"/>
        <pt x="373" y="289" on="1"/>
        <pt x="355" y="375" on="0"/>
        <pt x="327" y="508" on="0"/>
        <pt x="313" y="568" on="1"/>
        <pt x="312" y="574" on="0"/>
      </contour>
    </TTGlyph>
    <TTGlyph name="AE" xMin="9" yMin="0" xMax="580" yMax="700">
      <contour>
        <pt x="143" y="0" on="1"/>
        <pt x="18" y="0" on="1"/>
        <pt x="15" y="0" on="0"/>
        <pt x="9" y="6" on="0"/>
        <pt x="10" y="13" on="1"/>
        <pt x="44" y="185" on="0"/>
        <pt x="110" y="528" on="0"/>
        <pt x="144" y="700" on="1"/>
        <pt x="308" y="700" on="1"/>
        <pt x="321" y="700" on="0"/>
        <pt x="350" y="700" on="0"/>
        <pt x="366" y="700" on="1"/>
        <pt x="569" y="700" on="1"/>
        <pt x="574" y="700" on="0"/>
        <pt x="577" y="697" on="1"/>
        <pt x="580" y="694" on="0"/>
        <pt x="580" y="689" on="1"/>
        <pt x="580" y="577" on="1"/>
        <pt x="386" y="577" on="1"/>
        <pt x="390" y="535" on="0"/>
        <pt x="396" y="452" on="0"/>
        <pt x="399" y="410" on="1"/>
        <pt x="529" y="410" on="1"/>
        <pt x="540" y="410" on="0"/>
        <pt x="540" y="399" on="1"/>
        <pt x="540" y="293" on="1"/>
        <pt x="408" y="293" on="1"/>
        <pt x="411" y="250" on="0"/>
        <pt x="418" y="165" on="0"/>
        <pt x="421" y="123" on="1"/>
        <pt x="569" y="123" on="1"/>
        <pt x="580" y="123" on="0"/>
        <pt x="580" y="112" on="1"/>
        <pt x="580" y="0" on="1"/>
        <pt x="315" y="0" on="1"/>
        <pt x="305" y="0" on="0"/>
        <pt x="304" y="7" on="1"/>
        <pt x="302" y="40" on="0"/>
        <pt x="297" y="107" on="0"/>
        <pt x="294" y="140" on="1"/>
        <pt x="169" y="140" on="1"/>
        <pt x="163" y="105" on="0"/>
        <pt x="150" y="35" on="0"/>
      </contour>
      <contour>
        <pt x="255" y="577" on="1"/>
        <pt x="251" y="577" on="1"/>
        <pt x="236" y="497" on="0"/>
        <pt x="206" y="338" on="0"/>
        <pt x="191" y="259" on="1"/>
        <pt x="285" y="259" on="1"/>
        <pt x="280" y="336" on="0"/>
        <pt x="269" y="489" on="0"/>
        <pt x="263" y="566" on="1"/>
        <pt x="262" y="574" on="0"/>
        <pt x="259" y="577" on="0"/>
      </contour>
    </TTGlyph>
    <TTGlyph name="AEacute" xMin="9" yMin="0" xMax="580" yMax="955">
      <contour>
        <pt x="399" y="775" on="1"/>
        <pt x="293" y="775" on="1"/>
        <pt x="319" y="821" on="0"/>
        <pt x="372" y="909" on="0"/>
        <pt x="399" y="955" on="1"/>
        <pt x="552" y="955" on="1"/>
        <pt x="558" y="955" on="0"/>
        <pt x="562" y="945" on="0"/>
        <pt x="558" y="940" on="1"/>
        <pt x="533" y="912" on="0"/>
        <pt x="495" y="869" on="0"/>
        <pt x="451" y="819" on="0"/>
        <pt x="416" y="781" on="1"/>
        <pt x="410" y="775" on="0"/>
      </contour>
      <contour>
        <pt x="143" y="0" on="1"/>
        <pt x="18" y="0" on="1"/>
        <pt x="15" y="0" on="0"/>
        <pt x="9" y="6" on="0"/>
        <pt x="10" y="13" on="1"/>
        <pt x="44" y="185" on="0"/>
        <pt x="110" y="528" on="0"/>
        <pt x="144" y="700" on="1"/>
        <pt x="308" y="700" on="1"/>
        <pt x="321" y="700" on="0"/>
        <pt x="350" y="700" on="0"/>
        <pt x="366" y="700" on="1"/>
        <pt x="569" y="700" on="1"/>
        <pt x="574" y="700" on="0"/>
        <pt x="577" y="697" on="1"/>
        <pt x="580" y="694" on="0"/>
        <pt x="580" y="689" on="1"/>
        <pt x="580" y="577" on="1"/>
        <pt x="386" y="577" on="1"/>
        <pt x="390" y="535" on="0"/>
        <pt x="396" y="452" on="0"/>
        <pt x="399" y="410" on="1"/>
        <pt x="529" y="410" on="1"/>
        <pt x="540" y="410" on="0"/>
        <pt x="540" y="399" on="1"/>
        <pt x="540" y="293" on="1"/>
        <pt x="408" y="293" on="1"/>
        <pt x="411" y="250" on="0"/>
        <pt x="418" y="165" on="0"/>
        <pt x="421" y="123" on="1"/>
        <pt x="569" y="123" on="1"/>
        <pt x="580" y="123" on="0"/>
        <pt x="580" y="112" on="1"/>
        <pt x="580" y="0" on="1"/>
        <pt x="315" y="0" on="1"/>
        <pt x="305" y="0" on="0"/>
        <pt x="304" y="7" on="1"/>
        <pt x="302" y="40" on="0"/>
        <pt x="297" y="107" on="0"/>
        <pt x="294" y="140" on="1"/>
        <pt x="169" y="140" on="1"/>
        <pt x="163" y="105" on="0"/>
        <pt x="150" y="35" on="0"/>
      </contour>
      <contour>
        <pt x="255" y="577" on="1"/>
        <pt x="251" y="577" on="1"/>
        <pt x="236" y="497" on="0"/>
        <pt x="206" y="338" on="0"/>
        <pt x="191" y="259" on="1"/>
        <pt x="285" y="259" on="1"/>
        <pt x="280" y="336" on="0"/>
        <pt x="269" y="489" on="0"/>
        <pt x="263" y="566" on="1"/>
        <pt x="262" y="574" on="0"/>
        <pt x="259" y="577" on="0"/>
      </contour>
    </TTGlyph>
    <TTGlyph name="Aacute" xMin="33" yMin="0" xMax="568" yMax="955">
      <contour>
        <pt x="348" y="775" on="1"/>
        <pt x="241" y="775" on="1"/>
        <pt x="268" y="821" on="0"/>
        <pt x="321" y="909" on="0"/>
        <pt x="348" y="955" on="1"/>
        <pt x="500" y="955" on="1"/>
        <pt x="506" y="955" on="0"/>
        <pt x="511" y="945" on="0"/>
        <pt x="506" y="940" on="1"/>
        <pt x="481" y="912" on="0"/>
        <pt x="443" y="869" on="0"/>
        <pt x="399" y="819" on="0"/>
        <pt x="364" y="781" on="1"/>
        <pt x="358" y="775" on="0"/>
      </contour>
      <contour>
        <pt x="167" y="0" on="1"/>
        <pt x="44" y="0" on="1"/>
        <pt x="33" y="0" on="0"/>
        <pt x="36" y="13" on="1"/>
        <pt x="86" y="255" on="0"/>
        <pt x="161" y="608" on="0"/>
        <pt x="183" y="702" on="1"/>
        <pt x="407" y="702" on="1"/>
        <pt x="412" y="702" on="0"/>
        <pt x="415" y="699" on="1"/>
        <pt x="418" y="696" on="0"/>
        <pt x="419" y="691" on="1"/>
        <pt x="450" y="553" on="0"/>
        <pt x="525" y="202" on="0"/>
        <pt x="568" y="0" on="1"/>
        <pt x="442" y="0" on="1"/>
        <pt x="437" y="0" on="0"/>
        <pt x="434" y="3" on="1"/>
        <pt x="433" y="4" on="0"/>
        <pt x="430" y="12" on="1"/>
        <pt x="414" y="94" on="0"/>
        <pt x="399" y="164" on="1"/>
        <pt x="200" y="164" on="1"/>
        <pt x="185" y="90" on="0"/>
      </contour>
      <contour>
        <pt x="306" y="574" on="1"/>
        <pt x="286" y="574" on="1"/>
        <pt x="274" y="520" on="0"/>
        <pt x="246" y="390" on="0"/>
        <pt x="225" y="289" on="1"/>
        <pt x="373" y="289" on="1"/>
        <pt x="355" y="375" on="0"/>
        <pt x="327" y="508" on="0"/>
        <pt x="313" y="568" on="1"/>
        <pt x="312" y="574" on="0"/>
      </contour>
    </TTGlyph>
    <TTGlyph name="Abreve" xMin="33" yMin="0" xMax="568" yMax="947">
      <contour>
        <pt x="206" y="947" on="1"/>
        <pt x="220" y="914" on="0"/>
        <pt x="264" y="888" on="0"/>
        <pt x="300" y="888" on="1"/>
        <pt x="336" y="888" on="0"/>
        <pt x="380" y="914" on="0"/>
        <pt x="394" y="947" on="1"/>
        <pt x="477" y="947" on="1"/>
        <pt x="487" y="947" on="0"/>
        <pt x="492" y="939" on="0"/>
        <pt x="490" y="927" on="1"/>
        <pt x="484" y="890" on="0"/>
        <pt x="439" y="824" on="0"/>
        <pt x="368" y="783" on="0"/>
        <pt x="324" y="783" on="1"/>
        <pt x="276" y="783" on="1"/>
        <pt x="232" y="783" on="0"/>
        <pt x="161" y="824" on="0"/>
        <pt x="116" y="890" on="0"/>
        <pt x="110" y="927" on="1"/>
        <pt x="108" y="939" on="0"/>
        <pt x="113" y="947" on="0"/>
        <pt x="123" y="947" on="1"/>
      </contour>
      <contour>
        <pt x="167" y="0" on="1"/>
        <pt x="44" y="0" on="1"/>
        <pt x="33" y="0" on="0"/>
        <pt x="36" y="13" on="1"/>
        <pt x="86" y="255" on="0"/>
        <pt x="161" y="608" on="0"/>
        <pt x="183" y="702" on="1"/>
        <pt x="407" y="702" on="1"/>
        <pt x="412" y="702" on="0"/>
        <pt x="415" y="699" on="1"/>
        <pt x="418" y="696" on="0"/>
        <pt x="419" y="691" on="1"/>
        <pt x="450" y="553" on="0"/>
        <pt x="525" y="202" on="0"/>
        <pt x="568" y="0" on="1"/>
        <pt x="442" y="0" on="1"/>
        <pt x="437" y="0" on="0"/>
        <pt x="434" y="3" on="1"/>
        <pt x="433" y="4" on="0"/>
        <pt x="430" y="12" on="1"/>
        <pt x="414" y="94" on="0"/>
        <pt x="399" y="164" on="1"/>
        <pt x="200" y="164" on="1"/>
        <pt x="185" y="90" on="0"/>
      </contour>
      <contour>
        <pt x="306" y="574" on="1"/>
        <pt x="286" y="574" on="1"/>
        <pt x="274" y="520" on="0"/>
        <pt x="246" y="390" on="0"/>
        <pt x="225" y="289" on="1"/>
        <pt x="373" y="289" on="1"/>
        <pt x="355" y="375" on="0"/>
        <pt x="327" y="508" on="0"/>
        <pt x="313" y="568" on="1"/>
        <pt x="312" y="574" on="0"/>
      </contour>
    </TTGlyph>
    <TTGlyph name="Acircumflex" xMin="33" yMin="0" xMax="568" yMax="946">
      <contour>
        <pt x="193" y="775" on="1"/>
        <pt x="81" y="775" on="1"/>
        <pt x="70" y="775" on="0"/>
        <pt x="70" y="783" on="1"/>
        <pt x="70" y="787" on="0"/>
        <pt x="76" y="795" on="0"/>
        <pt x="89" y="808" on="1"/>
        <pt x="100" y="819" on="0"/>
        <pt x="138" y="857" on="0"/>
        <pt x="181" y="899" on="0"/>
        <pt x="218" y="936" on="0"/>
        <pt x="228" y="946" on="1"/>
        <pt x="361" y="946" on="1"/>
        <pt x="369" y="946" on="0"/>
        <pt x="379" y="939" on="0"/>
        <pt x="392" y="927" on="1"/>
        <pt x="400" y="920" on="0"/>
        <pt x="435" y="885" on="0"/>
        <pt x="479" y="840" on="0"/>
        <pt x="525" y="794" on="0"/>
        <pt x="543" y="775" on="1"/>
        <pt x="426" y="775" on="1"/>
        <pt x="415" y="775" on="0"/>
        <pt x="404" y="779" on="0"/>
        <pt x="396" y="785" on="1"/>
        <pt x="384" y="795" on="0"/>
        <pt x="333" y="837" on="0"/>
        <pt x="301" y="864" on="1"/>
        <pt x="271" y="839" on="0"/>
        <pt x="218" y="796" on="0"/>
      </contour>
      <contour>
        <pt x="167" y="0" on="1"/>
        <pt x="44" y="0" on="1"/>
        <pt x="33" y="0" on="0"/>
        <pt x="36" y="13" on="1"/>
        <pt x="86" y="255" on="0"/>
        <pt x="161" y="608" on="0"/>
        <pt x="183" y="702" on="1"/>
        <pt x="407" y="702" on="1"/>
        <pt x="412" y="702" on="0"/>
        <pt x="415" y="699" on="1"/>
        <pt x="418" y="696" on="0"/>
        <pt x="419" y="691" on="1"/>
        <pt x="450" y="553" on="0"/>
        <pt x="525" y="202" on="0"/>
        <pt x="568" y="0" on="1"/>
        <pt x="442" y="0" on="1"/>
        <pt x="437" y="0" on="0"/>
        <pt x="434" y="3" on="1"/>
        <pt x="433" y="4" on="0"/>
        <pt x="430" y="12" on="1"/>
        <pt x="414" y="94" on="0"/>
        <pt x="399" y="164" on="1"/>
        <pt x="200" y="164" on="1"/>
        <pt x="185" y="90" on="0"/>
      </contour>
      <contour>
        <pt x="306" y="574" on="1"/>
        <pt x="286" y="574" on="1"/>
        <pt x="274" y="520" on="0"/>
        <pt x="246" y="390" on="0"/>
        <pt x="225" y="289" on="1"/>
        <pt x="373" y="289" on="1"/>
        <pt x="355" y="375" on="0"/>
        <pt x="327" y="508" on="0"/>
        <pt x="313" y="568" on="1"/>
        <pt x="312" y="574" on="0"/>
      </contour>
    </TTGlyph>
    <TTGlyph name="Adieresis" xMin="33" yMin="0" xMax="568" yMax="927">
      <contour>
        <pt x="263" y="791" on="1"/>
        <pt x="131" y="791" on="1"/>
        <pt x="120" y="791" on="0"/>
        <pt x="120" y="802" on="1"/>
        <pt x="120" y="927" on="1"/>
        <pt x="252" y="927" on="1"/>
        <pt x="263" y="927" on="0"/>
        <pt x="263" y="916" on="1"/>
      </contour>
      <contour>
        <pt x="480" y="791" on="1"/>
        <pt x="348" y="791" on="1"/>
        <pt x="337" y="791" on="0"/>
        <pt x="337" y="802" on="1"/>
        <pt x="337" y="927" on="1"/>
        <pt x="469" y="927" on="1"/>
        <pt x="480" y="927" on="0"/>
        <pt x="480" y="916" on="1"/>
      </contour>
      <contour>
        <pt x="167" y="0" on="1"/>
        <pt x="44" y="0" on="1"/>
        <pt x="33" y="0" on="0"/>
        <pt x="36" y="13" on="1"/>
        <pt x="86" y="255" on="0"/>
        <pt x="161" y="608" on="0"/>
        <pt x="183" y="702" on="1"/>
        <pt x="407" y="702" on="1"/>
        <pt x="412" y="702" on="0"/>
        <pt x="415" y="699" on="1"/>
        <pt x="418" y="696" on="0"/>
        <pt x="419" y="691" on="1"/>
        <pt x="450" y="553" on="0"/>
        <pt x="525" y="202" on="0"/>
        <pt x="568" y="0" on="1"/>
        <pt x="442" y="0" on="1"/>
        <pt x="437" y="0" on="0"/>
        <pt x="434" y="3" on="1"/>
        <pt x="433" y="4" on="0"/>
        <pt x="430" y="12" on="1"/>
        <pt x="414" y="94" on="0"/>
        <pt x="399" y="164" on="1"/>
        <pt x="200" y="164" on="1"/>
        <pt x="185" y="90" on="0"/>
      </contour>
      <contour>
        <pt x="306" y="574" on="1"/>
        <pt x="286" y="574" on="1"/>
        <pt x="274" y="520" on="0"/>
        <pt x="246" y="390" on="0"/>
        <pt x="225" y="289" on="1"/>
        <pt x="373" y="289" on="1"/>
        <pt x="355" y="375" on="0"/>
        <pt x="327" y="508" on="0"/>
        <pt x="313" y="568" on="1"/>
        <pt x="312" y="574" on="0"/>
      </contour>
    </TTGlyph>
    <TTGlyph name="Adotbelow" xMin="33" yMin="-239" xMax="568" yMax="702">
      <contour>
        <pt x="167" y="0" on="1"/>
        <pt x="44" y="0" on="1"/>
        <pt x="33" y="0" on="0"/>
        <pt x="36" y="13" on="1"/>
        <pt x="86" y="255" on="0"/>
        <pt x="161" y="608" on="0"/>
        <pt x="183" y="702" on="1"/>
        <pt x="407" y="702" on="1"/>
        <pt x="412" y="702" on="0"/>
        <pt x="415" y="699" on="1"/>
        <pt x="418" y="696" on="0"/>
        <pt x="419" y="691" on="1"/>
        <pt x="450" y="553" on="0"/>
        <pt x="525" y="202" on="0"/>
        <pt x="568" y="0" on="1"/>
        <pt x="442" y="0" on="1"/>
        <pt x="437" y="0" on="0"/>
        <pt x="434" y="3" on="1"/>
        <pt x="433" y="4" on="0"/>
        <pt x="430" y="12" on="1"/>
        <pt x="414" y="94" on="0"/>
        <pt x="399" y="164" on="1"/>
        <pt x="200" y="164" on="1"/>
        <pt x="185" y="90" on="0"/>
      </contour>
      <contour>
        <pt x="306" y="574" on="1"/>
        <pt x="286" y="574" on="1"/>
        <pt x="274" y="520" on="0"/>
        <pt x="246" y="390" on="0"/>
        <pt x="225" y="289" on="1"/>
        <pt x="373" y="289" on="1"/>
        <pt x="355" y="375" on="0"/>
        <pt x="327" y="508" on="0"/>
        <pt x="313" y="568" on="1"/>
        <pt x="312" y="574" on="0"/>
      </contour>
      <contour>
        <pt x="381" y="-239" on="1"/>
        <pt x="230" y="-239" on="1"/>
        <pt x="219" y="-239" on="0"/>
        <pt x="219" y="-228" on="1"/>
        <pt x="219" y="-101" on="1"/>
        <pt x="370" y="-101" on="1"/>
        <pt x="381" y="-101" on="0"/>
        <pt x="381" y="-112" on="1"/>
      </contour>
    </TTGlyph>
    <TTGlyph name="Agrave" xMin="33" yMin="0" xMax="568" yMax="955">
      <contour>
        <pt x="359" y="775" on="1"/>
        <pt x="252" y="775" on="1"/>
        <pt x="241" y="775" on="0"/>
        <pt x="236" y="782" on="1"/>
        <pt x="202" y="820" on="0"/>
        <pt x="157" y="869" on="0"/>
        <pt x="119" y="913" on="0"/>
        <pt x="94" y="941" on="1"/>
        <pt x="90" y="946" on="0"/>
        <pt x="94" y="955" on="0"/>
        <pt x="100" y="955" on="1"/>
        <pt x="252" y="955" on="1"/>
        <pt x="279" y="909" on="0"/>
        <pt x="332" y="821" on="0"/>
      </contour>
      <contour>
        <pt x="167" y="0" on="1"/>
        <pt x="44" y="0" on="1"/>
        <pt x="33" y="0" on="0"/>
        <pt x="36" y="13" on="1"/>
        <pt x="86" y="255" on="0"/>
        <pt x="161" y="608" on="0"/>
        <pt x="183" y="702" on="1"/>
        <pt x="407" y="702" on="1"/>
        <pt x="412" y="702" on="0"/>
        <pt x="415" y="699" on="1"/>
        <pt x="418" y="696" on="0"/>
        <pt x="419" y="691" on="1"/>
        <pt x="450" y="553" on="0"/>
        <pt x="525" y="202" on="0"/>
        <pt x="568" y="0" on="1"/>
        <pt x="442" y="0" on="1"/>
        <pt x="437" y="0" on="0"/>
        <pt x="434" y="3" on="1"/>
        <pt x="433" y="4" on="0"/>
        <pt x="430" y="12" on="1"/>
        <pt x="414" y="94" on="0"/>
        <pt x="399" y="164" on="1"/>
        <pt x="200" y="164" on="1"/>
        <pt x="185" y="90" on="0"/>
      </contour>
      <contour>
        <pt x="306" y="574" on="1"/>
        <pt x="286" y="574" on="1"/>
        <pt x="274" y="520" on="0"/>
        <pt x="246" y="390" on="0"/>
        <pt x="225" y="289" on="1"/>
        <pt x="373" y="289" on="1"/>
        <pt x="355" y="375" on="0"/>
        <pt x="327" y="508" on="0"/>
        <pt x="313" y="568" on="1"/>
        <pt x="312" y="574" on="0"/>
      </contour>
    </TTGlyph>
    <TTGlyph name="Amacron" xMin="33" yMin="0" xMax="568" yMax="912">
      <contour>
        <pt x="121" y="912" on="1"/>
        <pt x="468" y="912" on="1"/>
        <pt x="479" y="912" on="0"/>
        <pt x="479" y="901" on="1"/>
        <pt x="479" y="801" on="1"/>
        <pt x="132" y="801" on="1"/>
        <pt x="121" y="801" on="0"/>
        <pt x="121" y="812" on="1"/>
      </contour>
      <contour>
        <pt x="167" y="0" on="1"/>
        <pt x="44" y="0" on="1"/>
        <pt x="33" y="0" on="0"/>
        <pt x="36" y="13" on="1"/>
        <pt x="86" y="255" on="0"/>
        <pt x="161" y="608" on="0"/>
        <pt x="183" y="702" on="1"/>
        <pt x="407" y="702" on="1"/>
        <pt x="412" y="702" on="0"/>
        <pt x="415" y="699" on="1"/>
        <pt x="418" y="696" on="0"/>
        <pt x="419" y="691" on="1"/>
        <pt x="450" y="553" on="0"/>
        <pt x="525" y="202" on="0"/>
        <pt x="568" y="0" on="1"/>
        <pt x="442" y="0" on="1"/>
        <pt x="437" y="0" on="0"/>
        <pt x="434" y="3" on="1"/>
        <pt x="433" y="4" on="0"/>
        <pt x="430" y="12" on="1"/>
        <pt x="414" y="94" on="0"/>
        <pt x="399" y="164" on="1"/>
        <pt x="200" y="164" on="1"/>
        <pt x="185" y="90" on="0"/>
      </contour>
      <contour>
        <pt x="306" y="574" on="1"/>
        <pt x="286" y="574" on="1"/>
        <pt x="274" y="520" on="0"/>
        <pt x="246" y="390" on="0"/>
        <pt x="225" y="289" on="1"/>
        <pt x="373" y="289" on="1"/>
        <pt x="355" y="375" on="0"/>
        <pt x="327" y="508" on="0"/>
        <pt x="313" y="568" on="1"/>
        <pt x="312" y="574" on="0"/>
      </contour>
    </TTGlyph>
    <TTGlyph name="Aogonek" xMin="33" yMin="-250" xMax="568" yMax="702">
      <contour>
        <pt x="167" y="0" on="1"/>
        <pt x="44" y="0" on="1"/>
        <pt x="33" y="0" on="0"/>
        <pt x="36" y="13" on="1"/>
        <pt x="86" y="255" on="0"/>
        <pt x="161" y="608" on="0"/>
        <pt x="183" y="702" on="1"/>
        <pt x="407" y="702" on="1"/>
        <pt x="412" y="702" on="0"/>
        <pt x="415" y="699" on="1"/>
        <pt x="418" y="696" on="0"/>
        <pt x="419" y="691" on="1"/>
        <pt x="450" y="553" on="0"/>
        <pt x="525" y="202" on="0"/>
        <pt x="568" y="0" on="1"/>
        <pt x="568" y="-4" on="0"/>
        <pt x="564" y="-9" on="0"/>
        <pt x="555" y="-11" on="1"/>
        <pt x="503" y="-21" on="0"/>
        <pt x="453" y="-60" on="0"/>
        <pt x="453" y="-86" on="1"/>
        <pt x="453" y="-123" on="0"/>
        <pt x="496" y="-123" on="1"/>
        <pt x="510" y="-123" on="0"/>
        <pt x="534" y="-115" on="0"/>
        <pt x="544" y="-108" on="1"/>
        <pt x="563" y="-108" on="1"/>
        <pt x="563" y="-216" on="1"/>
        <pt x="563" y="-230" on="0"/>
        <pt x="515" y="-250" on="0"/>
        <pt x="481" y="-250" on="1"/>
        <pt x="413" y="-250" on="0"/>
        <pt x="335" y="-184" on="0"/>
        <pt x="335" y="-125" on="1"/>
        <pt x="335" y="-73" on="0"/>
        <pt x="390" y="0" on="0"/>
        <pt x="429" y="19" on="1"/>
        <pt x="413" y="97" on="0"/>
        <pt x="399" y="164" on="1"/>
        <pt x="200" y="164" on="1"/>
        <pt x="185" y="90" on="0"/>
      </contour>
      <contour>
        <pt x="306" y="574" on="1"/>
        <pt x="286" y="574" on="1"/>
        <pt x="274" y="520" on="0"/>
        <pt x="246" y="390" on="0"/>
        <pt x="225" y="289" on="1"/>
        <pt x="373" y="289" on="1"/>
        <pt x="355" y="375" on="0"/>
        <pt x="327" y="508" on="0"/>
        <pt x="313" y="568" on="1"/>
        <pt x="312" y="574" on="0"/>
      </contour>
    </TTGlyph>
    <TTGlyph name="Aring" xMin="33" yMin="0" xMax="568" yMax="898">
      <contour>
        <pt x="167" y="0" on="1"/>
        <pt x="44" y="0" on="1"/>
        <pt x="33" y="0" on="0"/>
        <pt x="36" y="13" on="1"/>
        <pt x="81" y="230" on="0"/>
        <pt x="151" y="558" on="0"/>
        <pt x="173" y="659" on="1"/>
        <pt x="132" y="692" on="0"/>
        <pt x="132" y="747" on="1"/>
        <pt x="132" y="773" on="1"/>
        <pt x="132" y="831" on="0"/>
        <pt x="221" y="898" on="0"/>
        <pt x="300" y="898" on="1"/>
        <pt x="380" y="898" on="0"/>
        <pt x="467" y="831" on="0"/>
        <pt x="467" y="773" on="1"/>
        <pt x="467" y="747" on="1"/>
        <pt x="467" y="692" on="0"/>
        <pt x="426" y="659" on="1"/>
        <pt x="456" y="524" on="0"/>
        <pt x="527" y="190" on="0"/>
        <pt x="568" y="0" on="1"/>
        <pt x="442" y="0" on="1"/>
        <pt x="437" y="0" on="0"/>
        <pt x="434" y="3" on="1"/>
        <pt x="433" y="4" on="0"/>
        <pt x="430" y="12" on="1"/>
        <pt x="414" y="94" on="0"/>
        <pt x="399" y="164" on="1"/>
        <pt x="200" y="164" on="1"/>
        <pt x="185" y="90" on="0"/>
      </contour>
      <contour>
        <pt x="240" y="752" on="1"/>
        <pt x="240" y="730" on="0"/>
        <pt x="272" y="704" on="0"/>
        <pt x="300" y="704" on="1"/>
        <pt x="329" y="704" on="0"/>
        <pt x="360" y="730" on="0"/>
        <pt x="360" y="752" on="1"/>
        <pt x="360" y="768" on="1"/>
        <pt x="360" y="816" on="0"/>
        <pt x="300" y="816" on="1"/>
        <pt x="240" y="816" on="0"/>
        <pt x="240" y="768" on="1"/>
      </contour>
      <contour>
        <pt x="306" y="574" on="1"/>
        <pt x="286" y="574" on="1"/>
        <pt x="274" y="520" on="0"/>
        <pt x="246" y="390" on="0"/>
        <pt x="225" y="289" on="1"/>
        <pt x="373" y="289" on="1"/>
        <pt x="355" y="375" on="0"/>
        <pt x="327" y="508" on="0"/>
        <pt x="313" y="568" on="1"/>
        <pt x="312" y="574" on="0"/>
      </contour>
    </TTGlyph>
    <TTGlyph name="Aringacute" xMin="33" yMin="0" xMax="568" yMax="1035">
      <contour>
        <pt x="167" y="0" on="1"/>
        <pt x="44" y="0" on="1"/>
        <pt x="33" y="0" on="0"/>
        <pt x="36" y="13" on="1"/>
        <pt x="81" y="230" on="0"/>
        <pt x="151" y="558" on="0"/>
        <pt x="173" y="659" on="1"/>
        <pt x="132" y="692" on="0"/>
        <pt x="132" y="747" on="1"/>
        <pt x="132" y="773" on="1"/>
        <pt x="132" y="826" on="0"/>
        <pt x="206" y="891" on="0"/>
        <pt x="273" y="897" on="1"/>
        <pt x="294" y="931" on="0"/>
        <pt x="335" y="1000" on="0"/>
        <pt x="356" y="1035" on="1"/>
        <pt x="509" y="1035" on="1"/>
        <pt x="515" y="1035" on="0"/>
        <pt x="519" y="1026" on="0"/>
        <pt x="515" y="1021" on="1"/>
        <pt x="492" y="996" on="0"/>
        <pt x="457" y="956" on="0"/>
        <pt x="418" y="913" on="0"/>
        <pt x="391" y="883" on="1"/>
        <pt x="467" y="852" on="0"/>
        <pt x="467" y="773" on="1"/>
        <pt x="467" y="747" on="1"/>
        <pt x="467" y="692" on="0"/>
        <pt x="426" y="659" on="1"/>
        <pt x="456" y="524" on="0"/>
        <pt x="527" y="190" on="0"/>
        <pt x="568" y="0" on="1"/>
        <pt x="442" y="0" on="1"/>
        <pt x="437" y="0" on="0"/>
        <pt x="434" y="3" on="1"/>
        <pt x="433" y="4" on="0"/>
        <pt x="430" y="12" on="1"/>
        <pt x="414" y="94" on="0"/>
        <pt x="399" y="164" on="1"/>
        <pt x="200" y="164" on="1"/>
        <pt x="185" y="90" on="0"/>
      </contour>
      <contour>
        <pt x="240" y="752" on="1"/>
        <pt x="240" y="730" on="0"/>
        <pt x="272" y="704" on="0"/>
        <pt x="300" y="704" on="1"/>
        <pt x="329" y="704" on="0"/>
        <pt x="360" y="730" on="0"/>
        <pt x="360" y="752" on="1"/>
        <pt x="360" y="768" on="1"/>
        <pt x="360" y="816" on="0"/>
        <pt x="300" y="816" on="1"/>
        <pt x="240" y="816" on="0"/>
        <pt x="240" y="768" on="1"/>
      </contour>
      <contour>
        <pt x="306" y="574" on="1"/>
        <pt x="286" y="574" on="1"/>
        <pt x="274" y="520" on="0"/>
        <pt x="246" y="390" on="0"/>
        <pt x="225" y="289" on="1"/>
        <pt x="373" y="289" on="1"/>
        <pt x="355" y="375" on="0"/>
        <pt x="327" y="508" on="0"/>
        <pt x="313" y="568" on="1"/>
        <pt x="312" y="574" on="0"/>
      </contour>
    </TTGlyph>
    <TTGlyph name="Atilde" xMin="33" yMin="0" xMax="568" yMax="954">
      <contour>
        <pt x="406" y="897" on="1"/>
        <pt x="453" y="897" on="0"/>
        <pt x="483" y="938" on="1"/>
        <pt x="502" y="938" on="1"/>
        <pt x="502" y="830" on="1"/>
        <pt x="502" y="822" on="0"/>
        <pt x="500" y="813" on="0"/>
        <pt x="495" y="808" on="1"/>
        <pt x="479" y="792" on="0"/>
        <pt x="434" y="771" on="0"/>
        <pt x="401" y="771" on="1"/>
        <pt x="358" y="771" on="0"/>
        <pt x="291" y="799" on="0"/>
        <pt x="229" y="828" on="0"/>
        <pt x="194" y="828" on="1"/>
        <pt x="147" y="828" on="0"/>
        <pt x="117" y="787" on="1"/>
        <pt x="98" y="787" on="1"/>
        <pt x="98" y="895" on="1"/>
        <pt x="98" y="903" on="0"/>
        <pt x="100" y="911" on="0"/>
        <pt x="105" y="917" on="1"/>
        <pt x="121" y="934" on="0"/>
        <pt x="166" y="954" on="0"/>
        <pt x="199" y="954" on="1"/>
        <pt x="242" y="954" on="0"/>
        <pt x="309" y="925" on="0"/>
        <pt x="371" y="897" on="0"/>
      </contour>
      <contour>
        <pt x="167" y="0" on="1"/>
        <pt x="44" y="0" on="1"/>
        <pt x="33" y="0" on="0"/>
        <pt x="36" y="13" on="1"/>
        <pt x="86" y="255" on="0"/>
        <pt x="161" y="608" on="0"/>
        <pt x="183" y="702" on="1"/>
        <pt x="407" y="702" on="1"/>
        <pt x="412" y="702" on="0"/>
        <pt x="415" y="699" on="1"/>
        <pt x="418" y="696" on="0"/>
        <pt x="419" y="691" on="1"/>
        <pt x="450" y="553" on="0"/>
        <pt x="525" y="202" on="0"/>
        <pt x="568" y="0" on="1"/>
        <pt x="442" y="0" on="1"/>
        <pt x="437" y="0" on="0"/>
        <pt x="434" y="3" on="1"/>
        <pt x="433" y="4" on="0"/>
        <pt x="430" y="12" on="1"/>
        <pt x="414" y="94" on="0"/>
        <pt x="399" y="164" on="1"/>
        <pt x="200" y="164" on="1"/>
        <pt x="185" y="90" on="0"/>
      </contour>
      <contour>
        <pt x="306" y="574" on="1"/>
        <pt x="286" y="574" on="1"/>
        <pt x="274" y="520" on="0"/>
        <pt x="246" y="390" on="0"/>
        <pt x="225" y="289" on="1"/>
        <pt x="373" y="289" on="1"/>
        <pt x="355" y="375" on="0"/>
        <pt x="327" y="508" on="0"/>
        <pt x="313" y="568" on="1"/>
        <pt x="312" y="574" on="0"/>
      </contour>
    </TTGlyph>
    <TTGlyph name="B" xMin="30" yMin="0" xMax="537" yMax="700">
      <contour>
        <pt x="537" y="180" on="1"/>
        <pt x="537" y="89" on="0"/>
        <pt x="420" y="0" on="0"/>
        <pt x="322" y="0" on="1"/>
        <pt x="90" y="0" on="1"/>
        <pt x="79" y="0" on="0"/>
        <pt x="79" y="11" on="1"/>
        <pt x="79" y="574" on="1"/>
        <pt x="41" y="574" on="1"/>
        <pt x="36" y="574" on="0"/>
        <pt x="33" y="577" on="1"/>
        <pt x="30" y="580" on="0"/>
        <pt x="30" y="585" on="1"/>
        <pt x="30" y="700" on="1"/>
        <pt x="304" y="700" on="1"/>
        <pt x="306" y="700" on="0"/>
        <pt x="307" y="700" on="1"/>
        <pt x="307" y="700" on="0"/>
        <pt x="307" y="700" on="1"/>
        <pt x="393" y="700" on="0"/>
        <pt x="492" y="648" on="0"/>
        <pt x="535" y="570" on="0"/>
        <pt x="535" y="528" on="1"/>
        <pt x="535" y="501" on="1"/>
        <pt x="535" y="447" on="0"/>
        <pt x="473" y="371" on="0"/>
        <pt x="418" y="354" on="1"/>
        <pt x="472" y="338" on="0"/>
        <pt x="537" y="264" on="0"/>
        <pt x="537" y="213" on="1"/>
      </contour>
      <contour>
        <pt x="314" y="574" on="1"/>
        <pt x="216" y="574" on="1"/>
        <pt x="216" y="400" on="1"/>
        <pt x="309" y="400" on="1"/>
        <pt x="357" y="400" on="0"/>
        <pt x="398" y="439" on="0"/>
        <pt x="398" y="474" on="1"/>
        <pt x="398" y="505" on="1"/>
        <pt x="398" y="574" on="0"/>
      </contour>
      <contour>
        <pt x="302" y="306" on="1"/>
        <pt x="216" y="306" on="1"/>
        <pt x="216" y="126" on="1"/>
        <pt x="314" y="126" on="1"/>
        <pt x="359" y="126" on="0"/>
        <pt x="400" y="166" on="0"/>
        <pt x="400" y="201" on="1"/>
        <pt x="400" y="237" on="1"/>
        <pt x="400" y="270" on="0"/>
        <pt x="357" y="306" on="0"/>
      </contour>
    </TTGlyph>
    <TTGlyph name="C" xMin="54" yMin="-20" xMax="546" yMax="720">
      <contour>
        <pt x="337" y="-20" on="1"/>
        <pt x="195" y="-20" on="0"/>
        <pt x="54" y="124" on="0"/>
        <pt x="54" y="254" on="1"/>
        <pt x="54" y="451" on="1"/>
        <pt x="54" y="532" on="0"/>
        <pt x="119" y="653" on="0"/>
        <pt x="243" y="720" on="0"/>
        <pt x="332" y="720" on="1"/>
        <pt x="409" y="720" on="0"/>
        <pt x="509" y="678" on="0"/>
        <pt x="534" y="653" on="1"/>
        <pt x="540" y="647" on="0"/>
        <pt x="540" y="634" on="1"/>
        <pt x="540" y="465" on="1"/>
        <pt x="426" y="465" on="1"/>
        <pt x="421" y="465" on="0"/>
        <pt x="418" y="468" on="1"/>
        <pt x="415" y="471" on="0"/>
        <pt x="415" y="476" on="1"/>
        <pt x="415" y="577" on="1"/>
        <pt x="397" y="585" on="0"/>
        <pt x="355" y="593" on="0"/>
        <pt x="329" y="593" on="1"/>
        <pt x="266" y="593" on="0"/>
        <pt x="196" y="525" on="0"/>
        <pt x="196" y="449" on="1"/>
        <pt x="196" y="273" on="1"/>
        <pt x="196" y="187" on="0"/>
        <pt x="266" y="112" on="0"/>
        <pt x="337" y="112" on="1"/>
        <pt x="396" y="112" on="0"/>
        <pt x="487" y="137" on="0"/>
        <pt x="527" y="162" on="1"/>
        <pt x="546" y="162" on="1"/>
        <pt x="546" y="40" on="1"/>
        <pt x="546" y="35" on="0"/>
        <pt x="543" y="32" on="1"/>
        <pt x="521" y="11" on="0"/>
        <pt x="408" y="-20" on="0"/>
      </contour>
    </TTGlyph>
    <TTGlyph name="Cacute" xMin="54" yMin="-20" xMax="546" yMax="955">
      <contour>
        <pt x="354" y="775" on="1"/>
        <pt x="247" y="775" on="1"/>
        <pt x="274" y="821" on="0"/>
        <pt x="327" y="909" on="0"/>
        <pt x="354" y="955" on="1"/>
        <pt x="506" y="955" on="1"/>
        <pt x="512" y="955" on="0"/>
        <pt x="517" y="945" on="0"/>
        <pt x="512" y="940" on="1"/>
        <pt x="487" y="912" on="0"/>
        <pt x="449" y="869" on="0"/>
        <pt x="405" y="819" on="0"/>
        <pt x="370" y="781" on="1"/>
        <pt x="364" y="775" on="0"/>
      </contour>
      <contour>
        <pt x="337" y="-20" on="1"/>
        <pt x="195" y="-20" on="0"/>
        <pt x="54" y="124" on="0"/>
        <pt x="54" y="254" on="1"/>
        <pt x="54" y="451" on="1"/>
        <pt x="54" y="532" on="0"/>
        <pt x="119" y="653" on="0"/>
        <pt x="243" y="720" on="0"/>
        <pt x="332" y="720" on="1"/>
        <pt x="409" y="720" on="0"/>
        <pt x="509" y="678" on="0"/>
        <pt x="534" y="653" on="1"/>
        <pt x="540" y="647" on="0"/>
        <pt x="540" y="634" on="1"/>
        <pt x="540" y="465" on="1"/>
        <pt x="426" y="465" on="1"/>
        <pt x="421" y="465" on="0"/>
        <pt x="418" y="468" on="1"/>
        <pt x="415" y="471" on="0"/>
        <pt x="415" y="476" on="1"/>
        <pt x="415" y="577" on="1"/>
        <pt x="397" y="585" on="0"/>
        <pt x="355" y="593" on="0"/>
        <pt x="329" y="593" on="1"/>
        <pt x="266" y="593" on="0"/>
        <pt x="196" y="525" on="0"/>
        <pt x="196" y="449" on="1"/>
        <pt x="196" y="273" on="1"/>
        <pt x="196" y="187" on="0"/>
        <pt x="266" y="112" on="0"/>
        <pt x="337" y="112" on="1"/>
        <pt x="396" y="112" on="0"/>
        <pt x="487" y="137" on="0"/>
        <pt x="527" y="162" on="1"/>
        <pt x="546" y="162" on="1"/>
        <pt x="546" y="40" on="1"/>
        <pt x="546" y="35" on="0"/>
        <pt x="543" y="32" on="1"/>
        <pt x="521" y="11" on="0"/>
        <pt x="408" y="-20" on="0"/>
      </contour>
    </TTGlyph>
    <TTGlyph name="Ccaron" xMin="54" yMin="-20" xMax="546" yMax="946">
      <contour>
        <pt x="64" y="946" on="1"/>
        <pt x="181" y="946" on="1"/>
        <pt x="192" y="946" on="0"/>
        <pt x="203" y="942" on="0"/>
        <pt x="210" y="936" on="1"/>
        <pt x="222" y="927" on="0"/>
        <pt x="273" y="884" on="0"/>
        <pt x="306" y="857" on="1"/>
        <pt x="336" y="882" on="0"/>
        <pt x="389" y="926" on="0"/>
        <pt x="413" y="946" on="1"/>
        <pt x="526" y="946" on="1"/>
        <pt x="537" y="946" on="0"/>
        <pt x="537" y="939" on="1"/>
        <pt x="537" y="935" on="0"/>
        <pt x="531" y="927" on="0"/>
        <pt x="518" y="914" on="1"/>
        <pt x="507" y="903" on="0"/>
        <pt x="469" y="865" on="0"/>
        <pt x="426" y="822" on="0"/>
        <pt x="389" y="785" on="0"/>
        <pt x="379" y="775" on="1"/>
        <pt x="245" y="775" on="1"/>
        <pt x="238" y="775" on="0"/>
        <pt x="227" y="782" on="0"/>
        <pt x="214" y="795" on="1"/>
        <pt x="207" y="802" on="0"/>
        <pt x="172" y="837" on="0"/>
        <pt x="128" y="882" on="0"/>
        <pt x="82" y="928" on="0"/>
      </contour>
      <contour>
        <pt x="337" y="-20" on="1"/>
        <pt x="195" y="-20" on="0"/>
        <pt x="54" y="124" on="0"/>
        <pt x="54" y="254" on="1"/>
        <pt x="54" y="451" on="1"/>
        <pt x="54" y="532" on="0"/>
        <pt x="119" y="653" on="0"/>
        <pt x="243" y="720" on="0"/>
        <pt x="332" y="720" on="1"/>
        <pt x="409" y="720" on="0"/>
        <pt x="509" y="678" on="0"/>
        <pt x="534" y="653" on="1"/>
        <pt x="540" y="647" on="0"/>
        <pt x="540" y="634" on="1"/>
        <pt x="540" y="465" on="1"/>
        <pt x="426" y="465" on="1"/>
        <pt x="421" y="465" on="0"/>
        <pt x="418" y="468" on="1"/>
        <pt x="415" y="471" on="0"/>
        <pt x="415" y="476" on="1"/>
        <pt x="415" y="577" on="1"/>
        <pt x="397" y="585" on="0"/>
        <pt x="355" y="593" on="0"/>
        <pt x="329" y="593" on="1"/>
        <pt x="266" y="593" on="0"/>
        <pt x="196" y="525" on="0"/>
        <pt x="196" y="449" on="1"/>
        <pt x="196" y="273" on="1"/>
        <pt x="196" y="187" on="0"/>
        <pt x="266" y="112" on="0"/>
        <pt x="337" y="112" on="1"/>
        <pt x="396" y="112" on="0"/>
        <pt x="487" y="137" on="0"/>
        <pt x="527" y="162" on="1"/>
        <pt x="546" y="162" on="1"/>
        <pt x="546" y="40" on="1"/>
        <pt x="546" y="35" on="0"/>
        <pt x="543" y="32" on="1"/>
        <pt x="521" y="11" on="0"/>
        <pt x="408" y="-20" on="0"/>
      </contour>
    </TTGlyph>
    <TTGlyph name="Ccedilla" xMin="54" yMin="-245" xMax="546" yMax="720">
      <contour>
        <pt x="437" y="-113" on="1"/>
        <pt x="437" y="-168" on="0"/>
        <pt x="363" y="-245" on="0"/>
        <pt x="285" y="-245" on="1"/>
        <pt x="236" y="-245" on="0"/>
        <pt x="196" y="-222" on="0"/>
        <pt x="196" y="-215" on="1"/>
        <pt x="196" y="-114" on="1"/>
        <pt x="208" y="-114" on="1"/>
        <pt x="222" y="-122" on="0"/>
        <pt x="250" y="-130" on="0"/>
        <pt x="271" y="-130" on="1"/>
        <pt x="298" y="-130" on="0"/>
        <pt x="330" y="-106" on="0"/>
        <pt x="330" y="-87" on="1"/>
        <pt x="330" y="-66" on="0"/>
        <pt x="306" y="-47" on="0"/>
        <pt x="275" y="-47" on="1"/>
        <pt x="270" y="-47" on="0"/>
        <pt x="264" y="-39" on="0"/>
        <pt x="267" y="-32" on="1"/>
        <pt x="270" y="-24" on="0"/>
        <pt x="274" y="-16" on="1"/>
        <pt x="163" y="0" on="0"/>
        <pt x="54" y="140" on="0"/>
        <pt x="54" y="254" on="1"/>
        <pt x="54" y="451" on="1"/>
        <pt x="54" y="532" on="0"/>
        <pt x="119" y="653" on="0"/>
        <pt x="243" y="720" on="0"/>
        <pt x="332" y="720" on="1"/>
        <pt x="409" y="720" on="0"/>
        <pt x="509" y="678" on="0"/>
        <pt x="534" y="653" on="1"/>
        <pt x="540" y="647" on="0"/>
        <pt x="540" y="634" on="1"/>
        <pt x="540" y="465" on="1"/>
        <pt x="426" y="465" on="1"/>
        <pt x="421" y="465" on="0"/>
        <pt x="418" y="468" on="1"/>
        <pt x="415" y="471" on="0"/>
        <pt x="415" y="476" on="1"/>
        <pt x="415" y="577" on="1"/>
        <pt x="397" y="585" on="0"/>
        <pt x="355" y="593" on="0"/>
        <pt x="329" y="593" on="1"/>
        <pt x="266" y="593" on="0"/>
        <pt x="196" y="525" on="0"/>
        <pt x="196" y="449" on="1"/>
        <pt x="196" y="273" on="1"/>
        <pt x="196" y="187" on="0"/>
        <pt x="266" y="112" on="0"/>
        <pt x="337" y="112" on="1"/>
        <pt x="396" y="112" on="0"/>
        <pt x="487" y="137" on="0"/>
        <pt x="527" y="162" on="1"/>
        <pt x="546" y="162" on="1"/>
        <pt x="546" y="40" on="1"/>
        <pt x="546" y="35" on="0"/>
        <pt x="543" y="32" on="1"/>
        <pt x="525" y="14" on="0"/>
        <pt x="436" y="-14" on="0"/>
        <pt x="379" y="-18" on="1"/>
        <pt x="407" y="-31" on="0"/>
        <pt x="437" y="-79" on="0"/>
      </contour>
    </TTGlyph>
    <TTGlyph name="Ccircumflex" xMin="54" yMin="-20" xMax="549" yMax="946">
      <contour>
        <pt x="199" y="775" on="1"/>
        <pt x="87" y="775" on="1"/>
        <pt x="76" y="775" on="0"/>
        <pt x="76" y="783" on="1"/>
        <pt x="76" y="787" on="0"/>
        <pt x="82" y="795" on="0"/>
        <pt x="95" y="808" on="1"/>
        <pt x="106" y="819" on="0"/>
        <pt x="144" y="857" on="0"/>
        <pt x="187" y="899" on="0"/>
        <pt x="224" y="936" on="0"/>
        <pt x="234" y="946" on="1"/>
        <pt x="367" y="946" on="1"/>
        <pt x="375" y="946" on="0"/>
        <pt x="385" y="939" on="0"/>
        <pt x="398" y="927" on="1"/>
        <pt x="406" y="920" on="0"/>
        <pt x="441" y="885" on="0"/>
        <pt x="485" y="840" on="0"/>
        <pt x="531" y="794" on="0"/>
        <pt x="549" y="775" on="1"/>
        <pt x="432" y="775" on="1"/>
        <pt x="421" y="775" on="0"/>
        <pt x="410" y="779" on="0"/>
        <pt x="402" y="785" on="1"/>
        <pt x="390" y="795" on="0"/>
        <pt x="339" y="837" on="0"/>
        <pt x="307" y="864" on="1"/>
        <pt x="277" y="839" on="0"/>
        <pt x="224" y="796" on="0"/>
      </contour>
      <contour>
        <pt x="337" y="-20" on="1"/>
        <pt x="195" y="-20" on="0"/>
        <pt x="54" y="124" on="0"/>
        <pt x="54" y="254" on="1"/>
        <pt x="54" y="451" on="1"/>
        <pt x="54" y="532" on="0"/>
        <pt x="119" y="653" on="0"/>
        <pt x="243" y="720" on="0"/>
        <pt x="332" y="720" on="1"/>
        <pt x="409" y="720" on="0"/>
        <pt x="509" y="678" on="0"/>
        <pt x="534" y="653" on="1"/>
        <pt x="540" y="647" on="0"/>
        <pt x="540" y="634" on="1"/>
        <pt x="540" y="465" on="1"/>
        <pt x="426" y="465" on="1"/>
        <pt x="421" y="465" on="0"/>
        <pt x="418" y="468" on="1"/>
        <pt x="415" y="471" on="0"/>
        <pt x="415" y="476" on="1"/>
        <pt x="415" y="577" on="1"/>
        <pt x="397" y="585" on="0"/>
        <pt x="355" y="593" on="0"/>
        <pt x="329" y="593" on="1"/>
        <pt x="266" y="593" on="0"/>
        <pt x="196" y="525" on="0"/>
        <pt x="196" y="449" on="1"/>
        <pt x="196" y="273" on="1"/>
        <pt x="196" y="187" on="0"/>
        <pt x="266" y="112" on="0"/>
        <pt x="337" y="112" on="1"/>
        <pt x="396" y="112" on="0"/>
        <pt x="487" y="137" on="0"/>
        <pt x="527" y="162" on="1"/>
        <pt x="546" y="162" on="1"/>
        <pt x="546" y="40" on="1"/>
        <pt x="546" y="35" on="0"/>
        <pt x="543" y="32" on="1"/>
        <pt x="521" y="11" on="0"/>
        <pt x="408" y="-20" on="0"/>
      </contour>
    </TTGlyph>
    <TTGlyph name="Cdotaccent" xMin="54" yMin="-20" xMax="546" yMax="929">
      <contour>
        <pt x="387" y="791" on="1"/>
        <pt x="236" y="791" on="1"/>
        <pt x="225" y="791" on="0"/>
        <pt x="225" y="802" on="1"/>
        <pt x="225" y="929" on="1"/>
        <pt x="376" y="929" on="1"/>
        <pt x="387" y="929" on="0"/>
        <pt x="387" y="918" on="1"/>
      </contour>
      <contour>
        <pt x="337" y="-20" on="1"/>
        <pt x="195" y="-20" on="0"/>
        <pt x="54" y="124" on="0"/>
        <pt x="54" y="254" on="1"/>
        <pt x="54" y="451" on="1"/>
        <pt x="54" y="532" on="0"/>
        <pt x="119" y="653" on="0"/>
        <pt x="243" y="720" on="0"/>
        <pt x="332" y="720" on="1"/>
        <pt x="409" y="720" on="0"/>
        <pt x="509" y="678" on="0"/>
        <pt x="534" y="653" on="1"/>
        <pt x="540" y="647" on="0"/>
        <pt x="540" y="634" on="1"/>
        <pt x="540" y="465" on="1"/>
        <pt x="426" y="465" on="1"/>
        <pt x="421" y="465" on="0"/>
        <pt x="418" y="468" on="1"/>
        <pt x="415" y="471" on="0"/>
        <pt x="415" y="476" on="1"/>
        <pt x="415" y="577" on="1"/>
        <pt x="397" y="585" on="0"/>
        <pt x="355" y="593" on="0"/>
        <pt x="329" y="593" on="1"/>
        <pt x="266" y="593" on="0"/>
        <pt x="196" y="525" on="0"/>
        <pt x="196" y="449" on="1"/>
        <pt x="196" y="273" on="1"/>
        <pt x="196" y="187" on="0"/>
        <pt x="266" y="112" on="0"/>
        <pt x="337" y="112" on="1"/>
        <pt x="396" y="112" on="0"/>
        <pt x="487" y="137" on="0"/>
        <pt x="527" y="162" on="1"/>
        <pt x="546" y="162" on="1"/>
        <pt x="546" y="40" on="1"/>
        <pt x="546" y="35" on="0"/>
        <pt x="543" y="32" on="1"/>
        <pt x="521" y="11" on="0"/>
        <pt x="408" y="-20" on="0"/>
      </contour>
    </TTGlyph>
    <TTGlyph name="D" xMin="38" yMin="0" xMax="539" yMax="700">
      <contour>
        <pt x="539" y="242" on="1"/>
        <pt x="539" y="128" on="0"/>
        <pt x="412" y="0" on="0"/>
        <pt x="299" y="0" on="1"/>
        <pt x="90" y="0" on="1"/>
        <pt x="79" y="0" on="0"/>
        <pt x="79" y="10" on="1"/>
        <pt x="79" y="10" on="0"/>
        <pt x="79" y="11" on="1"/>
        <pt x="79" y="574" on="1"/>
        <pt x="49" y="574" on="1"/>
        <pt x="44" y="574" on="0"/>
        <pt x="41" y="577" on="1"/>
        <pt x="38" y="580" on="0"/>
        <pt x="38" y="585" on="1"/>
        <pt x="38" y="700" on="1"/>
        <pt x="287" y="700" on="1"/>
        <pt x="417" y="700" on="0"/>
        <pt x="539" y="573" on="0"/>
        <pt x="539" y="451" on="1"/>
      </contour>
      <contour>
        <pt x="291" y="574" on="1"/>
        <pt x="217" y="574" on="1"/>
        <pt x="217" y="126" on="1"/>
        <pt x="291" y="126" on="1"/>
        <pt x="343" y="126" on="0"/>
        <pt x="402" y="190" on="0"/>
        <pt x="402" y="242" on="1"/>
        <pt x="402" y="446" on="1"/>
        <pt x="402" y="517" on="0"/>
        <pt x="352" y="574" on="0"/>
      </contour>
    </TTGlyph>
    <TTGlyph name="Dcaron" xMin="38" yMin="0" xMax="539" yMax="946">
      <contour>
        <pt x="46" y="946" on="1"/>
        <pt x="164" y="946" on="1"/>
        <pt x="175" y="946" on="0"/>
        <pt x="186" y="942" on="0"/>
        <pt x="193" y="936" on="1"/>
        <pt x="205" y="927" on="0"/>
        <pt x="256" y="885" on="0"/>
        <pt x="289" y="857" on="1"/>
        <pt x="319" y="882" on="0"/>
        <pt x="371" y="926" on="0"/>
        <pt x="396" y="946" on="1"/>
        <pt x="508" y="946" on="1"/>
        <pt x="520" y="946" on="0"/>
        <pt x="520" y="939" on="1"/>
        <pt x="520" y="935" on="0"/>
        <pt x="513" y="927" on="0"/>
        <pt x="500" y="914" on="1"/>
        <pt x="489" y="903" on="0"/>
        <pt x="451" y="865" on="0"/>
        <pt x="409" y="822" on="0"/>
        <pt x="372" y="785" on="0"/>
        <pt x="362" y="775" on="1"/>
        <pt x="228" y="775" on="1"/>
        <pt x="221" y="775" on="0"/>
        <pt x="210" y="782" on="0"/>
        <pt x="197" y="795" on="1"/>
        <pt x="190" y="802" on="0"/>
        <pt x="154" y="837" on="0"/>
        <pt x="110" y="882" on="0"/>
        <pt x="64" y="928" on="0"/>
      </contour>
      <contour>
        <pt x="539" y="242" on="1"/>
        <pt x="539" y="128" on="0"/>
        <pt x="412" y="0" on="0"/>
        <pt x="299" y="0" on="1"/>
        <pt x="90" y="0" on="1"/>
        <pt x="79" y="0" on="0"/>
        <pt x="79" y="10" on="1"/>
        <pt x="79" y="10" on="0"/>
        <pt x="79" y="11" on="1"/>
        <pt x="79" y="574" on="1"/>
        <pt x="49" y="574" on="1"/>
        <pt x="44" y="574" on="0"/>
        <pt x="41" y="577" on="1"/>
        <pt x="38" y="580" on="0"/>
        <pt x="38" y="585" on="1"/>
        <pt x="38" y="700" on="1"/>
        <pt x="287" y="700" on="1"/>
        <pt x="417" y="700" on="0"/>
        <pt x="539" y="573" on="0"/>
        <pt x="539" y="451" on="1"/>
      </contour>
      <contour>
        <pt x="291" y="574" on="1"/>
        <pt x="217" y="574" on="1"/>
        <pt x="217" y="126" on="1"/>
        <pt x="291" y="126" on="1"/>
        <pt x="343" y="126" on="0"/>
        <pt x="402" y="190" on="0"/>
        <pt x="402" y="242" on="1"/>
        <pt x="402" y="446" on="1"/>
        <pt x="402" y="517" on="0"/>
        <pt x="352" y="574" on="0"/>
      </contour>
    </TTGlyph>
    <TTGlyph name="Dcroat" xMin="13" yMin="0" xMax="539" yMax="700">
      <contour>
        <pt x="13" y="405" on="1"/>
        <pt x="79" y="405" on="1"/>
        <pt x="79" y="574" on="1"/>
        <pt x="49" y="574" on="1"/>
        <pt x="44" y="574" on="0"/>
        <pt x="41" y="577" on="1"/>
        <pt x="38" y="580" on="0"/>
        <pt x="38" y="585" on="1"/>
        <pt x="38" y="700" on="1"/>
        <pt x="287" y="700" on="1"/>
        <pt x="417" y="700" on="0"/>
        <pt x="539" y="573" on="0"/>
        <pt x="539" y="451" on="1"/>
        <pt x="539" y="242" on="1"/>
        <pt x="539" y="128" on="0"/>
        <pt x="412" y="0" on="0"/>
        <pt x="299" y="0" on="1"/>
        <pt x="90" y="0" on="1"/>
        <pt x="79" y="0" on="0"/>
        <pt x="79" y="10" on="1"/>
        <pt x="79" y="10" on="0"/>
        <pt x="79" y="11" on="1"/>
        <pt x="79" y="306" on="1"/>
        <pt x="24" y="306" on="1"/>
        <pt x="13" y="306" on="0"/>
        <pt x="13" y="317" on="1"/>
      </contour>
      <contour>
        <pt x="329" y="306" on="1"/>
        <pt x="217" y="306" on="1"/>
        <pt x="217" y="126" on="1"/>
        <pt x="291" y="126" on="1"/>
        <pt x="343" y="126" on="0"/>
        <pt x="402" y="190" on="0"/>
        <pt x="402" y="242" on="1"/>
        <pt x="402" y="446" on="1"/>
        <pt x="402" y="517" on="0"/>
        <pt x="352" y="574" on="0"/>
        <pt x="291" y="574" on="1"/>
        <pt x="217" y="574" on="1"/>
        <pt x="217" y="405" on="1"/>
        <pt x="318" y="405" on="1"/>
        <pt x="329" y="405" on="0"/>
        <pt x="329" y="394" on="1"/>
      </contour>
    </TTGlyph>
    <TTGlyph name="E" xMin="30" yMin="0" xMax="538" yMax="700">
      <contour>
        <pt x="30" y="700" on="1"/>
        <pt x="527" y="700" on="1"/>
        <pt x="532" y="700" on="0"/>
        <pt x="535" y="697" on="1"/>
        <pt x="538" y="694" on="0"/>
        <pt x="538" y="689" on="1"/>
        <pt x="538" y="574" on="1"/>
        <pt x="220" y="574" on="1"/>
        <pt x="220" y="413" on="1"/>
        <pt x="469" y="413" on="1"/>
        <pt x="474" y="413" on="0"/>
        <pt x="477" y="410" on="1"/>
        <pt x="480" y="407" on="0"/>
        <pt x="480" y="402" on="1"/>
        <pt x="480" y="291" on="1"/>
        <pt x="220" y="291" on="1"/>
        <pt x="220" y="126" on="1"/>
        <pt x="527" y="126" on="1"/>
        <pt x="538" y="126" on="0"/>
        <pt x="538" y="115" on="1"/>
        <pt x="538" y="0" on="1"/>
        <pt x="90" y="0" on="1"/>
        <pt x="79" y="0" on="0"/>
        <pt x="79" y="11" on="1"/>
        <pt x="79" y="574" on="1"/>
        <pt x="41" y="574" on="1"/>
        <pt x="36" y="574" on="0"/>
        <pt x="33" y="577" on="1"/>
        <pt x="30" y="580" on="0"/>
        <pt x="30" y="585" on="1"/>
      </contour>
    </TTGlyph>
    <TTGlyph name="Eacute" xMin="30" yMin="0" xMax="538" yMax="955">
      <contour>
        <pt x="348" y="775" on="1"/>
        <pt x="241" y="775" on="1"/>
        <pt x="268" y="821" on="0"/>
        <pt x="321" y="909" on="0"/>
        <pt x="348" y="955" on="1"/>
        <pt x="500" y="955" on="1"/>
        <pt x="506" y="955" on="0"/>
        <pt x="511" y="945" on="0"/>
        <pt x="506" y="940" on="1"/>
        <pt x="481" y="912" on="0"/>
        <pt x="443" y="869" on="0"/>
        <pt x="399" y="819" on="0"/>
        <pt x="364" y="781" on="1"/>
        <pt x="358" y="775" on="0"/>
      </contour>
      <contour>
        <pt x="30" y="700" on="1"/>
        <pt x="527" y="700" on="1"/>
        <pt x="532" y="700" on="0"/>
        <pt x="535" y="697" on="1"/>
        <pt x="538" y="694" on="0"/>
        <pt x="538" y="689" on="1"/>
        <pt x="538" y="574" on="1"/>
        <pt x="220" y="574" on="1"/>
        <pt x="220" y="413" on="1"/>
        <pt x="469" y="413" on="1"/>
        <pt x="474" y="413" on="0"/>
        <pt x="477" y="410" on="1"/>
        <pt x="480" y="407" on="0"/>
        <pt x="480" y="402" on="1"/>
        <pt x="480" y="291" on="1"/>
        <pt x="220" y="291" on="1"/>
        <pt x="220" y="126" on="1"/>
        <pt x="527" y="126" on="1"/>
        <pt x="538" y="126" on="0"/>
        <pt x="538" y="115" on="1"/>
        <pt x="538" y="0" on="1"/>
        <pt x="90" y="0" on="1"/>
        <pt x="79" y="0" on="0"/>
        <pt x="79" y="11" on="1"/>
        <pt x="79" y="574" on="1"/>
        <pt x="41" y="574" on="1"/>
        <pt x="36" y="574" on="0"/>
        <pt x="33" y="577" on="1"/>
        <pt x="30" y="580" on="0"/>
        <pt x="30" y="585" on="1"/>
      </contour>
    </TTGlyph>
    <TTGlyph name="Ebreve" xMin="30" yMin="0" xMax="538" yMax="947">
      <contour>
        <pt x="206" y="947" on="1"/>
        <pt x="220" y="914" on="0"/>
        <pt x="264" y="888" on="0"/>
        <pt x="300" y="888" on="1"/>
        <pt x="336" y="888" on="0"/>
        <pt x="380" y="914" on="0"/>
        <pt x="394" y="947" on="1"/>
        <pt x="477" y="947" on="1"/>
        <pt x="487" y="947" on="0"/>
        <pt x="492" y="939" on="0"/>
        <pt x="490" y="927" on="1"/>
        <pt x="484" y="890" on="0"/>
        <pt x="439" y="824" on="0"/>
        <pt x="368" y="783" on="0"/>
        <pt x="324" y="783" on="1"/>
        <pt x="276" y="783" on="1"/>
        <pt x="232" y="783" on="0"/>
        <pt x="161" y="824" on="0"/>
        <pt x="116" y="890" on="0"/>
        <pt x="110" y="927" on="1"/>
        <pt x="108" y="939" on="0"/>
        <pt x="113" y="947" on="0"/>
        <pt x="123" y="947" on="1"/>
      </contour>
      <contour>
        <pt x="30" y="700" on="1"/>
        <pt x="527" y="700" on="1"/>
        <pt x="532" y="700" on="0"/>
        <pt x="535" y="697" on="1"/>
        <pt x="538" y="694" on="0"/>
        <pt x="538" y="689" on="1"/>
        <pt x="538" y="574" on="1"/>
        <pt x="220" y="574" on="1"/>
        <pt x="220" y="413" on="1"/>
        <pt x="469" y="413" on="1"/>
        <pt x="474" y="413" on="0"/>
        <pt x="477" y="410" on="1"/>
        <pt x="480" y="407" on="0"/>
        <pt x="480" y="402" on="1"/>
        <pt x="480" y="291" on="1"/>
        <pt x="220" y="291" on="1"/>
        <pt x="220" y="126" on="1"/>
        <pt x="527" y="126" on="1"/>
        <pt x="538" y="126" on="0"/>
        <pt x="538" y="115" on="1"/>
        <pt x="538" y="0" on="1"/>
        <pt x="90" y="0" on="1"/>
        <pt x="79" y="0" on="0"/>
        <pt x="79" y="11" on="1"/>
        <pt x="79" y="574" on="1"/>
        <pt x="41" y="574" on="1"/>
        <pt x="36" y="574" on="0"/>
        <pt x="33" y="577" on="1"/>
        <pt x="30" y="580" on="0"/>
        <pt x="30" y="585" on="1"/>
      </contour>
    </TTGlyph>
    <TTGlyph name="Ecaron" xMin="30" yMin="0" xMax="538" yMax="946">
      <contour>
        <pt x="57" y="946" on="1"/>
        <pt x="175" y="946" on="1"/>
        <pt x="186" y="946" on="0"/>
        <pt x="197" y="942" on="0"/>
        <pt x="204" y="936" on="1"/>
        <pt x="216" y="927" on="0"/>
        <pt x="267" y="884" on="0"/>
        <pt x="300" y="857" on="1"/>
        <pt x="330" y="882" on="0"/>
        <pt x="383" y="926" on="0"/>
        <pt x="407" y="946" on="1"/>
        <pt x="520" y="946" on="1"/>
        <pt x="531" y="946" on="0"/>
        <pt x="531" y="939" on="1"/>
        <pt x="531" y="935" on="0"/>
        <pt x="525" y="927" on="0"/>
        <pt x="512" y="914" on="1"/>
        <pt x="501" y="903" on="0"/>
        <pt x="463" y="865" on="0"/>
        <pt x="420" y="822" on="0"/>
        <pt x="383" y="785" on="0"/>
        <pt x="373" y="775" on="1"/>
        <pt x="239" y="775" on="1"/>
        <pt x="232" y="775" on="0"/>
        <pt x="221" y="782" on="0"/>
        <pt x="208" y="795" on="1"/>
      </contour>
      <contour>
        <pt x="30" y="700" on="1"/>
        <pt x="527" y="700" on="1"/>
        <pt x="532" y="700" on="0"/>
        <pt x="535" y="697" on="1"/>
        <pt x="538" y="694" on="0"/>
        <pt x="538" y="689" on="1"/>
        <pt x="538" y="574" on="1"/>
        <pt x="220" y="574" on="1"/>
        <pt x="220" y="413" on="1"/>
        <pt x="469" y="413" on="1"/>
        <pt x="474" y="413" on="0"/>
        <pt x="477" y="410" on="1"/>
        <pt x="480" y="407" on="0"/>
        <pt x="480" y="402" on="1"/>
        <pt x="480" y="291" on="1"/>
        <pt x="220" y="291" on="1"/>
        <pt x="220" y="126" on="1"/>
        <pt x="527" y="126" on="1"/>
        <pt x="538" y="126" on="0"/>
        <pt x="538" y="115" on="1"/>
        <pt x="538" y="0" on="1"/>
        <pt x="90" y="0" on="1"/>
        <pt x="79" y="0" on="0"/>
        <pt x="79" y="11" on="1"/>
        <pt x="79" y="574" on="1"/>
        <pt x="41" y="574" on="1"/>
        <pt x="36" y="574" on="0"/>
        <pt x="33" y="577" on="1"/>
        <pt x="30" y="580" on="0"/>
        <pt x="30" y="585" on="1"/>
      </contour>
    </TTGlyph>
    <TTGlyph name="Ecircumflex" xMin="30" yMin="0" xMax="543" yMax="946">
      <contour>
        <pt x="193" y="775" on="1"/>
        <pt x="81" y="775" on="1"/>
        <pt x="70" y="775" on="0"/>
        <pt x="70" y="783" on="1"/>
        <pt x="70" y="787" on="0"/>
        <pt x="76" y="795" on="0"/>
        <pt x="89" y="808" on="1"/>
        <pt x="100" y="819" on="0"/>
        <pt x="138" y="857" on="0"/>
        <pt x="181" y="899" on="0"/>
        <pt x="218" y="936" on="0"/>
        <pt x="228" y="946" on="1"/>
        <pt x="361" y="946" on="1"/>
        <pt x="369" y="946" on="0"/>
        <pt x="379" y="939" on="0"/>
        <pt x="392" y="927" on="1"/>
        <pt x="400" y="920" on="0"/>
        <pt x="435" y="885" on="0"/>
        <pt x="479" y="840" on="0"/>
        <pt x="525" y="794" on="0"/>
        <pt x="543" y="775" on="1"/>
        <pt x="426" y="775" on="1"/>
        <pt x="415" y="775" on="0"/>
        <pt x="404" y="779" on="0"/>
        <pt x="396" y="785" on="1"/>
        <pt x="384" y="795" on="0"/>
        <pt x="333" y="837" on="0"/>
        <pt x="301" y="864" on="1"/>
        <pt x="271" y="839" on="0"/>
        <pt x="218" y="796" on="0"/>
      </contour>
      <contour>
        <pt x="30" y="700" on="1"/>
        <pt x="527" y="700" on="1"/>
        <pt x="532" y="700" on="0"/>
        <pt x="535" y="697" on="1"/>
        <pt x="538" y="694" on="0"/>
        <pt x="538" y="689" on="1"/>
        <pt x="538" y="574" on="1"/>
        <pt x="220" y="574" on="1"/>
        <pt x="220" y="413" on="1"/>
        <pt x="469" y="413" on="1"/>
        <pt x="474" y="413" on="0"/>
        <pt x="477" y="410" on="1"/>
        <pt x="480" y="407" on="0"/>
        <pt x="480" y="402" on="1"/>
        <pt x="480" y="291" on="1"/>
        <pt x="220" y="291" on="1"/>
        <pt x="220" y="126" on="1"/>
        <pt x="527" y="126" on="1"/>
        <pt x="538" y="126" on="0"/>
        <pt x="538" y="115" on="1"/>
        <pt x="538" y="0" on="1"/>
        <pt x="90" y="0" on="1"/>
        <pt x="79" y="0" on="0"/>
        <pt x="79" y="11" on="1"/>
        <pt x="79" y="574" on="1"/>
        <pt x="41" y="574" on="1"/>
        <pt x="36" y="574" on="0"/>
        <pt x="33" y="577" on="1"/>
        <pt x="30" y="580" on="0"/>
        <pt x="30" y="585" on="1"/>
      </contour>
    </TTGlyph>
    <TTGlyph name="Edieresis" xMin="30" yMin="0" xMax="538" yMax="927">
      <contour>
        <pt x="263" y="791" on="1"/>
        <pt x="131" y="791" on="1"/>
        <pt x="120" y="791" on="0"/>
        <pt x="120" y="802" on="1"/>
        <pt x="120" y="927" on="1"/>
        <pt x="252" y="927" on="1"/>
        <pt x="263" y="927" on="0"/>
        <pt x="263" y="916" on="1"/>
      </contour>
      <contour>
        <pt x="480" y="791" on="1"/>
        <pt x="348" y="791" on="1"/>
        <pt x="337" y="791" on="0"/>
        <pt x="337" y="802" on="1"/>
        <pt x="337" y="927" on="1"/>
        <pt x="469" y="927" on="1"/>
        <pt x="480" y="927" on="0"/>
        <pt x="480" y="916" on="1"/>
      </contour>
      <contour>
        <pt x="30" y="700" on="1"/>
        <pt x="527" y="700" on="1"/>
        <pt x="532" y="700" on="0"/>
        <pt x="535" y="697" on="1"/>
        <pt x="538" y="694" on="0"/>
        <pt x="538" y="689" on="1"/>
        <pt x="538" y="574" on="1"/>
        <pt x="220" y="574" on="1"/>
        <pt x="220" y="413" on="1"/>
        <pt x="469" y="413" on="1"/>
        <pt x="474" y="413" on="0"/>
        <pt x="477" y="410" on="1"/>
        <pt x="480" y="407" on="0"/>
        <pt x="480" y="402" on="1"/>
        <pt x="480" y="291" on="1"/>
        <pt x="220" y="291" on="1"/>
        <pt x="220" y="126" on="1"/>
        <pt x="527" y="126" on="1"/>
        <pt x="538" y="126" on="0"/>
        <pt x="538" y="115" on="1"/>
        <pt x="538" y="0" on="1"/>
        <pt x="90" y="0" on="1"/>
        <pt x="79" y="0" on="0"/>
        <pt x="79" y="11" on="1"/>
        <pt x="79" y="574" on="1"/>
        <pt x="41" y="574" on="1"/>
        <pt x="36" y="574" on="0"/>
        <pt x="33" y="577" on="1"/>
        <pt x="30" y="580" on="0"/>
        <pt x="30" y="585" on="1"/>
      </contour>
    </TTGlyph>
    <TTGlyph name="Edotaccent" xMin="30" yMin="0" xMax="538" yMax="929">
      <contour>
        <pt x="381" y="791" on="1"/>
        <pt x="230" y="791" on="1"/>
        <pt x="219" y="791" on="0"/>
        <pt x="219" y="802" on="1"/>
        <pt x="219" y="929" on="1"/>
        <pt x="370" y="929" on="1"/>
        <pt x="381" y="929" on="0"/>
        <pt x="381" y="918" on="1"/>
      </contour>
      <contour>
        <pt x="30" y="700" on="1"/>
        <pt x="527" y="700" on="1"/>
        <pt x="532" y="700" on="0"/>
        <pt x="535" y="697" on="1"/>
        <pt x="538" y="694" on="0"/>
        <pt x="538" y="689" on="1"/>
        <pt x="538" y="574" on="1"/>
        <pt x="220" y="574" on="1"/>
        <pt x="220" y="413" on="1"/>
        <pt x="469" y="413" on="1"/>
        <pt x="474" y="413" on="0"/>
        <pt x="477" y="410" on="1"/>
        <pt x="480" y="407" on="0"/>
        <pt x="480" y="402" on="1"/>
        <pt x="480" y="291" on="1"/>
        <pt x="220" y="291" on="1"/>
        <pt x="220" y="126" on="1"/>
        <pt x="527" y="126" on="1"/>
        <pt x="538" y="126" on="0"/>
        <pt x="538" y="115" on="1"/>
        <pt x="538" y="0" on="1"/>
        <pt x="90" y="0" on="1"/>
        <pt x="79" y="0" on="0"/>
        <pt x="79" y="11" on="1"/>
        <pt x="79" y="574" on="1"/>
        <pt x="41" y="574" on="1"/>
        <pt x="36" y="574" on="0"/>
        <pt x="33" y="577" on="1"/>
        <pt x="30" y="580" on="0"/>
        <pt x="30" y="585" on="1"/>
      </contour>
    </TTGlyph>
    <TTGlyph name="Edotbelow" xMin="30" yMin="-239" xMax="538" yMax="700">
      <contour>
        <pt x="30" y="700" on="1"/>
        <pt x="527" y="700" on="1"/>
        <pt x="532" y="700" on="0"/>
        <pt x="535" y="697" on="1"/>
        <pt x="538" y="694" on="0"/>
        <pt x="538" y="689" on="1"/>
        <pt x="538" y="574" on="1"/>
        <pt x="220" y="574" on="1"/>
        <pt x="220" y="413" on="1"/>
        <pt x="469" y="413" on="1"/>
        <pt x="474" y="413" on="0"/>
        <pt x="477" y="410" on="1"/>
        <pt x="480" y="407" on="0"/>
        <pt x="480" y="402" on="1"/>
        <pt x="480" y="291" on="1"/>
        <pt x="220" y="291" on="1"/>
        <pt x="220" y="126" on="1"/>
        <pt x="527" y="126" on="1"/>
        <pt x="538" y="126" on="0"/>
        <pt x="538" y="115" on="1"/>
        <pt x="538" y="0" on="1"/>
        <pt x="90" y="0" on="1"/>
        <pt x="79" y="0" on="0"/>
        <pt x="79" y="11" on="1"/>
        <pt x="79" y="574" on="1"/>
        <pt x="41" y="574" on="1"/>
        <pt x="36" y="574" on="0"/>
        <pt x="33" y="577" on="1"/>
        <pt x="30" y="580" on="0"/>
        <pt x="30" y="585" on="1"/>
      </contour>
      <contour>
        <pt x="401" y="-239" on="1"/>
        <pt x="250" y="-239" on="1"/>
        <pt x="239" y="-239" on="0"/>
        <pt x="239" y="-228" on="1"/>
        <pt x="239" y="-101" on="1"/>
        <pt x="390" y="-101" on="1"/>
        <pt x="401" y="-101" on="0"/>
        <pt x="401" y="-112" on="1"/>
      </contour>
    </TTGlyph>
    <TTGlyph name="Egrave" xMin="30" yMin="0" xMax="538" yMax="955">
      <contour>
        <pt x="359" y="775" on="1"/>
        <pt x="252" y="775" on="1"/>
        <pt x="241" y="775" on="0"/>
        <pt x="236" y="782" on="1"/>
        <pt x="202" y="820" on="0"/>
        <pt x="157" y="869" on="0"/>
        <pt x="119" y="913" on="0"/>
        <pt x="94" y="941" on="1"/>
        <pt x="90" y="946" on="0"/>
        <pt x="94" y="955" on="0"/>
        <pt x="100" y="955" on="1"/>
        <pt x="252" y="955" on="1"/>
        <pt x="279" y="909" on="0"/>
        <pt x="332" y="821" on="0"/>
      </contour>
      <contour>
        <pt x="30" y="700" on="1"/>
        <pt x="527" y="700" on="1"/>
        <pt x="532" y="700" on="0"/>
        <pt x="535" y="697" on="1"/>
        <pt x="538" y="694" on="0"/>
        <pt x="538" y="689" on="1"/>
        <pt x="538" y="574" on="1"/>
        <pt x="220" y="574" on="1"/>
        <pt x="220" y="413" on="1"/>
        <pt x="469" y="413" on="1"/>
        <pt x="474" y="413" on="0"/>
        <pt x="477" y="410" on="1"/>
        <pt x="480" y="407" on="0"/>
        <pt x="480" y="402" on="1"/>
        <pt x="480" y="291" on="1"/>
        <pt x="220" y="291" on="1"/>
        <pt x="220" y="126" on="1"/>
        <pt x="527" y="126" on="1"/>
        <pt x="538" y="126" on="0"/>
        <pt x="538" y="115" on="1"/>
        <pt x="538" y="0" on="1"/>
        <pt x="90" y="0" on="1"/>
        <pt x="79" y="0" on="0"/>
        <pt x="79" y="11" on="1"/>
        <pt x="79" y="574" on="1"/>
        <pt x="41" y="574" on="1"/>
        <pt x="36" y="574" on="0"/>
        <pt x="33" y="577" on="1"/>
        <pt x="30" y="580" on="0"/>
        <pt x="30" y="585" on="1"/>
      </contour>
    </TTGlyph>
    <TTGlyph name="Emacron" xMin="30" yMin="0" xMax="538" yMax="912">
      <contour>
        <pt x="121" y="912" on="1"/>
        <pt x="468" y="912" on="1"/>
        <pt x="479" y="912" on="0"/>
        <pt x="479" y="901" on="1"/>
        <pt x="479" y="801" on="1"/>
        <pt x="132" y="801" on="1"/>
        <pt x="121" y="801" on="0"/>
        <pt x="121" y="812" on="1"/>
      </contour>
      <contour>
        <pt x="30" y="700" on="1"/>
        <pt x="527" y="700" on="1"/>
        <pt x="532" y="700" on="0"/>
        <pt x="535" y="697" on="1"/>
        <pt x="538" y="694" on="0"/>
        <pt x="538" y="689" on="1"/>
        <pt x="538" y="574" on="1"/>
        <pt x="220" y="574" on="1"/>
        <pt x="220" y="413" on="1"/>
        <pt x="469" y="413" on="1"/>
        <pt x="474" y="413" on="0"/>
        <pt x="477" y="410" on="1"/>
        <pt x="480" y="407" on="0"/>
        <pt x="480" y="402" on="1"/>
        <pt x="480" y="291" on="1"/>
        <pt x="220" y="291" on="1"/>
        <pt x="220" y="126" on="1"/>
        <pt x="527" y="126" on="1"/>
        <pt x="538" y="126" on="0"/>
        <pt x="538" y="115" on="1"/>
        <pt x="538" y="0" on="1"/>
        <pt x="90" y="0" on="1"/>
        <pt x="79" y="0" on="0"/>
        <pt x="79" y="11" on="1"/>
        <pt x="79" y="574" on="1"/>
        <pt x="41" y="574" on="1"/>
        <pt x="36" y="574" on="0"/>
        <pt x="33" y="577" on="1"/>
        <pt x="30" y="580" on="0"/>
        <pt x="30" y="585" on="1"/>
      </contour>
    </TTGlyph>
    <TTGlyph name="Eng" xMin="64" yMin="-250" xMax="536" yMax="700">
      <contour>
        <pt x="197" y="0" on="1"/>
        <pt x="75" y="0" on="1"/>
        <pt x="64" y="0" on="0"/>
        <pt x="64" y="11" on="1"/>
        <pt x="64" y="700" on="1"/>
        <pt x="190" y="700" on="1"/>
        <pt x="199" y="700" on="0"/>
        <pt x="205" y="697" on="0"/>
        <pt x="208" y="690" on="1"/>
        <pt x="259" y="580" on="0"/>
        <pt x="364" y="354" on="0"/>
        <pt x="417" y="241" on="1"/>
        <pt x="413" y="283" on="0"/>
        <pt x="407" y="357" on="0"/>
        <pt x="403" y="406" on="0"/>
        <pt x="403" y="411" on="1"/>
        <pt x="403" y="700" on="1"/>
        <pt x="525" y="700" on="1"/>
        <pt x="536" y="700" on="0"/>
        <pt x="536" y="689" on="1"/>
        <pt x="536" y="0" on="1"/>
        <pt x="536" y="-122" on="0"/>
        <pt x="424" y="-250" on="0"/>
        <pt x="313" y="-250" on="1"/>
        <pt x="260" y="-250" on="0"/>
        <pt x="176" y="-229" on="0"/>
        <pt x="165" y="-219" on="1"/>
        <pt x="162" y="-216" on="0"/>
        <pt x="162" y="-211" on="1"/>
        <pt x="162" y="-92" on="1"/>
        <pt x="181" y="-92" on="1"/>
        <pt x="210" y="-105" on="0"/>
        <pt x="265" y="-118" on="0"/>
        <pt x="297" y="-118" on="1"/>
        <pt x="354" y="-118" on="0"/>
        <pt x="409" y="-60" on="0"/>
        <pt x="412" y="2" on="1"/>
        <pt x="409" y="4" on="0"/>
        <pt x="407" y="8" on="1"/>
        <pt x="350" y="127" on="0"/>
        <pt x="237" y="365" on="0"/>
        <pt x="181" y="484" on="1"/>
        <pt x="185" y="431" on="0"/>
        <pt x="192" y="331" on="0"/>
        <pt x="197" y="261" on="0"/>
        <pt x="197" y="253" on="1"/>
      </contour>
    </TTGlyph>
    <TTGlyph name="Eogonek" xMin="30" yMin="-250" xMax="538" yMax="700">
      <contour>
        <pt x="305" y="-125" on="1"/>
        <pt x="305" y="-84" on="0"/>
        <pt x="341" y="-21" on="0"/>
        <pt x="368" y="0" on="1"/>
        <pt x="90" y="0" on="1"/>
        <pt x="79" y="0" on="0"/>
        <pt x="79" y="11" on="1"/>
        <pt x="79" y="574" on="1"/>
        <pt x="41" y="574" on="1"/>
        <pt x="36" y="574" on="0"/>
        <pt x="33" y="577" on="1"/>
        <pt x="30" y="580" on="0"/>
        <pt x="30" y="585" on="1"/>
        <pt x="30" y="700" on="1"/>
        <pt x="527" y="700" on="1"/>
        <pt x="532" y="700" on="0"/>
        <pt x="535" y="697" on="1"/>
        <pt x="538" y="694" on="0"/>
        <pt x="538" y="689" on="1"/>
        <pt x="538" y="574" on="1"/>
        <pt x="220" y="574" on="1"/>
        <pt x="220" y="413" on="1"/>
        <pt x="469" y="413" on="1"/>
        <pt x="474" y="413" on="0"/>
        <pt x="477" y="410" on="1"/>
        <pt x="480" y="407" on="0"/>
        <pt x="480" y="402" on="1"/>
        <pt x="480" y="291" on="1"/>
        <pt x="220" y="291" on="1"/>
        <pt x="220" y="126" on="1"/>
        <pt x="527" y="126" on="1"/>
        <pt x="538" y="126" on="0"/>
        <pt x="538" y="115" on="1"/>
        <pt x="538" y="0" on="1"/>
        <pt x="538" y="-4" on="0"/>
        <pt x="534" y="-9" on="0"/>
        <pt x="525" y="-11" on="1"/>
        <pt x="473" y="-21" on="0"/>
        <pt x="423" y="-60" on="0"/>
        <pt x="423" y="-86" on="1"/>
        <pt x="423" y="-123" on="0"/>
        <pt x="466" y="-123" on="1"/>
        <pt x="480" y="-123" on="0"/>
        <pt x="504" y="-115" on="0"/>
        <pt x="515" y="-108" on="1"/>
        <pt x="533" y="-108" on="1"/>
        <pt x="533" y="-216" on="1"/>
        <pt x="533" y="-230" on="0"/>
        <pt x="485" y="-250" on="0"/>
        <pt x="452" y="-250" on="1"/>
        <pt x="384" y="-250" on="0"/>
        <pt x="305" y="-184" on="0"/>
      </contour>
    </TTGlyph>
    <TTGlyph name="Eth" xMin="13" yMin="0" xMax="539" yMax="700">
      <contour>
        <pt x="13" y="405" on="1"/>
        <pt x="79" y="405" on="1"/>
        <pt x="79" y="574" on="1"/>
        <pt x="49" y="574" on="1"/>
        <pt x="44" y="574" on="0"/>
        <pt x="41" y="577" on="1"/>
        <pt x="38" y="580" on="0"/>
        <pt x="38" y="585" on="1"/>
        <pt x="38" y="700" on="1"/>
        <pt x="287" y="700" on="1"/>
        <pt x="417" y="700" on="0"/>
        <pt x="539" y="573" on="0"/>
        <pt x="539" y="451" on="1"/>
        <pt x="539" y="242" on="1"/>
        <pt x="539" y="128" on="0"/>
        <pt x="412" y="0" on="0"/>
        <pt x="299" y="0" on="1"/>
        <pt x="90" y="0" on="1"/>
        <pt x="79" y="0" on="0"/>
        <pt x="79" y="10" on="1"/>
        <pt x="79" y="10" on="0"/>
        <pt x="79" y="11" on="1"/>
        <pt x="79" y="306" on="1"/>
        <pt x="24" y="306" on="1"/>
        <pt x="13" y="306" on="0"/>
        <pt x="13" y="317" on="1"/>
      </contour>
      <contour>
        <pt x="329" y="306" on="1"/>
        <pt x="217" y="306" on="1"/>
        <pt x="217" y="126" on="1"/>
        <pt x="291" y="126" on="1"/>
        <pt x="343" y="126" on="0"/>
        <pt x="402" y="190" on="0"/>
        <pt x="402" y="242" on="1"/>
        <pt x="402" y="446" on="1"/>
        <pt x="402" y="517" on="0"/>
        <pt x="352" y="574" on="0"/>
        <pt x="291" y="574" on="1"/>
        <pt x="217" y="574" on="1"/>
        <pt x="217" y="405" on="1"/>
        <pt x="318" y="405" on="1"/>
        <pt x="329" y="405" on="0"/>
        <pt x="329" y="394" on="1"/>
      </contour>
    </TTGlyph>
    <TTGlyph name="Etilde" xMin="30" yMin="0" xMax="538" yMax="954">
      <contour>
        <pt x="406" y="897" on="1"/>
        <pt x="453" y="897" on="0"/>
        <pt x="483" y="938" on="1"/>
        <pt x="502" y="938" on="1"/>
        <pt x="502" y="830" on="1"/>
        <pt x="502" y="822" on="0"/>
        <pt x="500" y="813" on="0"/>
        <pt x="495" y="808" on="1"/>
        <pt x="479" y="792" on="0"/>
        <pt x="434" y="771" on="0"/>
        <pt x="401" y="771" on="1"/>
        <pt x="358" y="771" on="0"/>
        <pt x="291" y="799" on="0"/>
        <pt x="229" y="828" on="0"/>
        <pt x="194" y="828" on="1"/>
        <pt x="147" y="828" on="0"/>
        <pt x="117" y="787" on="1"/>
        <pt x="98" y="787" on="1"/>
        <pt x="98" y="895" on="1"/>
        <pt x="98" y="903" on="0"/>
        <pt x="100" y="911" on="0"/>
        <pt x="105" y="917" on="1"/>
        <pt x="121" y="934" on="0"/>
        <pt x="166" y="954" on="0"/>
        <pt x="199" y="954" on="1"/>
        <pt x="242" y="954" on="0"/>
        <pt x="309" y="925" on="0"/>
        <pt x="371" y="897" on="0"/>
      </contour>
      <contour>
        <pt x="30" y="700" on="1"/>
        <pt x="527" y="700" on="1"/>
        <pt x="532" y="700" on="0"/>
        <pt x="535" y="697" on="1"/>
        <pt x="538" y="694" on="0"/>
        <pt x="538" y="689" on="1"/>
        <pt x="538" y="574" on="1"/>
        <pt x="220" y="574" on="1"/>
        <pt x="220" y="413" on="1"/>
        <pt x="469" y="413" on="1"/>
        <pt x="474" y="413" on="0"/>
        <pt x="477" y="410" on="1"/>
        <pt x="480" y="407" on="0"/>
        <pt x="480" y="402" on="1"/>
        <pt x="480" y="291" on="1"/>
        <pt x="220" y="291" on="1"/>
        <pt x="220" y="126" on="1"/>
        <pt x="527" y="126" on="1"/>
        <pt x="538" y="126" on="0"/>
        <pt x="538" y="115" on="1"/>
        <pt x="538" y="0" on="1"/>
        <pt x="90" y="0" on="1"/>
        <pt x="79" y="0" on="0"/>
        <pt x="79" y="11" on="1"/>
        <pt x="79" y="574" on="1"/>
        <pt x="41" y="574" on="1"/>
        <pt x="36" y="574" on="0"/>
        <pt x="33" y="577" on="1"/>
        <pt x="30" y="580" on="0"/>
        <pt x="30" y="585" on="1"/>
      </contour>
    </TTGlyph>
    <TTGlyph name="Euro" xMin="13" yMin="-20" xMax="546" yMax="720">
      <contour>
        <pt x="337" y="-20" on="1"/>
        <pt x="209" y="-20" on="0"/>
        <pt x="69" y="98" on="0"/>
        <pt x="57" y="206" on="1"/>
        <pt x="24" y="206" on="1"/>
        <pt x="13" y="206" on="0"/>
        <pt x="13" y="217" on="1"/>
        <pt x="13" y="305" on="1"/>
        <pt x="54" y="305" on="1"/>
        <pt x="54" y="372" on="1"/>
        <pt x="24" y="372" on="1"/>
        <pt x="13" y="372" on="0"/>
        <pt x="13" y="383" on="1"/>
        <pt x="13" y="471" on="1"/>
        <pt x="55" y="471" on="1"/>
        <pt x="61" y="584" on="0"/>
        <pt x="204" y="720" on="0"/>
        <pt x="332" y="720" on="1"/>
        <pt x="407" y="720" on="0"/>
        <pt x="506" y="682" on="0"/>
        <pt x="530" y="657" on="1"/>
        <pt x="540" y="648" on="0"/>
        <pt x="540" y="633" on="1"/>
        <pt x="540" y="529" on="1"/>
        <pt x="426" y="529" on="1"/>
        <pt x="415" y="529" on="0"/>
        <pt x="415" y="540" on="1"/>
        <pt x="415" y="582" on="1"/>
        <pt x="397" y="589" on="0"/>
        <pt x="355" y="598" on="0"/>
        <pt x="329" y="598" on="1"/>
        <pt x="270" y="598" on="0"/>
        <pt x="201" y="537" on="0"/>
        <pt x="197" y="471" on="1"/>
        <pt x="368" y="471" on="1"/>
        <pt x="379" y="471" on="0"/>
        <pt x="379" y="460" on="1"/>
        <pt x="379" y="372" on="1"/>
        <pt x="196" y="372" on="1"/>
        <pt x="196" y="305" on="1"/>
        <pt x="368" y="305" on="1"/>
        <pt x="373" y="305" on="0"/>
        <pt x="376" y="302" on="1"/>
        <pt x="379" y="299" on="0"/>
        <pt x="379" y="294" on="1"/>
        <pt x="379" y="206" on="1"/>
        <pt x="202" y="206" on="1"/>
        <pt x="214" y="154" on="0"/>
        <pt x="283" y="108" on="0"/>
        <pt x="343" y="108" on="1"/>
        <pt x="398" y="108" on="0"/>
        <pt x="487" y="133" on="0"/>
        <pt x="527" y="158" on="1"/>
        <pt x="546" y="158" on="1"/>
        <pt x="546" y="40" on="1"/>
        <pt x="546" y="35" on="0"/>
        <pt x="543" y="32" on="1"/>
        <pt x="521" y="11" on="0"/>
        <pt x="408" y="-20" on="0"/>
      </contour>
    </TTGlyph>
    <TTGlyph name="F" xMin="51" yMin="0" xMax="538" yMax="700">
      <contour>
        <pt x="241" y="0" on="1"/>
        <pt x="111" y="0" on="1"/>
        <pt x="100" y="0" on="0"/>
        <pt x="100" y="11" on="1"/>
        <pt x="100" y="574" on="1"/>
        <pt x="62" y="574" on="1"/>
        <pt x="57" y="574" on="0"/>
        <pt x="54" y="577" on="1"/>
        <pt x="51" y="580" on="0"/>
        <pt x="51" y="585" on="1"/>
        <pt x="51" y="700" on="1"/>
        <pt x="527" y="700" on="1"/>
        <pt x="532" y="700" on="0"/>
        <pt x="535" y="697" on="1"/>
        <pt x="538" y="694" on="0"/>
        <pt x="538" y="689" on="1"/>
        <pt x="538" y="574" on="1"/>
        <pt x="241" y="574" on="1"/>
        <pt x="241" y="385" on="1"/>
        <pt x="486" y="385" on="1"/>
        <pt x="491" y="385" on="0"/>
        <pt x="494" y="382" on="1"/>
        <pt x="497" y="379" on="0"/>
        <pt x="497" y="374" on="1"/>
        <pt x="497" y="261" on="1"/>
        <pt x="241" y="261" on="1"/>
      </contour>
    </TTGlyph>
    <TTGlyph name="G" xMin="54" yMin="-20" xMax="562" yMax="720">
      <contour>
        <pt x="308" y="104" on="1"/>
        <pt x="353" y="104" on="0"/>
        <pt x="400" y="125" on="0"/>
        <pt x="400" y="130" on="1"/>
        <pt x="400" y="266" on="1"/>
        <pt x="312" y="266" on="1"/>
        <pt x="307" y="266" on="0"/>
        <pt x="304" y="269" on="1"/>
        <pt x="301" y="272" on="0"/>
        <pt x="301" y="277" on="1"/>
        <pt x="301" y="381" on="1"/>
        <pt x="551" y="381" on="1"/>
        <pt x="562" y="381" on="0"/>
        <pt x="562" y="370" on="1"/>
        <pt x="562" y="266" on="1"/>
        <pt x="525" y="266" on="1"/>
        <pt x="525" y="69" on="1"/>
        <pt x="525" y="63" on="0"/>
        <pt x="498" y="35" on="0"/>
        <pt x="443" y="3" on="0"/>
        <pt x="359" y="-20" on="0"/>
        <pt x="302" y="-20" on="1"/>
        <pt x="181" y="-20" on="0"/>
        <pt x="54" y="118" on="0"/>
        <pt x="54" y="239" on="1"/>
        <pt x="54" y="459" on="1"/>
        <pt x="54" y="587" on="0"/>
        <pt x="195" y="720" on="0"/>
        <pt x="320" y="720" on="1"/>
        <pt x="393" y="720" on="0"/>
        <pt x="491" y="682" on="0"/>
        <pt x="516" y="658" on="1"/>
        <pt x="522" y="652" on="0"/>
        <pt x="522" y="641" on="1"/>
        <pt x="522" y="640" on="0"/>
        <pt x="522" y="639" on="1"/>
        <pt x="522" y="496" on="1"/>
        <pt x="408" y="496" on="1"/>
        <pt x="397" y="496" on="0"/>
        <pt x="397" y="507" on="1"/>
        <pt x="397" y="583" on="1"/>
        <pt x="364" y="597" on="0"/>
        <pt x="314" y="597" on="1"/>
        <pt x="248" y="597" on="0"/>
        <pt x="187" y="529" on="0"/>
        <pt x="187" y="461" on="1"/>
        <pt x="187" y="239" on="1"/>
        <pt x="187" y="169" on="0"/>
        <pt x="249" y="104" on="0"/>
      </contour>
    </TTGlyph>
    <TTGlyph name="Gbreve" xMin="54" yMin="-20" xMax="562" yMax="947">
      <contour>
        <pt x="214" y="947" on="1"/>
        <pt x="228" y="914" on="0"/>
        <pt x="272" y="888" on="0"/>
        <pt x="308" y="888" on="1"/>
        <pt x="344" y="888" on="0"/>
        <pt x="388" y="914" on="0"/>
        <pt x="402" y="947" on="1"/>
        <pt x="484" y="947" on="1"/>
        <pt x="494" y="947" on="0"/>
        <pt x="500" y="939" on="0"/>
        <pt x="498" y="927" on="1"/>
        <pt x="492" y="890" on="0"/>
        <pt x="447" y="824" on="0"/>
        <pt x="376" y="783" on="0"/>
        <pt x="331" y="783" on="1"/>
        <pt x="284" y="783" on="1"/>
        <pt x="240" y="783" on="0"/>
        <pt x="169" y="824" on="0"/>
        <pt x="124" y="890" on="0"/>
        <pt x="118" y="927" on="1"/>
        <pt x="116" y="939" on="0"/>
        <pt x="121" y="947" on="0"/>
        <pt x="131" y="947" on="1"/>
      </contour>
      <contour>
        <pt x="308" y="104" on="1"/>
        <pt x="353" y="104" on="0"/>
        <pt x="400" y="125" on="0"/>
        <pt x="400" y="130" on="1"/>
        <pt x="400" y="266" on="1"/>
        <pt x="312" y="266" on="1"/>
        <pt x="307" y="266" on="0"/>
        <pt x="304" y="269" on="1"/>
        <pt x="301" y="272" on="0"/>
        <pt x="301" y="277" on="1"/>
        <pt x="301" y="381" on="1"/>
        <pt x="551" y="381" on="1"/>
        <pt x="562" y="381" on="0"/>
        <pt x="562" y="370" on="1"/>
        <pt x="562" y="266" on="1"/>
        <pt x="525" y="266" on="1"/>
        <pt x="525" y="69" on="1"/>
        <pt x="525" y="63" on="0"/>
        <pt x="498" y="35" on="0"/>
        <pt x="443" y="3" on="0"/>
        <pt x="359" y="-20" on="0"/>
        <pt x="302" y="-20" on="1"/>
        <pt x="181" y="-20" on="0"/>
        <pt x="54" y="118" on="0"/>
        <pt x="54" y="239" on="1"/>
        <pt x="54" y="459" on="1"/>
        <pt x="54" y="587" on="0"/>
        <pt x="195" y="720" on="0"/>
        <pt x="320" y="720" on="1"/>
        <pt x="393" y="720" on="0"/>
        <pt x="491" y="682" on="0"/>
        <pt x="516" y="658" on="1"/>
        <pt x="522" y="652" on="0"/>
        <pt x="522" y="641" on="1"/>
        <pt x="522" y="640" on="0"/>
        <pt x="522" y="639" on="1"/>
        <pt x="522" y="496" on="1"/>
        <pt x="408" y="496" on="1"/>
        <pt x="397" y="496" on="0"/>
        <pt x="397" y="507" on="1"/>
        <pt x="397" y="583" on="1"/>
        <pt x="364" y="597" on="0"/>
        <pt x="314" y="597" on="1"/>
        <pt x="248" y="597" on="0"/>
        <pt x="187" y="529" on="0"/>
        <pt x="187" y="461" on="1"/>
        <pt x="187" y="239" on="1"/>
        <pt x="187" y="169" on="0"/>
        <pt x="249" y="104" on="0"/>
      </contour>
    </TTGlyph>
    <TTGlyph name="Gcaron" xMin="54" yMin="-20" xMax="562" yMax="946">
      <contour>
        <pt x="65" y="946" on="1"/>
        <pt x="183" y="946" on="1"/>
        <pt x="194" y="946" on="0"/>
        <pt x="205" y="942" on="0"/>
        <pt x="212" y="936" on="1"/>
        <pt x="224" y="927" on="0"/>
        <pt x="275" y="884" on="0"/>
        <pt x="308" y="857" on="1"/>
        <pt x="338" y="882" on="0"/>
        <pt x="391" y="926" on="0"/>
        <pt x="415" y="946" on="1"/>
        <pt x="528" y="946" on="1"/>
        <pt x="539" y="946" on="0"/>
        <pt x="539" y="939" on="1"/>
        <pt x="539" y="935" on="0"/>
        <pt x="533" y="927" on="0"/>
        <pt x="520" y="914" on="1"/>
        <pt x="509" y="903" on="0"/>
        <pt x="471" y="865" on="0"/>
        <pt x="428" y="822" on="0"/>
        <pt x="391" y="785" on="0"/>
        <pt x="381" y="775" on="1"/>
        <pt x="247" y="775" on="1"/>
        <pt x="240" y="775" on="0"/>
        <pt x="229" y="782" on="0"/>
        <pt x="216" y="795" on="1"/>
      </contour>
      <contour>
        <pt x="308" y="104" on="1"/>
        <pt x="353" y="104" on="0"/>
        <pt x="400" y="125" on="0"/>
        <pt x="400" y="130" on="1"/>
        <pt x="400" y="266" on="1"/>
        <pt x="312" y="266" on="1"/>
        <pt x="307" y="266" on="0"/>
        <pt x="304" y="269" on="1"/>
        <pt x="301" y="272" on="0"/>
        <pt x="301" y="277" on="1"/>
        <pt x="301" y="381" on="1"/>
        <pt x="551" y="381" on="1"/>
        <pt x="562" y="381" on="0"/>
        <pt x="562" y="370" on="1"/>
        <pt x="562" y="266" on="1"/>
        <pt x="525" y="266" on="1"/>
        <pt x="525" y="69" on="1"/>
        <pt x="525" y="63" on="0"/>
        <pt x="498" y="35" on="0"/>
        <pt x="443" y="3" on="0"/>
        <pt x="359" y="-20" on="0"/>
        <pt x="302" y="-20" on="1"/>
        <pt x="181" y="-20" on="0"/>
        <pt x="54" y="118" on="0"/>
        <pt x="54" y="239" on="1"/>
        <pt x="54" y="459" on="1"/>
        <pt x="54" y="587" on="0"/>
        <pt x="195" y="720" on="0"/>
        <pt x="320" y="720" on="1"/>
        <pt x="393" y="720" on="0"/>
        <pt x="491" y="682" on="0"/>
        <pt x="516" y="658" on="1"/>
        <pt x="522" y="652" on="0"/>
        <pt x="522" y="641" on="1"/>
        <pt x="522" y="640" on="0"/>
        <pt x="522" y="639" on="1"/>
        <pt x="522" y="496" on="1"/>
        <pt x="408" y="496" on="1"/>
        <pt x="397" y="496" on="0"/>
        <pt x="397" y="507" on="1"/>
        <pt x="397" y="583" on="1"/>
        <pt x="364" y="597" on="0"/>
        <pt x="314" y="597" on="1"/>
        <pt x="248" y="597" on="0"/>
        <pt x="187" y="529" on="0"/>
        <pt x="187" y="461" on="1"/>
        <pt x="187" y="239" on="1"/>
        <pt x="187" y="169" on="0"/>
        <pt x="249" y="104" on="0"/>
      </contour>
    </TTGlyph>
    <TTGlyph name="Gcircumflex" xMin="54" yMin="-20" xMax="562" yMax="946">
      <contour>
        <pt x="201" y="775" on="1"/>
        <pt x="89" y="775" on="1"/>
        <pt x="78" y="775" on="0"/>
        <pt x="78" y="783" on="1"/>
        <pt x="78" y="787" on="0"/>
        <pt x="84" y="795" on="0"/>
        <pt x="97" y="808" on="1"/>
        <pt x="108" y="819" on="0"/>
        <pt x="146" y="857" on="0"/>
        <pt x="189" y="899" on="0"/>
        <pt x="226" y="936" on="0"/>
        <pt x="236" y="946" on="1"/>
        <pt x="369" y="946" on="1"/>
        <pt x="377" y="946" on="0"/>
        <pt x="387" y="939" on="0"/>
        <pt x="400" y="927" on="1"/>
        <pt x="408" y="920" on="0"/>
        <pt x="443" y="885" on="0"/>
        <pt x="487" y="840" on="0"/>
        <pt x="533" y="794" on="0"/>
        <pt x="551" y="775" on="1"/>
        <pt x="434" y="775" on="1"/>
        <pt x="423" y="775" on="0"/>
        <pt x="412" y="779" on="0"/>
        <pt x="404" y="785" on="1"/>
        <pt x="392" y="795" on="0"/>
        <pt x="341" y="837" on="0"/>
        <pt x="309" y="864" on="1"/>
        <pt x="278" y="839" on="0"/>
        <pt x="226" y="796" on="0"/>
      </contour>
      <contour>
        <pt x="308" y="104" on="1"/>
        <pt x="353" y="104" on="0"/>
        <pt x="400" y="125" on="0"/>
        <pt x="400" y="130" on="1"/>
        <pt x="400" y="266" on="1"/>
        <pt x="312" y="266" on="1"/>
        <pt x="307" y="266" on="0"/>
        <pt x="304" y="269" on="1"/>
        <pt x="301" y="272" on="0"/>
        <pt x="301" y="277" on="1"/>
        <pt x="301" y="381" on="1"/>
        <pt x="551" y="381" on="1"/>
        <pt x="562" y="381" on="0"/>
        <pt x="562" y="370" on="1"/>
        <pt x="562" y="266" on="1"/>
        <pt x="525" y="266" on="1"/>
        <pt x="525" y="69" on="1"/>
        <pt x="525" y="63" on="0"/>
        <pt x="498" y="35" on="0"/>
        <pt x="443" y="3" on="0"/>
        <pt x="359" y="-20" on="0"/>
        <pt x="302" y="-20" on="1"/>
        <pt x="181" y="-20" on="0"/>
        <pt x="54" y="118" on="0"/>
        <pt x="54" y="239" on="1"/>
        <pt x="54" y="459" on="1"/>
        <pt x="54" y="587" on="0"/>
        <pt x="195" y="720" on="0"/>
        <pt x="320" y="720" on="1"/>
        <pt x="393" y="720" on="0"/>
        <pt x="491" y="682" on="0"/>
        <pt x="516" y="658" on="1"/>
        <pt x="522" y="652" on="0"/>
        <pt x="522" y="641" on="1"/>
        <pt x="522" y="640" on="0"/>
        <pt x="522" y="639" on="1"/>
        <pt x="522" y="496" on="1"/>
        <pt x="408" y="496" on="1"/>
        <pt x="397" y="496" on="0"/>
        <pt x="397" y="507" on="1"/>
        <pt x="397" y="583" on="1"/>
        <pt x="364" y="597" on="0"/>
        <pt x="314" y="597" on="1"/>
        <pt x="248" y="597" on="0"/>
        <pt x="187" y="529" on="0"/>
        <pt x="187" y="461" on="1"/>
        <pt x="187" y="239" on="1"/>
        <pt x="187" y="169" on="0"/>
        <pt x="249" y="104" on="0"/>
      </contour>
    </TTGlyph>
    <TTGlyph name="Gcommaaccent" xMin="54" yMin="-249" xMax="562" yMax="720">
      <contour>
        <pt x="308" y="104" on="1"/>
        <pt x="353" y="104" on="0"/>
        <pt x="400" y="125" on="0"/>
        <pt x="400" y="130" on="1"/>
        <pt x="400" y="266" on="1"/>
        <pt x="312" y="266" on="1"/>
        <pt x="307" y="266" on="0"/>
        <pt x="304" y="269" on="1"/>
        <pt x="301" y="272" on="0"/>
        <pt x="301" y="277" on="1"/>
        <pt x="301" y="381" on="1"/>
        <pt x="551" y="381" on="1"/>
        <pt x="562" y="381" on="0"/>
        <pt x="562" y="370" on="1"/>
        <pt x="562" y="266" on="1"/>
        <pt x="525" y="266" on="1"/>
        <pt x="525" y="69" on="1"/>
        <pt x="525" y="63" on="0"/>
        <pt x="498" y="35" on="0"/>
        <pt x="443" y="3" on="0"/>
        <pt x="359" y="-20" on="0"/>
        <pt x="302" y="-20" on="1"/>
        <pt x="181" y="-20" on="0"/>
        <pt x="54" y="118" on="0"/>
        <pt x="54" y="239" on="1"/>
        <pt x="54" y="459" on="1"/>
        <pt x="54" y="587" on="0"/>
        <pt x="195" y="720" on="0"/>
        <pt x="320" y="720" on="1"/>
        <pt x="393" y="720" on="0"/>
        <pt x="491" y="682" on="0"/>
        <pt x="516" y="658" on="1"/>
        <pt x="522" y="652" on="0"/>
        <pt x="522" y="641" on="1"/>
        <pt x="522" y="640" on="0"/>
        <pt x="522" y="639" on="1"/>
        <pt x="522" y="496" on="1"/>
        <pt x="408" y="496" on="1"/>
        <pt x="397" y="496" on="0"/>
        <pt x="397" y="507" on="1"/>
        <pt x="397" y="583" on="1"/>
        <pt x="364" y="597" on="0"/>
        <pt x="314" y="597" on="1"/>
        <pt x="248" y="597" on="0"/>
        <pt x="187" y="529" on="0"/>
        <pt x="187" y="461" on="1"/>
        <pt x="187" y="239" on="1"/>
        <pt x="187" y="169" on="0"/>
        <pt x="249" y="104" on="0"/>
      </contour>
      <contour>
        <pt x="321" y="-249" on="1"/>
        <pt x="216" y="-249" on="1"/>
        <pt x="226" y="-199" on="0"/>
        <pt x="245" y="-107" on="0"/>
        <pt x="255" y="-62" on="1"/>
        <pt x="387" y="-62" on="1"/>
        <pt x="393" y="-62" on="0"/>
        <pt x="400" y="-69" on="0"/>
        <pt x="398" y="-75" on="1"/>
        <pt x="382" y="-118" on="0"/>
        <pt x="353" y="-193" on="0"/>
        <pt x="336" y="-239" on="1"/>
        <pt x="335" y="-243" on="0"/>
        <pt x="328" y="-249" on="0"/>
      </contour>
    </TTGlyph>
    <TTGlyph name="Gdotaccent" xMin="54" yMin="-20" xMax="562" yMax="929">
      <contour>
        <pt x="389" y="791" on="1"/>
        <pt x="238" y="791" on="1"/>
        <pt x="227" y="791" on="0"/>
        <pt x="227" y="802" on="1"/>
        <pt x="227" y="929" on="1"/>
        <pt x="378" y="929" on="1"/>
        <pt x="389" y="929" on="0"/>
        <pt x="389" y="918" on="1"/>
      </contour>
      <contour>
        <pt x="308" y="104" on="1"/>
        <pt x="353" y="104" on="0"/>
        <pt x="400" y="125" on="0"/>
        <pt x="400" y="130" on="1"/>
        <pt x="400" y="266" on="1"/>
        <pt x="312" y="266" on="1"/>
        <pt x="307" y="266" on="0"/>
        <pt x="304" y="269" on="1"/>
        <pt x="301" y="272" on="0"/>
        <pt x="301" y="277" on="1"/>
        <pt x="301" y="381" on="1"/>
        <pt x="551" y="381" on="1"/>
        <pt x="562" y="381" on="0"/>
        <pt x="562" y="370" on="1"/>
        <pt x="562" y="266" on="1"/>
        <pt x="525" y="266" on="1"/>
        <pt x="525" y="69" on="1"/>
        <pt x="525" y="63" on="0"/>
        <pt x="498" y="35" on="0"/>
        <pt x="443" y="3" on="0"/>
        <pt x="359" y="-20" on="0"/>
        <pt x="302" y="-20" on="1"/>
        <pt x="181" y="-20" on="0"/>
        <pt x="54" y="118" on="0"/>
        <pt x="54" y="239" on="1"/>
        <pt x="54" y="459" on="1"/>
        <pt x="54" y="587" on="0"/>
        <pt x="195" y="720" on="0"/>
        <pt x="320" y="720" on="1"/>
        <pt x="393" y="720" on="0"/>
        <pt x="491" y="682" on="0"/>
        <pt x="516" y="658" on="1"/>
        <pt x="522" y="652" on="0"/>
        <pt x="522" y="641" on="1"/>
        <pt x="522" y="640" on="0"/>
        <pt x="522" y="639" on="1"/>
        <pt x="522" y="496" on="1"/>
        <pt x="408" y="496" on="1"/>
        <pt x="397" y="496" on="0"/>
        <pt x="397" y="507" on="1"/>
        <pt x="397" y="583" on="1"/>
        <pt x="364" y="597" on="0"/>
        <pt x="314" y="597" on="1"/>
        <pt x="248" y="597" on="0"/>
        <pt x="187" y="529" on="0"/>
        <pt x="187" y="461" on="1"/>
        <pt x="187" y="239" on="1"/>
        <pt x="187" y="169" on="0"/>
        <pt x="249" y="104" on="0"/>
      </contour>
    </TTGlyph>
    <TTGlyph name="H" xMin="72" yMin="0" xMax="528" yMax="700">
      <contour>
        <pt x="528" y="0" on="1"/>
        <pt x="398" y="0" on="1"/>
        <pt x="393" y="0" on="0"/>
        <pt x="390" y="3" on="1"/>
        <pt x="387" y="6" on="0"/>
        <pt x="387" y="11" on="1"/>
        <pt x="387" y="287" on="1"/>
        <pt x="213" y="287" on="1"/>
        <pt x="213" y="0" on="1"/>
        <pt x="83" y="0" on="1"/>
        <pt x="72" y="0" on="0"/>
        <pt x="72" y="11" on="1"/>
        <pt x="72" y="700" on="1"/>
        <pt x="202" y="700" on="1"/>
        <pt x="207" y="700" on="0"/>
        <pt x="210" y="697" on="1"/>
        <pt x="213" y="694" on="0"/>
        <pt x="213" y="689" on="1"/>
        <pt x="213" y="413" on="1"/>
        <pt x="387" y="413" on="1"/>
        <pt x="387" y="700" on="1"/>
        <pt x="517" y="700" on="1"/>
        <pt x="528" y="700" on="0"/>
        <pt x="528" y="689" on="1"/>
      </contour>
    </TTGlyph>
    <TTGlyph name="Hbar" xMin="20" yMin="0" xMax="580" yMax="700">
      <contour>
        <pt x="528" y="0" on="1"/>
        <pt x="398" y="0" on="1"/>
        <pt x="393" y="0" on="0"/>
        <pt x="390" y="3" on="1"/>
        <pt x="387" y="6" on="0"/>
        <pt x="387" y="11" on="1"/>
        <pt x="387" y="287" on="1"/>
        <pt x="213" y="287" on="1"/>
        <pt x="213" y="0" on="1"/>
        <pt x="83" y="0" on="1"/>
        <pt x="72" y="0" on="0"/>
        <pt x="72" y="11" on="1"/>
        <pt x="72" y="512" on="1"/>
        <pt x="31" y="512" on="1"/>
        <pt x="20" y="512" on="0"/>
        <pt x="20" y="523" on="1"/>
        <pt x="20" y="611" on="1"/>
        <pt x="72" y="611" on="1"/>
        <pt x="72" y="700" on="1"/>
        <pt x="202" y="700" on="1"/>
        <pt x="207" y="700" on="0"/>
        <pt x="210" y="697" on="1"/>
        <pt x="213" y="694" on="0"/>
        <pt x="213" y="689" on="1"/>
        <pt x="213" y="611" on="1"/>
        <pt x="387" y="611" on="1"/>
        <pt x="387" y="700" on="1"/>
        <pt x="517" y="700" on="1"/>
        <pt x="528" y="700" on="0"/>
        <pt x="528" y="689" on="1"/>
        <pt x="528" y="611" on="1"/>
        <pt x="569" y="611" on="1"/>
        <pt x="580" y="611" on="0"/>
        <pt x="580" y="600" on="1"/>
        <pt x="580" y="512" on="1"/>
        <pt x="528" y="512" on="1"/>
      </contour>
      <contour>
        <pt x="387" y="512" on="1"/>
        <pt x="213" y="512" on="1"/>
        <pt x="213" y="413" on="1"/>
        <pt x="387" y="413" on="1"/>
      </contour>
    </TTGlyph>
    <TTGlyph name="Hcircumflex" xMin="70" yMin="0" xMax="543" yMax="946">
      <contour>
        <pt x="193" y="775" on="1"/>
        <pt x="81" y="775" on="1"/>
        <pt x="70" y="775" on="0"/>
        <pt x="70" y="783" on="1"/>
        <pt x="70" y="787" on="0"/>
        <pt x="76" y="795" on="0"/>
        <pt x="89" y="808" on="1"/>
        <pt x="100" y="819" on="0"/>
        <pt x="138" y="857" on="0"/>
        <pt x="181" y="899" on="0"/>
        <pt x="218" y="936" on="0"/>
        <pt x="228" y="946" on="1"/>
        <pt x="361" y="946" on="1"/>
        <pt x="369" y="946" on="0"/>
        <pt x="379" y="939" on="0"/>
        <pt x="392" y="927" on="1"/>
        <pt x="400" y="920" on="0"/>
        <pt x="435" y="885" on="0"/>
        <pt x="479" y="840" on="0"/>
        <pt x="525" y="794" on="0"/>
        <pt x="543" y="775" on="1"/>
        <pt x="426" y="775" on="1"/>
        <pt x="415" y="775" on="0"/>
        <pt x="404" y="779" on="0"/>
        <pt x="396" y="785" on="1"/>
        <pt x="384" y="795" on="0"/>
        <pt x="333" y="837" on="0"/>
        <pt x="301" y="864" on="1"/>
        <pt x="271" y="839" on="0"/>
        <pt x="218" y="796" on="0"/>
      </contour>
      <contour>
        <pt x="528" y="0" on="1"/>
        <pt x="398" y="0" on="1"/>
        <pt x="393" y="0" on="0"/>
        <pt x="390" y="3" on="1"/>
        <pt x="387" y="6" on="0"/>
        <pt x="387" y="11" on="1"/>
        <pt x="387" y="287" on="1"/>
        <pt x="213" y="287" on="1"/>
        <pt x="213" y="0" on="1"/>
        <pt x="83" y="0" on="1"/>
        <pt x="72" y="0" on="0"/>
        <pt x="72" y="11" on="1"/>
        <pt x="72" y="700" on="1"/>
        <pt x="202" y="700" on="1"/>
        <pt x="207" y="700" on="0"/>
        <pt x="210" y="697" on="1"/>
        <pt x="213" y="694" on="0"/>
        <pt x="213" y="689" on="1"/>
        <pt x="213" y="413" on="1"/>
        <pt x="387" y="413" on="1"/>
        <pt x="387" y="700" on="1"/>
        <pt x="517" y="700" on="1"/>
        <pt x="528" y="700" on="0"/>
        <pt x="528" y="689" on="1"/>
      </contour>
    </TTGlyph>
    <TTGlyph name="I" xMin="73" yMin="0" xMax="527" yMax="700">
      <contour>
        <pt x="73" y="126" on="1"/>
        <pt x="229" y="126" on="1"/>
        <pt x="229" y="574" on="1"/>
        <pt x="84" y="574" on="1"/>
        <pt x="79" y="574" on="0"/>
        <pt x="76" y="577" on="1"/>
        <pt x="73" y="580" on="0"/>
        <pt x="73" y="585" on="1"/>
        <pt x="73" y="700" on="1"/>
        <pt x="516" y="700" on="1"/>
        <pt x="527" y="700" on="0"/>
        <pt x="527" y="689" on="1"/>
        <pt x="527" y="574" on="1"/>
        <pt x="371" y="574" on="1"/>
        <pt x="371" y="126" on="1"/>
        <pt x="516" y="126" on="1"/>
        <pt x="527" y="126" on="0"/>
        <pt x="527" y="115" on="1"/>
        <pt x="527" y="0" on="1"/>
        <pt x="84" y="0" on="1"/>
        <pt x="79" y="0" on="0"/>
        <pt x="76" y="3" on="1"/>
        <pt x="73" y="6" on="0"/>
        <pt x="73" y="11" on="1"/>
      </contour>
    </TTGlyph>
    <TTGlyph name="IJ" xMin="67" yMin="-164" xMax="538" yMax="700">
      <contour>
        <pt x="67" y="700" on="1"/>
        <pt x="197" y="700" on="1"/>
        <pt x="202" y="700" on="0"/>
        <pt x="205" y="697" on="1"/>
        <pt x="208" y="694" on="0"/>
        <pt x="208" y="689" on="1"/>
        <pt x="208" y="0" on="1"/>
        <pt x="78" y="0" on="1"/>
        <pt x="67" y="0" on="0"/>
        <pt x="67" y="11" on="1"/>
      </contour>
      <contour>
        <pt x="346" y="-32" on="1"/>
        <pt x="373" y="-32" on="0"/>
        <pt x="397" y="-5" on="0"/>
        <pt x="397" y="28" on="1"/>
        <pt x="397" y="574" on="1"/>
        <pt x="305" y="574" on="1"/>
        <pt x="294" y="574" on="0"/>
        <pt x="294" y="585" on="1"/>
        <pt x="294" y="700" on="1"/>
        <pt x="527" y="700" on="1"/>
        <pt x="538" y="700" on="0"/>
        <pt x="538" y="689" on="1"/>
        <pt x="538" y="36" on="1"/>
        <pt x="538" y="34" on="0"/>
        <pt x="538" y="34" on="1"/>
        <pt x="538" y="34" on="0"/>
        <pt x="538" y="33" on="1"/>
        <pt x="537" y="-54" on="0"/>
        <pt x="456" y="-164" on="0"/>
        <pt x="369" y="-164" on="1"/>
        <pt x="361" y="-164" on="1"/>
        <pt x="336" y="-164" on="0"/>
        <pt x="287" y="-153" on="0"/>
        <pt x="279" y="-145" on="1"/>
        <pt x="276" y="-142" on="0"/>
        <pt x="276" y="-137" on="1"/>
        <pt x="276" y="-19" on="1"/>
        <pt x="295" y="-19" on="1"/>
        <pt x="318" y="-32" on="0"/>
      </contour>
    </TTGlyph>
    <TTGlyph name="IJacute" xMin="67" yMin="-164" xMax="661" yMax="955">
      <contour>
        <pt x="178" y="776" on="1"/>
        <pt x="71" y="776" on="1"/>
        <pt x="98" y="822" on="0"/>
        <pt x="151" y="909" on="0"/>
        <pt x="178" y="955" on="1"/>
        <pt x="330" y="955" on="1"/>
        <pt x="336" y="955" on="0"/>
        <pt x="341" y="946" on="0"/>
        <pt x="336" y="941" on="1"/>
        <pt x="311" y="913" on="0"/>
        <pt x="273" y="870" on="0"/>
        <pt x="229" y="820" on="0"/>
        <pt x="194" y="782" on="1"/>
        <pt x="188" y="776" on="0"/>
      </contour>
      <contour>
        <pt x="498" y="776" on="1"/>
        <pt x="391" y="776" on="1"/>
        <pt x="418" y="822" on="0"/>
        <pt x="471" y="909" on="0"/>
        <pt x="498" y="955" on="1"/>
        <pt x="650" y="955" on="1"/>
        <pt x="656" y="955" on="0"/>
        <pt x="661" y="946" on="0"/>
        <pt x="656" y="941" on="1"/>
        <pt x="631" y="913" on="0"/>
        <pt x="593" y="870" on="0"/>
        <pt x="549" y="820" on="0"/>
        <pt x="514" y="782" on="1"/>
        <pt x="508" y="776" on="0"/>
      </contour>
      <contour>
        <pt x="67" y="700" on="1"/>
        <pt x="197" y="700" on="1"/>
        <pt x="202" y="700" on="0"/>
        <pt x="205" y="697" on="1"/>
        <pt x="208" y="694" on="0"/>
        <pt x="208" y="689" on="1"/>
        <pt x="208" y="0" on="1"/>
        <pt x="78" y="0" on="1"/>
        <pt x="67" y="0" on="0"/>
        <pt x="67" y="11" on="1"/>
      </contour>
      <contour>
        <pt x="346" y="-32" on="1"/>
        <pt x="373" y="-32" on="0"/>
        <pt x="397" y="-5" on="0"/>
        <pt x="397" y="28" on="1"/>
        <pt x="397" y="574" on="1"/>
        <pt x="305" y="574" on="1"/>
        <pt x="294" y="574" on="0"/>
        <pt x="294" y="585" on="1"/>
        <pt x="294" y="700" on="1"/>
        <pt x="527" y="700" on="1"/>
        <pt x="538" y="700" on="0"/>
        <pt x="538" y="689" on="1"/>
        <pt x="538" y="36" on="1"/>
        <pt x="538" y="34" on="0"/>
        <pt x="538" y="34" on="1"/>
        <pt x="538" y="34" on="0"/>
        <pt x="538" y="33" on="1"/>
        <pt x="537" y="-54" on="0"/>
        <pt x="456" y="-164" on="0"/>
        <pt x="369" y="-164" on="1"/>
        <pt x="361" y="-164" on="1"/>
        <pt x="336" y="-164" on="0"/>
        <pt x="287" y="-153" on="0"/>
        <pt x="279" y="-145" on="1"/>
        <pt x="276" y="-142" on="0"/>
        <pt x="276" y="-137" on="1"/>
        <pt x="276" y="-19" on="1"/>
        <pt x="295" y="-19" on="1"/>
        <pt x="318" y="-32" on="0"/>
      </contour>
    </TTGlyph>
    <TTGlyph name="Iacute" xMin="73" yMin="0" xMax="527" yMax="955">
      <contour>
        <pt x="348" y="775" on="1"/>
        <pt x="241" y="775" on="1"/>
        <pt x="268" y="821" on="0"/>
        <pt x="321" y="909" on="0"/>
        <pt x="348" y="955" on="1"/>
        <pt x="500" y="955" on="1"/>
        <pt x="506" y="955" on="0"/>
        <pt x="511" y="945" on="0"/>
        <pt x="506" y="940" on="1"/>
        <pt x="481" y="912" on="0"/>
        <pt x="443" y="869" on="0"/>
        <pt x="399" y="819" on="0"/>
        <pt x="364" y="781" on="1"/>
        <pt x="358" y="775" on="0"/>
      </contour>
      <contour>
        <pt x="73" y="126" on="1"/>
        <pt x="229" y="126" on="1"/>
        <pt x="229" y="574" on="1"/>
        <pt x="84" y="574" on="1"/>
        <pt x="79" y="574" on="0"/>
        <pt x="76" y="577" on="1"/>
        <pt x="73" y="580" on="0"/>
        <pt x="73" y="585" on="1"/>
        <pt x="73" y="700" on="1"/>
        <pt x="516" y="700" on="1"/>
        <pt x="527" y="700" on="0"/>
        <pt x="527" y="689" on="1"/>
        <pt x="527" y="574" on="1"/>
        <pt x="371" y="574" on="1"/>
        <pt x="371" y="126" on="1"/>
        <pt x="516" y="126" on="1"/>
        <pt x="527" y="126" on="0"/>
        <pt x="527" y="115" on="1"/>
        <pt x="527" y="0" on="1"/>
        <pt x="84" y="0" on="1"/>
        <pt x="79" y="0" on="0"/>
        <pt x="76" y="3" on="1"/>
        <pt x="73" y="6" on="0"/>
        <pt x="73" y="11" on="1"/>
      </contour>
    </TTGlyph>
    <TTGlyph name="Ibreve" xMin="73" yMin="0" xMax="527" yMax="947">
      <contour>
        <pt x="206" y="947" on="1"/>
        <pt x="220" y="914" on="0"/>
        <pt x="264" y="888" on="0"/>
        <pt x="300" y="888" on="1"/>
        <pt x="336" y="888" on="0"/>
        <pt x="380" y="914" on="0"/>
        <pt x="394" y="947" on="1"/>
        <pt x="477" y="947" on="1"/>
        <pt x="487" y="947" on="0"/>
        <pt x="492" y="939" on="0"/>
        <pt x="490" y="927" on="1"/>
        <pt x="484" y="890" on="0"/>
        <pt x="439" y="824" on="0"/>
        <pt x="368" y="783" on="0"/>
        <pt x="324" y="783" on="1"/>
        <pt x="276" y="783" on="1"/>
        <pt x="232" y="783" on="0"/>
        <pt x="161" y="824" on="0"/>
        <pt x="116" y="890" on="0"/>
        <pt x="110" y="927" on="1"/>
        <pt x="108" y="939" on="0"/>
        <pt x="113" y="947" on="0"/>
        <pt x="123" y="947" on="1"/>
      </contour>
      <contour>
        <pt x="73" y="126" on="1"/>
        <pt x="229" y="126" on="1"/>
        <pt x="229" y="574" on="1"/>
        <pt x="84" y="574" on="1"/>
        <pt x="79" y="574" on="0"/>
        <pt x="76" y="577" on="1"/>
        <pt x="73" y="580" on="0"/>
        <pt x="73" y="585" on="1"/>
        <pt x="73" y="700" on="1"/>
        <pt x="516" y="700" on="1"/>
        <pt x="527" y="700" on="0"/>
        <pt x="527" y="689" on="1"/>
        <pt x="527" y="574" on="1"/>
        <pt x="371" y="574" on="1"/>
        <pt x="371" y="126" on="1"/>
        <pt x="516" y="126" on="1"/>
        <pt x="527" y="126" on="0"/>
        <pt x="527" y="115" on="1"/>
        <pt x="527" y="0" on="1"/>
        <pt x="84" y="0" on="1"/>
        <pt x="79" y="0" on="0"/>
        <pt x="76" y="3" on="1"/>
        <pt x="73" y="6" on="0"/>
        <pt x="73" y="11" on="1"/>
      </contour>
    </TTGlyph>
    <TTGlyph name="Icircumflex" xMin="70" yMin="0" xMax="543" yMax="946">
      <contour>
        <pt x="193" y="775" on="1"/>
        <pt x="81" y="775" on="1"/>
        <pt x="70" y="775" on="0"/>
        <pt x="70" y="783" on="1"/>
        <pt x="70" y="787" on="0"/>
        <pt x="76" y="795" on="0"/>
        <pt x="89" y="808" on="1"/>
        <pt x="100" y="819" on="0"/>
        <pt x="138" y="857" on="0"/>
        <pt x="181" y="899" on="0"/>
        <pt x="218" y="936" on="0"/>
        <pt x="228" y="946" on="1"/>
        <pt x="361" y="946" on="1"/>
        <pt x="369" y="946" on="0"/>
        <pt x="379" y="939" on="0"/>
        <pt x="392" y="927" on="1"/>
        <pt x="400" y="920" on="0"/>
        <pt x="435" y="885" on="0"/>
        <pt x="479" y="840" on="0"/>
        <pt x="525" y="794" on="0"/>
        <pt x="543" y="775" on="1"/>
        <pt x="426" y="775" on="1"/>
        <pt x="415" y="775" on="0"/>
        <pt x="404" y="779" on="0"/>
        <pt x="396" y="785" on="1"/>
        <pt x="384" y="795" on="0"/>
        <pt x="333" y="837" on="0"/>
        <pt x="301" y="864" on="1"/>
        <pt x="271" y="839" on="0"/>
        <pt x="218" y="796" on="0"/>
      </contour>
      <contour>
        <pt x="73" y="126" on="1"/>
        <pt x="229" y="126" on="1"/>
        <pt x="229" y="574" on="1"/>
        <pt x="84" y="574" on="1"/>
        <pt x="79" y="574" on="0"/>
        <pt x="76" y="577" on="1"/>
        <pt x="73" y="580" on="0"/>
        <pt x="73" y="585" on="1"/>
        <pt x="73" y="700" on="1"/>
        <pt x="516" y="700" on="1"/>
        <pt x="527" y="700" on="0"/>
        <pt x="527" y="689" on="1"/>
        <pt x="527" y="574" on="1"/>
        <pt x="371" y="574" on="1"/>
        <pt x="371" y="126" on="1"/>
        <pt x="516" y="126" on="1"/>
        <pt x="527" y="126" on="0"/>
        <pt x="527" y="115" on="1"/>
        <pt x="527" y="0" on="1"/>
        <pt x="84" y="0" on="1"/>
        <pt x="79" y="0" on="0"/>
        <pt x="76" y="3" on="1"/>
        <pt x="73" y="6" on="0"/>
        <pt x="73" y="11" on="1"/>
      </contour>
    </TTGlyph>
    <TTGlyph name="Idieresis" xMin="73" yMin="0" xMax="527" yMax="927">
      <contour>
        <pt x="263" y="791" on="1"/>
        <pt x="131" y="791" on="1"/>
        <pt x="120" y="791" on="0"/>
        <pt x="120" y="802" on="1"/>
        <pt x="120" y="927" on="1"/>
        <pt x="252" y="927" on="1"/>
        <pt x="263" y="927" on="0"/>
        <pt x="263" y="916" on="1"/>
      </contour>
      <contour>
        <pt x="480" y="791" on="1"/>
        <pt x="348" y="791" on="1"/>
        <pt x="337" y="791" on="0"/>
        <pt x="337" y="802" on="1"/>
        <pt x="337" y="927" on="1"/>
        <pt x="469" y="927" on="1"/>
        <pt x="480" y="927" on="0"/>
        <pt x="480" y="916" on="1"/>
      </contour>
      <contour>
        <pt x="73" y="126" on="1"/>
        <pt x="229" y="126" on="1"/>
        <pt x="229" y="574" on="1"/>
        <pt x="84" y="574" on="1"/>
        <pt x="79" y="574" on="0"/>
        <pt x="76" y="577" on="1"/>
        <pt x="73" y="580" on="0"/>
        <pt x="73" y="585" on="1"/>
        <pt x="73" y="700" on="1"/>
        <pt x="516" y="700" on="1"/>
        <pt x="527" y="700" on="0"/>
        <pt x="527" y="689" on="1"/>
        <pt x="527" y="574" on="1"/>
        <pt x="371" y="574" on="1"/>
        <pt x="371" y="126" on="1"/>
        <pt x="516" y="126" on="1"/>
        <pt x="527" y="126" on="0"/>
        <pt x="527" y="115" on="1"/>
        <pt x="527" y="0" on="1"/>
        <pt x="84" y="0" on="1"/>
        <pt x="79" y="0" on="0"/>
        <pt x="76" y="3" on="1"/>
        <pt x="73" y="6" on="0"/>
        <pt x="73" y="11" on="1"/>
      </contour>
    </TTGlyph>
    <TTGlyph name="Idotaccent" xMin="73" yMin="0" xMax="527" yMax="929">
      <contour>
        <pt x="381" y="791" on="1"/>
        <pt x="230" y="791" on="1"/>
        <pt x="219" y="791" on="0"/>
        <pt x="219" y="802" on="1"/>
        <pt x="219" y="929" on="1"/>
        <pt x="370" y="929" on="1"/>
        <pt x="381" y="929" on="0"/>
        <pt x="381" y="918" on="1"/>
      </contour>
      <contour>
        <pt x="73" y="126" on="1"/>
        <pt x="229" y="126" on="1"/>
        <pt x="229" y="574" on="1"/>
        <pt x="84" y="574" on="1"/>
        <pt x="79" y="574" on="0"/>
        <pt x="76" y="577" on="1"/>
        <pt x="73" y="580" on="0"/>
        <pt x="73" y="585" on="1"/>
        <pt x="73" y="700" on="1"/>
        <pt x="516" y="700" on="1"/>
        <pt x="527" y="700" on="0"/>
        <pt x="527" y="689" on="1"/>
        <pt x="527" y="574" on="1"/>
        <pt x="371" y="574" on="1"/>
        <pt x="371" y="126" on="1"/>
        <pt x="516" y="126" on="1"/>
        <pt x="527" y="126" on="0"/>
        <pt x="527" y="115" on="1"/>
        <pt x="527" y="0" on="1"/>
        <pt x="84" y="0" on="1"/>
        <pt x="79" y="0" on="0"/>
        <pt x="76" y="3" on="1"/>
        <pt x="73" y="6" on="0"/>
        <pt x="73" y="11" on="1"/>
      </contour>
    </TTGlyph>
    <TTGlyph name="Idotbelow" xMin="73" yMin="-239" xMax="527" yMax="700">
      <contour>
        <pt x="73" y="126" on="1"/>
        <pt x="229" y="126" on="1"/>
        <pt x="229" y="574" on="1"/>
        <pt x="84" y="574" on="1"/>
        <pt x="79" y="574" on="0"/>
        <pt x="76" y="577" on="1"/>
        <pt x="73" y="580" on="0"/>
        <pt x="73" y="585" on="1"/>
        <pt x="73" y="700" on="1"/>
        <pt x="516" y="700" on="1"/>
        <pt x="527" y="700" on="0"/>
        <pt x="527" y="689" on="1"/>
        <pt x="527" y="574" on="1"/>
        <pt x="371" y="574" on="1"/>
        <pt x="371" y="126" on="1"/>
        <pt x="516" y="126" on="1"/>
        <pt x="527" y="126" on="0"/>
        <pt x="527" y="115" on="1"/>
        <pt x="527" y="0" on="1"/>
        <pt x="84" y="0" on="1"/>
        <pt x="79" y="0" on="0"/>
        <pt x="76" y="3" on="1"/>
        <pt x="73" y="6" on="0"/>
        <pt x="73" y="11" on="1"/>
      </contour>
      <contour>
        <pt x="381" y="-239" on="1"/>
        <pt x="230" y="-239" on="1"/>
        <pt x="219" y="-239" on="0"/>
        <pt x="219" y="-228" on="1"/>
        <pt x="219" y="-101" on="1"/>
        <pt x="370" y="-101" on="1"/>
        <pt x="381" y="-101" on="0"/>
        <pt x="381" y="-112" on="1"/>
      </contour>
    </TTGlyph>
    <TTGlyph name="Igrave" xMin="73" yMin="0" xMax="527" yMax="955">
      <contour>
        <pt x="359" y="775" on="1"/>
        <pt x="252" y="775" on="1"/>
        <pt x="241" y="775" on="0"/>
        <pt x="236" y="782" on="1"/>
        <pt x="202" y="820" on="0"/>
        <pt x="157" y="869" on="0"/>
        <pt x="119" y="913" on="0"/>
        <pt x="94" y="941" on="1"/>
        <pt x="90" y="946" on="0"/>
        <pt x="94" y="955" on="0"/>
        <pt x="100" y="955" on="1"/>
        <pt x="252" y="955" on="1"/>
        <pt x="279" y="909" on="0"/>
        <pt x="332" y="821" on="0"/>
      </contour>
      <contour>
        <pt x="73" y="126" on="1"/>
        <pt x="229" y="126" on="1"/>
        <pt x="229" y="574" on="1"/>
        <pt x="84" y="574" on="1"/>
        <pt x="79" y="574" on="0"/>
        <pt x="76" y="577" on="1"/>
        <pt x="73" y="580" on="0"/>
        <pt x="73" y="585" on="1"/>
        <pt x="73" y="700" on="1"/>
        <pt x="516" y="700" on="1"/>
        <pt x="527" y="700" on="0"/>
        <pt x="527" y="689" on="1"/>
        <pt x="527" y="574" on="1"/>
        <pt x="371" y="574" on="1"/>
        <pt x="371" y="126" on="1"/>
        <pt x="516" y="126" on="1"/>
        <pt x="527" y="126" on="0"/>
        <pt x="527" y="115" on="1"/>
        <pt x="527" y="0" on="1"/>
        <pt x="84" y="0" on="1"/>
        <pt x="79" y="0" on="0"/>
        <pt x="76" y="3" on="1"/>
        <pt x="73" y="6" on="0"/>
        <pt x="73" y="11" on="1"/>
      </contour>
    </TTGlyph>
    <TTGlyph name="Imacron" xMin="73" yMin="0" xMax="527" yMax="912">
      <contour>
        <pt x="121" y="912" on="1"/>
        <pt x="468" y="912" on="1"/>
        <pt x="479" y="912" on="0"/>
        <pt x="479" y="901" on="1"/>
        <pt x="479" y="801" on="1"/>
        <pt x="132" y="801" on="1"/>
        <pt x="121" y="801" on="0"/>
        <pt x="121" y="812" on="1"/>
      </contour>
      <contour>
        <pt x="73" y="126" on="1"/>
        <pt x="229" y="126" on="1"/>
        <pt x="229" y="574" on="1"/>
        <pt x="84" y="574" on="1"/>
        <pt x="79" y="574" on="0"/>
        <pt x="76" y="577" on="1"/>
        <pt x="73" y="580" on="0"/>
        <pt x="73" y="585" on="1"/>
        <pt x="73" y="700" on="1"/>
        <pt x="516" y="700" on="1"/>
        <pt x="527" y="700" on="0"/>
        <pt x="527" y="689" on="1"/>
        <pt x="527" y="574" on="1"/>
        <pt x="371" y="574" on="1"/>
        <pt x="371" y="126" on="1"/>
        <pt x="516" y="126" on="1"/>
        <pt x="527" y="126" on="0"/>
        <pt x="527" y="115" on="1"/>
        <pt x="527" y="0" on="1"/>
        <pt x="84" y="0" on="1"/>
        <pt x="79" y="0" on="0"/>
        <pt x="76" y="3" on="1"/>
        <pt x="73" y="6" on="0"/>
        <pt x="73" y="11" on="1"/>
      </contour>
    </TTGlyph>
    <TTGlyph name="Iogonek" xMin="73" yMin="-250" xMax="527" yMax="700">
      <contour>
        <pt x="73" y="126" on="1"/>
        <pt x="229" y="126" on="1"/>
        <pt x="229" y="574" on="1"/>
        <pt x="84" y="574" on="1"/>
        <pt x="79" y="574" on="0"/>
        <pt x="76" y="577" on="1"/>
        <pt x="73" y="580" on="0"/>
        <pt x="73" y="585" on="1"/>
        <pt x="73" y="700" on="1"/>
        <pt x="516" y="700" on="1"/>
        <pt x="527" y="700" on="0"/>
        <pt x="527" y="689" on="1"/>
        <pt x="527" y="574" on="1"/>
        <pt x="371" y="574" on="1"/>
        <pt x="371" y="126" on="1"/>
        <pt x="516" y="126" on="1"/>
        <pt x="527" y="126" on="0"/>
        <pt x="527" y="115" on="1"/>
        <pt x="527" y="0" on="1"/>
        <pt x="526" y="0" on="1"/>
        <pt x="526" y="-4" on="0"/>
        <pt x="522" y="-9" on="0"/>
        <pt x="514" y="-11" on="1"/>
        <pt x="462" y="-21" on="0"/>
        <pt x="411" y="-60" on="0"/>
        <pt x="411" y="-86" on="1"/>
        <pt x="411" y="-123" on="0"/>
        <pt x="454" y="-123" on="1"/>
        <pt x="468" y="-123" on="0"/>
        <pt x="493" y="-115" on="0"/>
        <pt x="503" y="-108" on="1"/>
        <pt x="522" y="-108" on="1"/>
        <pt x="522" y="-216" on="1"/>
        <pt x="522" y="-230" on="0"/>
        <pt x="474" y="-250" on="0"/>
        <pt x="440" y="-250" on="1"/>
        <pt x="372" y="-250" on="0"/>
        <pt x="293" y="-184" on="0"/>
        <pt x="293" y="-125" on="1"/>
        <pt x="293" y="-84" on="0"/>
        <pt x="329" y="-21" on="0"/>
        <pt x="356" y="0" on="1"/>
        <pt x="84" y="0" on="1"/>
        <pt x="79" y="0" on="0"/>
        <pt x="76" y="3" on="1"/>
        <pt x="73" y="6" on="0"/>
        <pt x="73" y="11" on="1"/>
      </contour>
    </TTGlyph>
    <TTGlyph name="Itilde" xMin="73" yMin="0" xMax="527" yMax="954">
      <contour>
        <pt x="406" y="897" on="1"/>
        <pt x="453" y="897" on="0"/>
        <pt x="483" y="938" on="1"/>
        <pt x="502" y="938" on="1"/>
        <pt x="502" y="830" on="1"/>
        <pt x="502" y="822" on="0"/>
        <pt x="500" y="813" on="0"/>
        <pt x="495" y="808" on="1"/>
        <pt x="479" y="792" on="0"/>
        <pt x="434" y="771" on="0"/>
        <pt x="401" y="771" on="1"/>
        <pt x="358" y="771" on="0"/>
        <pt x="291" y="799" on="0"/>
        <pt x="229" y="828" on="0"/>
        <pt x="194" y="828" on="1"/>
        <pt x="147" y="828" on="0"/>
        <pt x="117" y="787" on="1"/>
        <pt x="98" y="787" on="1"/>
        <pt x="98" y="895" on="1"/>
        <pt x="98" y="903" on="0"/>
        <pt x="100" y="911" on="0"/>
        <pt x="105" y="917" on="1"/>
        <pt x="121" y="934" on="0"/>
        <pt x="166" y="954" on="0"/>
        <pt x="199" y="954" on="1"/>
        <pt x="242" y="954" on="0"/>
        <pt x="309" y="925" on="0"/>
        <pt x="371" y="897" on="0"/>
      </contour>
      <contour>
        <pt x="73" y="126" on="1"/>
        <pt x="229" y="126" on="1"/>
        <pt x="229" y="574" on="1"/>
        <pt x="84" y="574" on="1"/>
        <pt x="79" y="574" on="0"/>
        <pt x="76" y="577" on="1"/>
        <pt x="73" y="580" on="0"/>
        <pt x="73" y="585" on="1"/>
        <pt x="73" y="700" on="1"/>
        <pt x="516" y="700" on="1"/>
        <pt x="527" y="700" on="0"/>
        <pt x="527" y="689" on="1"/>
        <pt x="527" y="574" on="1"/>
        <pt x="371" y="574" on="1"/>
        <pt x="371" y="126" on="1"/>
        <pt x="516" y="126" on="1"/>
        <pt x="527" y="126" on="0"/>
        <pt x="527" y="115" on="1"/>
        <pt x="527" y="0" on="1"/>
        <pt x="84" y="0" on="1"/>
        <pt x="79" y="0" on="0"/>
        <pt x="76" y="3" on="1"/>
        <pt x="73" y="6" on="0"/>
        <pt x="73" y="11" on="1"/>
      </contour>
    </TTGlyph>
    <TTGlyph name="J" xMin="85" yMin="-20" xMax="507" yMax="700">
      <contour>
        <pt x="248" y="108" on="1"/>
        <pt x="310" y="108" on="0"/>
        <pt x="365" y="166" on="0"/>
        <pt x="365" y="233" on="1"/>
        <pt x="365" y="574" on="1"/>
        <pt x="135" y="574" on="1"/>
        <pt x="130" y="574" on="0"/>
        <pt x="127" y="577" on="1"/>
        <pt x="124" y="580" on="0"/>
        <pt x="124" y="585" on="1"/>
        <pt x="124" y="700" on="1"/>
        <pt x="496" y="700" on="1"/>
        <pt x="507" y="700" on="0"/>
        <pt x="507" y="689" on="1"/>
        <pt x="507" y="241" on="1"/>
        <pt x="507" y="240" on="0"/>
        <pt x="507" y="239" on="1"/>
        <pt x="507" y="238" on="0"/>
        <pt x="507" y="237" on="1"/>
        <pt x="506" y="163" on="0"/>
        <pt x="452" y="46" on="0"/>
        <pt x="342" y="-20" on="0"/>
        <pt x="258" y="-20" on="1"/>
        <pt x="233" y="-20" on="1"/>
        <pt x="204" y="-20" on="0"/>
        <pt x="143" y="-9" on="0"/>
        <pt x="97" y="7" on="0"/>
        <pt x="88" y="15" on="1"/>
        <pt x="85" y="18" on="0"/>
        <pt x="85" y="23" on="1"/>
        <pt x="85" y="141" on="1"/>
        <pt x="104" y="141" on="1"/>
        <pt x="174" y="108" on="0"/>
      </contour>
    </TTGlyph>
    <TTGlyph name="Jcircumflex" xMin="65" yMin="-20" xMax="539" yMax="946">
      <contour>
        <pt x="189" y="775" on="1"/>
        <pt x="77" y="775" on="1"/>
        <pt x="65" y="775" on="0"/>
        <pt x="65" y="783" on="1"/>
        <pt x="65" y="787" on="0"/>
        <pt x="72" y="795" on="0"/>
        <pt x="85" y="808" on="1"/>
        <pt x="96" y="819" on="0"/>
        <pt x="134" y="857" on="0"/>
        <pt x="177" y="899" on="0"/>
        <pt x="213" y="936" on="0"/>
        <pt x="223" y="946" on="1"/>
        <pt x="357" y="946" on="1"/>
        <pt x="365" y="946" on="0"/>
        <pt x="375" y="939" on="0"/>
        <pt x="388" y="927" on="1"/>
        <pt x="396" y="920" on="0"/>
        <pt x="431" y="885" on="0"/>
        <pt x="475" y="840" on="0"/>
        <pt x="521" y="794" on="0"/>
        <pt x="539" y="775" on="1"/>
        <pt x="421" y="775" on="1"/>
        <pt x="410" y="775" on="0"/>
        <pt x="399" y="779" on="0"/>
        <pt x="392" y="785" on="1"/>
        <pt x="380" y="795" on="0"/>
        <pt x="329" y="837" on="0"/>
        <pt x="296" y="864" on="1"/>
        <pt x="266" y="839" on="0"/>
        <pt x="214" y="796" on="0"/>
      </contour>
      <contour>
        <pt x="248" y="108" on="1"/>
        <pt x="310" y="108" on="0"/>
        <pt x="365" y="166" on="0"/>
        <pt x="365" y="233" on="1"/>
        <pt x="365" y="574" on="1"/>
        <pt x="135" y="574" on="1"/>
        <pt x="130" y="574" on="0"/>
        <pt x="127" y="577" on="1"/>
        <pt x="124" y="580" on="0"/>
        <pt x="124" y="585" on="1"/>
        <pt x="124" y="700" on="1"/>
        <pt x="496" y="700" on="1"/>
        <pt x="507" y="700" on="0"/>
        <pt x="507" y="689" on="1"/>
        <pt x="507" y="241" on="1"/>
        <pt x="507" y="240" on="0"/>
        <pt x="507" y="239" on="1"/>
        <pt x="507" y="238" on="0"/>
        <pt x="507" y="237" on="1"/>
        <pt x="506" y="163" on="0"/>
        <pt x="452" y="46" on="0"/>
        <pt x="342" y="-20" on="0"/>
        <pt x="258" y="-20" on="1"/>
        <pt x="233" y="-20" on="1"/>
        <pt x="204" y="-20" on="0"/>
        <pt x="143" y="-9" on="0"/>
        <pt x="97" y="7" on="0"/>
        <pt x="88" y="15" on="1"/>
        <pt x="85" y="18" on="0"/>
        <pt x="85" y="23" on="1"/>
        <pt x="85" y="141" on="1"/>
        <pt x="104" y="141" on="1"/>
        <pt x="174" y="108" on="0"/>
      </contour>
    </TTGlyph>
    <TTGlyph name="K" xMin="73" yMin="-8" xMax="568" yMax="700">
      <contour>
        <pt x="73" y="700" on="1"/>
        <pt x="204" y="700" on="1"/>
        <pt x="209" y="700" on="0"/>
        <pt x="212" y="697" on="1"/>
        <pt x="215" y="694" on="0"/>
        <pt x="215" y="689" on="1"/>
        <pt x="215" y="400" on="1"/>
        <pt x="262" y="475" on="0"/>
        <pt x="358" y="626" on="0"/>
        <pt x="405" y="700" on="1"/>
        <pt x="553" y="700" on="1"/>
        <pt x="562" y="700" on="0"/>
        <pt x="562" y="692" on="1"/>
        <pt x="562" y="690" on="0"/>
        <pt x="558" y="681" on="0"/>
        <pt x="543" y="657" on="0"/>
        <pt x="524" y="630" on="1"/>
        <pt x="486" y="577" on="0"/>
        <pt x="397" y="452" on="0"/>
        <pt x="345" y="379" on="1"/>
        <pt x="487" y="154" on="1"/>
        <pt x="498" y="135" on="0"/>
        <pt x="517" y="125" on="0"/>
        <pt x="539" y="125" on="1"/>
        <pt x="568" y="125" on="1"/>
        <pt x="568" y="3" on="1"/>
        <pt x="568" y="-8" on="0"/>
        <pt x="557" y="-8" on="1"/>
        <pt x="516" y="-8" on="1"/>
        <pt x="464" y="-8" on="0"/>
        <pt x="409" y="23" on="0"/>
        <pt x="383" y="64" on="1"/>
        <pt x="259" y="258" on="1"/>
        <pt x="237" y="227" on="0"/>
        <pt x="215" y="196" on="1"/>
        <pt x="215" y="0" on="1"/>
        <pt x="84" y="0" on="1"/>
        <pt x="73" y="0" on="0"/>
        <pt x="73" y="11" on="1"/>
      </contour>
    </TTGlyph>
    <TTGlyph name="Kcommaaccent" xMin="73" yMin="-249" xMax="568" yMax="700">
      <contour>
        <pt x="73" y="700" on="1"/>
        <pt x="204" y="700" on="1"/>
        <pt x="209" y="700" on="0"/>
        <pt x="212" y="697" on="1"/>
        <pt x="215" y="694" on="0"/>
        <pt x="215" y="689" on="1"/>
        <pt x="215" y="400" on="1"/>
        <pt x="262" y="475" on="0"/>
        <pt x="358" y="626" on="0"/>
        <pt x="405" y="700" on="1"/>
        <pt x="553" y="700" on="1"/>
        <pt x="562" y="700" on="0"/>
        <pt x="562" y="692" on="1"/>
        <pt x="562" y="690" on="0"/>
        <pt x="558" y="681" on="0"/>
        <pt x="543" y="657" on="0"/>
        <pt x="524" y="630" on="1"/>
        <pt x="486" y="577" on="0"/>
        <pt x="397" y="452" on="0"/>
        <pt x="345" y="379" on="1"/>
        <pt x="487" y="154" on="1"/>
        <pt x="498" y="135" on="0"/>
        <pt x="517" y="125" on="0"/>
        <pt x="539" y="125" on="1"/>
        <pt x="568" y="125" on="1"/>
        <pt x="568" y="3" on="1"/>
        <pt x="568" y="-8" on="0"/>
        <pt x="557" y="-8" on="1"/>
        <pt x="516" y="-8" on="1"/>
        <pt x="464" y="-8" on="0"/>
        <pt x="409" y="23" on="0"/>
        <pt x="383" y="64" on="1"/>
        <pt x="259" y="258" on="1"/>
        <pt x="237" y="227" on="0"/>
        <pt x="215" y="196" on="1"/>
        <pt x="215" y="0" on="1"/>
        <pt x="84" y="0" on="1"/>
        <pt x="73" y="0" on="0"/>
        <pt x="73" y="11" on="1"/>
      </contour>
      <contour>
        <pt x="334" y="-249" on="1"/>
        <pt x="229" y="-249" on="1"/>
        <pt x="239" y="-199" on="0"/>
        <pt x="258" y="-107" on="0"/>
        <pt x="268" y="-62" on="1"/>
        <pt x="400" y="-62" on="1"/>
        <pt x="406" y="-62" on="0"/>
        <pt x="413" y="-69" on="0"/>
        <pt x="411" y="-75" on="1"/>
        <pt x="395" y="-118" on="0"/>
        <pt x="366" y="-193" on="0"/>
        <pt x="349" y="-239" on="1"/>
        <pt x="348" y="-243" on="0"/>
        <pt x="341" y="-249" on="0"/>
      </contour>
    </TTGlyph>
    <TTGlyph name="L" xMin="73" yMin="0" xMax="538" yMax="700">
      <contour>
        <pt x="84" y="0" on="1"/>
        <pt x="73" y="0" on="0"/>
        <pt x="73" y="11" on="1"/>
        <pt x="73" y="700" on="1"/>
        <pt x="204" y="700" on="1"/>
        <pt x="209" y="700" on="0"/>
        <pt x="212" y="697" on="1"/>
        <pt x="215" y="694" on="0"/>
        <pt x="215" y="689" on="1"/>
        <pt x="215" y="126" on="1"/>
        <pt x="527" y="126" on="1"/>
        <pt x="538" y="126" on="0"/>
        <pt x="538" y="115" on="1"/>
        <pt x="538" y="0" on="1"/>
      </contour>
    </TTGlyph>
    <TTGlyph name="Lacute" xMin="73" yMin="0" xMax="538" yMax="955">
      <contour>
        <pt x="192" y="775" on="1"/>
        <pt x="85" y="775" on="1"/>
        <pt x="112" y="821" on="0"/>
        <pt x="165" y="909" on="0"/>
        <pt x="192" y="955" on="1"/>
        <pt x="344" y="955" on="1"/>
        <pt x="350" y="955" on="0"/>
        <pt x="355" y="945" on="0"/>
        <pt x="350" y="940" on="1"/>
        <pt x="325" y="912" on="0"/>
        <pt x="287" y="869" on="0"/>
        <pt x="243" y="819" on="0"/>
        <pt x="208" y="781" on="1"/>
        <pt x="202" y="775" on="0"/>
      </contour>
      <contour>
        <pt x="84" y="0" on="1"/>
        <pt x="73" y="0" on="0"/>
        <pt x="73" y="11" on="1"/>
        <pt x="73" y="700" on="1"/>
        <pt x="204" y="700" on="1"/>
        <pt x="209" y="700" on="0"/>
        <pt x="212" y="697" on="1"/>
        <pt x="215" y="694" on="0"/>
        <pt x="215" y="689" on="1"/>
        <pt x="215" y="126" on="1"/>
        <pt x="527" y="126" on="1"/>
        <pt x="538" y="126" on="0"/>
        <pt x="538" y="115" on="1"/>
        <pt x="538" y="0" on="1"/>
      </contour>
    </TTGlyph>
    <TTGlyph name="Lcaron" xMin="73" yMin="0" xMax="538" yMax="700">
      <contour>
        <pt x="84" y="0" on="1"/>
        <pt x="73" y="0" on="0"/>
        <pt x="73" y="11" on="1"/>
        <pt x="73" y="700" on="1"/>
        <pt x="204" y="700" on="1"/>
        <pt x="209" y="700" on="0"/>
        <pt x="212" y="697" on="1"/>
        <pt x="215" y="694" on="0"/>
        <pt x="215" y="689" on="1"/>
        <pt x="215" y="126" on="1"/>
        <pt x="527" y="126" on="1"/>
        <pt x="538" y="126" on="0"/>
        <pt x="538" y="115" on="1"/>
        <pt x="538" y="0" on="1"/>
      </contour>
      <contour>
        <pt x="455" y="475" on="1"/>
        <pt x="373" y="475" on="1"/>
        <pt x="375" y="537" on="0"/>
        <pt x="377" y="638" on="0"/>
        <pt x="379" y="700" on="1"/>
        <pt x="512" y="700" on="1"/>
        <pt x="519" y="700" on="0"/>
        <pt x="526" y="691" on="0"/>
        <pt x="524" y="685" on="1"/>
        <pt x="508" y="631" on="0"/>
        <pt x="484" y="542" on="0"/>
        <pt x="470" y="486" on="1"/>
        <pt x="467" y="475" on="0"/>
      </contour>
    </TTGlyph>
    <TTGlyph name="Lcommaaccent" xMin="73" yMin="-249" xMax="538" yMax="700">
      <contour>
        <pt x="84" y="0" on="1"/>
        <pt x="73" y="0" on="0"/>
        <pt x="73" y="11" on="1"/>
        <pt x="73" y="700" on="1"/>
        <pt x="204" y="700" on="1"/>
        <pt x="209" y="700" on="0"/>
        <pt x="212" y="697" on="1"/>
        <pt x="215" y="694" on="0"/>
        <pt x="215" y="689" on="1"/>
        <pt x="215" y="126" on="1"/>
        <pt x="527" y="126" on="1"/>
        <pt x="538" y="126" on="0"/>
        <pt x="538" y="115" on="1"/>
        <pt x="538" y="0" on="1"/>
      </contour>
      <contour>
        <pt x="319" y="-249" on="1"/>
        <pt x="214" y="-249" on="1"/>
        <pt x="224" y="-199" on="0"/>
        <pt x="243" y="-107" on="0"/>
        <pt x="253" y="-62" on="1"/>
        <pt x="385" y="-62" on="1"/>
        <pt x="391" y="-62" on="0"/>
        <pt x="398" y="-69" on="0"/>
        <pt x="396" y="-75" on="1"/>
        <pt x="380" y="-118" on="0"/>
        <pt x="351" y="-193" on="0"/>
        <pt x="334" y="-239" on="1"/>
        <pt x="333" y="-243" on="0"/>
        <pt x="326" y="-249" on="0"/>
      </contour>
    </TTGlyph>
    <TTGlyph name="Ldot" xMin="73" yMin="0" xMax="538" yMax="700">
      <contour>
        <pt x="84" y="0" on="1"/>
        <pt x="73" y="0" on="0"/>
        <pt x="73" y="11" on="1"/>
        <pt x="73" y="700" on="1"/>
        <pt x="204" y="700" on="1"/>
        <pt x="209" y="700" on="0"/>
        <pt x="212" y="697" on="1"/>
        <pt x="215" y="694" on="0"/>
        <pt x="215" y="689" on="1"/>
        <pt x="215" y="126" on="1"/>
        <pt x="527" y="126" on="1"/>
        <pt x="538" y="126" on="0"/>
        <pt x="538" y="115" on="1"/>
        <pt x="538" y="0" on="1"/>
      </contour>
      <contour>
        <pt x="500" y="327" on="1"/>
        <pt x="356" y="327" on="1"/>
        <pt x="345" y="327" on="0"/>
        <pt x="345" y="338" on="1"/>
        <pt x="345" y="474" on="1"/>
        <pt x="489" y="474" on="1"/>
        <pt x="500" y="474" on="0"/>
        <pt x="500" y="463" on="1"/>
      </contour>
    </TTGlyph>
    <TTGlyph name="Lslash" xMin="32" yMin="0" xMax="538" yMax="700">
      <contour>
        <pt x="411" y="528" on="1"/>
        <pt x="411" y="413" on="1"/>
        <pt x="411" y="400" on="0"/>
        <pt x="402" y="395" on="1"/>
        <pt x="239" y="310" on="1"/>
        <pt x="239" y="126" on="1"/>
        <pt x="527" y="126" on="1"/>
        <pt x="538" y="126" on="0"/>
        <pt x="538" y="115" on="1"/>
        <pt x="538" y="0" on="1"/>
        <pt x="109" y="0" on="1"/>
        <pt x="98" y="0" on="0"/>
        <pt x="98" y="11" on="1"/>
        <pt x="98" y="253" on="1"/>
        <pt x="32" y="218" on="1"/>
        <pt x="32" y="330" on="1"/>
        <pt x="32" y="338" on="0"/>
        <pt x="34" y="346" on="0"/>
        <pt x="40" y="349" on="1"/>
        <pt x="98" y="379" on="1"/>
        <pt x="98" y="700" on="1"/>
        <pt x="228" y="700" on="1"/>
        <pt x="233" y="700" on="0"/>
        <pt x="236" y="697" on="1"/>
        <pt x="239" y="694" on="0"/>
        <pt x="239" y="689" on="1"/>
        <pt x="239" y="436" on="1"/>
      </contour>
    </TTGlyph>
    <TTGlyph name="M" xMin="54" yMin="0" xMax="546" yMax="700">
      <contour>
        <pt x="187" y="0" on="1"/>
        <pt x="65" y="0" on="1"/>
        <pt x="60" y="0" on="0"/>
        <pt x="57" y="3" on="1"/>
        <pt x="54" y="6" on="0"/>
        <pt x="54" y="11" on="1"/>
        <pt x="54" y="700" on="1"/>
        <pt x="172" y="700" on="1"/>
        <pt x="182" y="700" on="0"/>
        <pt x="187" y="690" on="1"/>
        <pt x="215" y="610" on="0"/>
        <pt x="272" y="452" on="0"/>
        <pt x="300" y="371" on="1"/>
        <pt x="330" y="453" on="0"/>
        <pt x="389" y="618" on="0"/>
        <pt x="419" y="700" on="1"/>
        <pt x="535" y="700" on="1"/>
        <pt x="540" y="700" on="0"/>
        <pt x="543" y="697" on="1"/>
        <pt x="546" y="694" on="0"/>
        <pt x="546" y="689" on="1"/>
        <pt x="546" y="0" on="1"/>
        <pt x="424" y="0" on="1"/>
        <pt x="419" y="0" on="0"/>
        <pt x="416" y="3" on="1"/>
        <pt x="413" y="6" on="0"/>
        <pt x="413" y="11" on="1"/>
        <pt x="413" y="163" on="1"/>
        <pt x="413" y="182" on="0"/>
        <pt x="420" y="282" on="0"/>
        <pt x="431" y="415" on="0"/>
        <pt x="435" y="483" on="1"/>
        <pt x="403" y="403" on="0"/>
        <pt x="339" y="244" on="0"/>
        <pt x="307" y="164" on="1"/>
        <pt x="296" y="164" on="1"/>
        <pt x="293" y="164" on="0"/>
        <pt x="286" y="167" on="0"/>
        <pt x="284" y="172" on="1"/>
        <pt x="254" y="250" on="0"/>
        <pt x="194" y="407" on="0"/>
        <pt x="164" y="485" on="1"/>
        <pt x="169" y="417" on="0"/>
        <pt x="180" y="283" on="0"/>
        <pt x="187" y="182" on="0"/>
        <pt x="187" y="163" on="1"/>
      </contour>
    </TTGlyph>
    <TTGlyph name="N" xMin="64" yMin="0" xMax="536" yMax="700">
      <contour>
        <pt x="197" y="0" on="1"/>
        <pt x="75" y="0" on="1"/>
        <pt x="64" y="0" on="0"/>
        <pt x="64" y="11" on="1"/>
        <pt x="64" y="700" on="1"/>
        <pt x="190" y="700" on="1"/>
        <pt x="199" y="700" on="0"/>
        <pt x="205" y="697" on="0"/>
        <pt x="208" y="690" on="1"/>
        <pt x="259" y="580" on="0"/>
        <pt x="364" y="354" on="0"/>
        <pt x="417" y="241" on="1"/>
        <pt x="413" y="283" on="0"/>
        <pt x="407" y="357" on="0"/>
        <pt x="403" y="406" on="0"/>
        <pt x="403" y="411" on="1"/>
        <pt x="403" y="700" on="1"/>
        <pt x="525" y="700" on="1"/>
        <pt x="536" y="700" on="0"/>
        <pt x="536" y="689" on="1"/>
        <pt x="536" y="0" on="1"/>
        <pt x="419" y="0" on="1"/>
        <pt x="416" y="0" on="0"/>
        <pt x="409" y="3" on="0"/>
        <pt x="407" y="8" on="1"/>
        <pt x="350" y="127" on="0"/>
        <pt x="237" y="365" on="0"/>
        <pt x="181" y="484" on="1"/>
        <pt x="185" y="431" on="0"/>
        <pt x="192" y="331" on="0"/>
        <pt x="197" y="261" on="0"/>
        <pt x="197" y="253" on="1"/>
      </contour>
    </TTGlyph>
    <TTGlyph name="Nacute" xMin="64" yMin="0" xMax="536" yMax="954">
      <contour>
        <pt x="348" y="774" on="1"/>
        <pt x="241" y="774" on="1"/>
        <pt x="268" y="820" on="0"/>
        <pt x="321" y="908" on="0"/>
        <pt x="348" y="954" on="1"/>
        <pt x="500" y="954" on="1"/>
        <pt x="506" y="954" on="0"/>
        <pt x="511" y="945" on="0"/>
        <pt x="506" y="940" on="1"/>
        <pt x="481" y="912" on="0"/>
        <pt x="443" y="868" on="0"/>
        <pt x="399" y="819" on="0"/>
        <pt x="364" y="781" on="1"/>
        <pt x="359" y="774" on="0"/>
      </contour>
      <contour>
        <pt x="197" y="0" on="1"/>
        <pt x="75" y="0" on="1"/>
        <pt x="64" y="0" on="0"/>
        <pt x="64" y="11" on="1"/>
        <pt x="64" y="700" on="1"/>
        <pt x="190" y="700" on="1"/>
        <pt x="199" y="700" on="0"/>
        <pt x="205" y="697" on="0"/>
        <pt x="208" y="690" on="1"/>
        <pt x="259" y="580" on="0"/>
        <pt x="364" y="354" on="0"/>
        <pt x="417" y="241" on="1"/>
        <pt x="413" y="283" on="0"/>
        <pt x="407" y="357" on="0"/>
        <pt x="403" y="406" on="0"/>
        <pt x="403" y="411" on="1"/>
        <pt x="403" y="700" on="1"/>
        <pt x="525" y="700" on="1"/>
        <pt x="536" y="700" on="0"/>
        <pt x="536" y="689" on="1"/>
        <pt x="536" y="0" on="1"/>
        <pt x="419" y="0" on="1"/>
        <pt x="416" y="0" on="0"/>
        <pt x="409" y="3" on="0"/>
        <pt x="407" y="8" on="1"/>
        <pt x="350" y="127" on="0"/>
        <pt x="237" y="365" on="0"/>
        <pt x="181" y="484" on="1"/>
        <pt x="185" y="431" on="0"/>
        <pt x="192" y="331" on="0"/>
        <pt x="197" y="261" on="0"/>
        <pt x="197" y="253" on="1"/>
      </contour>
    </TTGlyph>
    <TTGlyph name="Ncaron" xMin="57" yMin="0" xMax="536" yMax="946">
      <contour>
        <pt x="57" y="946" on="1"/>
        <pt x="175" y="946" on="1"/>
        <pt x="186" y="946" on="0"/>
        <pt x="197" y="942" on="0"/>
        <pt x="204" y="935" on="1"/>
        <pt x="216" y="926" on="0"/>
        <pt x="267" y="884" on="0"/>
        <pt x="300" y="857" on="1"/>
        <pt x="330" y="882" on="0"/>
        <pt x="383" y="925" on="0"/>
        <pt x="407" y="946" on="1"/>
        <pt x="520" y="946" on="1"/>
        <pt x="531" y="946" on="0"/>
        <pt x="531" y="938" on="1"/>
        <pt x="531" y="934" on="0"/>
        <pt x="525" y="927" on="0"/>
        <pt x="512" y="913" on="1"/>
        <pt x="501" y="902" on="0"/>
        <pt x="463" y="864" on="0"/>
        <pt x="420" y="821" on="0"/>
        <pt x="383" y="784" on="0"/>
        <pt x="373" y="774" on="1"/>
        <pt x="239" y="774" on="1"/>
        <pt x="232" y="774" on="0"/>
        <pt x="221" y="781" on="0"/>
        <pt x="208" y="794" on="1"/>
        <pt x="201" y="801" on="0"/>
        <pt x="166" y="836" on="0"/>
        <pt x="121" y="881" on="0"/>
        <pt x="75" y="927" on="0"/>
      </contour>
      <contour>
        <pt x="197" y="0" on="1"/>
        <pt x="75" y="0" on="1"/>
        <pt x="64" y="0" on="0"/>
        <pt x="64" y="11" on="1"/>
        <pt x="64" y="700" on="1"/>
        <pt x="190" y="700" on="1"/>
        <pt x="199" y="700" on="0"/>
        <pt x="205" y="697" on="0"/>
        <pt x="208" y="690" on="1"/>
        <pt x="259" y="580" on="0"/>
        <pt x="364" y="354" on="0"/>
        <pt x="417" y="241" on="1"/>
        <pt x="413" y="283" on="0"/>
        <pt x="407" y="357" on="0"/>
        <pt x="403" y="406" on="0"/>
        <pt x="403" y="411" on="1"/>
        <pt x="403" y="700" on="1"/>
        <pt x="525" y="700" on="1"/>
        <pt x="536" y="700" on="0"/>
        <pt x="536" y="689" on="1"/>
        <pt x="536" y="0" on="1"/>
        <pt x="419" y="0" on="1"/>
        <pt x="416" y="0" on="0"/>
        <pt x="409" y="3" on="0"/>
        <pt x="407" y="8" on="1"/>
        <pt x="350" y="127" on="0"/>
        <pt x="237" y="365" on="0"/>
        <pt x="181" y="484" on="1"/>
        <pt x="185" y="431" on="0"/>
        <pt x="192" y="331" on="0"/>
        <pt x="197" y="261" on="0"/>
        <pt x="197" y="253" on="1"/>
      </contour>
    </TTGlyph>
    <TTGlyph name="Ncommaaccent" xMin="64" yMin="-249" xMax="536" yMax="700">
      <contour>
        <pt x="197" y="0" on="1"/>
        <pt x="75" y="0" on="1"/>
        <pt x="64" y="0" on="0"/>
        <pt x="64" y="11" on="1"/>
        <pt x="64" y="700" on="1"/>
        <pt x="190" y="700" on="1"/>
        <pt x="199" y="700" on="0"/>
        <pt x="205" y="697" on="0"/>
        <pt x="208" y="690" on="1"/>
        <pt x="259" y="580" on="0"/>
        <pt x="364" y="354" on="0"/>
        <pt x="417" y="241" on="1"/>
        <pt x="413" y="283" on="0"/>
        <pt x="407" y="357" on="0"/>
        <pt x="403" y="406" on="0"/>
        <pt x="403" y="411" on="1"/>
        <pt x="403" y="700" on="1"/>
        <pt x="525" y="700" on="1"/>
        <pt x="536" y="700" on="0"/>
        <pt x="536" y="689" on="1"/>
        <pt x="536" y="0" on="1"/>
        <pt x="419" y="0" on="1"/>
        <pt x="416" y="0" on="0"/>
        <pt x="409" y="3" on="0"/>
        <pt x="407" y="8" on="1"/>
        <pt x="350" y="127" on="0"/>
        <pt x="237" y="365" on="0"/>
        <pt x="181" y="484" on="1"/>
        <pt x="185" y="431" on="0"/>
        <pt x="192" y="331" on="0"/>
        <pt x="197" y="261" on="0"/>
        <pt x="197" y="253" on="1"/>
      </contour>
      <contour>
        <pt x="313" y="-249" on="1"/>
        <pt x="208" y="-249" on="1"/>
        <pt x="219" y="-199" on="0"/>
        <pt x="237" y="-107" on="0"/>
        <pt x="247" y="-62" on="1"/>
        <pt x="379" y="-62" on="1"/>
        <pt x="385" y="-62" on="0"/>
        <pt x="392" y="-69" on="0"/>
        <pt x="390" y="-75" on="1"/>
        <pt x="374" y="-118" on="0"/>
        <pt x="345" y="-193" on="0"/>
        <pt x="328" y="-239" on="1"/>
        <pt x="327" y="-243" on="0"/>
        <pt x="320" y="-249" on="0"/>
      </contour>
    </TTGlyph>
    <TTGlyph name="Nhookleft" xMin="-39" yMin="-191" xMax="536" yMax="700">
      <contour>
        <pt x="17" y="-62" on="1"/>
        <pt x="39" y="-62" on="0"/>
        <pt x="64" y="-32" on="0"/>
        <pt x="64" y="6" on="1"/>
        <pt x="64" y="700" on="1"/>
        <pt x="190" y="700" on="1"/>
        <pt x="199" y="700" on="0"/>
        <pt x="205" y="697" on="0"/>
        <pt x="208" y="690" on="1"/>
        <pt x="259" y="580" on="0"/>
        <pt x="364" y="354" on="0"/>
        <pt x="417" y="241" on="1"/>
        <pt x="413" y="283" on="0"/>
        <pt x="407" y="357" on="0"/>
        <pt x="403" y="406" on="0"/>
        <pt x="403" y="411" on="1"/>
        <pt x="403" y="700" on="1"/>
        <pt x="525" y="700" on="1"/>
        <pt x="536" y="700" on="0"/>
        <pt x="536" y="689" on="1"/>
        <pt x="536" y="0" on="1"/>
        <pt x="419" y="0" on="1"/>
        <pt x="416" y="0" on="0"/>
        <pt x="409" y="3" on="0"/>
        <pt x="407" y="8" on="1"/>
        <pt x="350" y="127" on="0"/>
        <pt x="237" y="365" on="0"/>
        <pt x="181" y="484" on="1"/>
        <pt x="185" y="431" on="0"/>
        <pt x="192" y="331" on="0"/>
        <pt x="197" y="261" on="0"/>
        <pt x="197" y="253" on="1"/>
        <pt x="197" y="-8" on="1"/>
        <pt x="197" y="-88" on="0"/>
        <pt x="121" y="-191" on="0"/>
        <pt x="44" y="-191" on="1"/>
        <pt x="35" y="-191" on="1"/>
        <pt x="13" y="-191" on="0"/>
        <pt x="-29" y="-181" on="0"/>
        <pt x="-36" y="-174" on="1"/>
        <pt x="-39" y="-171" on="0"/>
        <pt x="-39" y="-166" on="1"/>
        <pt x="-39" y="-53" on="1"/>
        <pt x="-20" y="-53" on="1"/>
        <pt x="-11" y="-57" on="0"/>
        <pt x="6" y="-62" on="0"/>
      </contour>
    </TTGlyph>
    <TTGlyph name="Ntilde" xMin="64" yMin="0" xMax="536" yMax="953">
      <contour>
        <pt x="406" y="896" on="1"/>
        <pt x="453" y="896" on="0"/>
        <pt x="483" y="937" on="1"/>
        <pt x="502" y="937" on="1"/>
        <pt x="502" y="829" on="1"/>
        <pt x="502" y="822" on="0"/>
        <pt x="500" y="813" on="0"/>
        <pt x="495" y="808" on="1"/>
        <pt x="479" y="791" on="0"/>
        <pt x="434" y="771" on="0"/>
        <pt x="401" y="771" on="1"/>
        <pt x="358" y="771" on="0"/>
        <pt x="291" y="799" on="0"/>
        <pt x="229" y="827" on="0"/>
        <pt x="194" y="827" on="1"/>
        <pt x="147" y="827" on="0"/>
        <pt x="117" y="786" on="1"/>
        <pt x="98" y="786" on="1"/>
        <pt x="98" y="894" on="1"/>
        <pt x="98" y="902" on="0"/>
        <pt x="100" y="910" on="0"/>
        <pt x="105" y="916" on="1"/>
        <pt x="121" y="933" on="0"/>
        <pt x="166" y="953" on="0"/>
        <pt x="199" y="953" on="1"/>
        <pt x="242" y="953" on="0"/>
        <pt x="309" y="924" on="0"/>
        <pt x="371" y="896" on="0"/>
      </contour>
      <contour>
        <pt x="197" y="0" on="1"/>
        <pt x="75" y="0" on="1"/>
        <pt x="64" y="0" on="0"/>
        <pt x="64" y="11" on="1"/>
        <pt x="64" y="700" on="1"/>
        <pt x="190" y="700" on="1"/>
        <pt x="199" y="700" on="0"/>
        <pt x="205" y="697" on="0"/>
        <pt x="208" y="690" on="1"/>
        <pt x="259" y="580" on="0"/>
        <pt x="364" y="354" on="0"/>
        <pt x="417" y="241" on="1"/>
        <pt x="413" y="283" on="0"/>
        <pt x="407" y="357" on="0"/>
        <pt x="403" y="406" on="0"/>
        <pt x="403" y="411" on="1"/>
        <pt x="403" y="700" on="1"/>
        <pt x="525" y="700" on="1"/>
        <pt x="536" y="700" on="0"/>
        <pt x="536" y="689" on="1"/>
        <pt x="536" y="0" on="1"/>
        <pt x="419" y="0" on="1"/>
        <pt x="416" y="0" on="0"/>
        <pt x="409" y="3" on="0"/>
        <pt x="407" y="8" on="1"/>
        <pt x="350" y="127" on="0"/>
        <pt x="237" y="365" on="0"/>
        <pt x="181" y="484" on="1"/>
        <pt x="185" y="431" on="0"/>
        <pt x="192" y="331" on="0"/>
        <pt x="197" y="261" on="0"/>
        <pt x="197" y="253" on="1"/>
      </contour>
    </TTGlyph>
    <TTGlyph name="O" xMin="57" yMin="-20" xMax="542" yMax="720">
      <contour>
        <pt x="303" y="-20" on="1"/>
        <pt x="302" y="-20" on="0"/>
        <pt x="302" y="-20" on="1"/>
        <pt x="185" y="-20" on="0"/>
        <pt x="57" y="109" on="0"/>
        <pt x="57" y="232" on="1"/>
        <pt x="57" y="461" on="1"/>
        <pt x="57" y="545" on="0"/>
        <pt x="119" y="660" on="0"/>
        <pt x="228" y="720" on="0"/>
        <pt x="296" y="720" on="1"/>
        <pt x="414" y="720" on="0"/>
        <pt x="542" y="591" on="0"/>
        <pt x="542" y="469" on="1"/>
        <pt x="542" y="239" on="1"/>
        <pt x="542" y="156" on="0"/>
        <pt x="480" y="40" on="0"/>
        <pt x="372" y="-20" on="0"/>
      </contour>
      <contour>
        <pt x="190" y="232" on="1"/>
        <pt x="190" y="172" on="0"/>
        <pt x="237" y="106" on="0"/>
        <pt x="300" y="106" on="1"/>
        <pt x="351" y="106" on="0"/>
        <pt x="409" y="171" on="0"/>
        <pt x="409" y="241" on="1"/>
        <pt x="409" y="468" on="1"/>
        <pt x="409" y="528" on="0"/>
        <pt x="363" y="594" on="0"/>
        <pt x="299" y="594" on="1"/>
        <pt x="249" y="594" on="0"/>
        <pt x="190" y="529" on="0"/>
        <pt x="190" y="459" on="1"/>
      </contour>
    </TTGlyph>
    <TTGlyph name="OE" xMin="28" yMin="-9" xMax="577" yMax="709">
      <contour>
        <pt x="250" y="709" on="1"/>
        <pt x="285" y="709" on="0"/>
        <pt x="312" y="700" on="1"/>
        <pt x="566" y="700" on="1"/>
        <pt x="571" y="700" on="0"/>
        <pt x="574" y="697" on="1"/>
        <pt x="577" y="694" on="0"/>
        <pt x="577" y="689" on="1"/>
        <pt x="577" y="577" on="1"/>
        <pt x="406" y="577" on="1"/>
        <pt x="406" y="411" on="1"/>
        <pt x="529" y="411" on="1"/>
        <pt x="540" y="411" on="0"/>
        <pt x="540" y="400" on="1"/>
        <pt x="540" y="294" on="1"/>
        <pt x="406" y="294" on="1"/>
        <pt x="406" y="123" on="1"/>
        <pt x="566" y="123" on="1"/>
        <pt x="577" y="123" on="0"/>
        <pt x="577" y="112" on="1"/>
        <pt x="577" y="0" on="1"/>
        <pt x="313" y="0" on="1"/>
        <pt x="285" y="-9" on="0"/>
        <pt x="250" y="-9" on="1"/>
        <pt x="147" y="-9" on="0"/>
        <pt x="28" y="118" on="0"/>
        <pt x="28" y="229" on="1"/>
        <pt x="28" y="478" on="1"/>
        <pt x="28" y="586" on="0"/>
        <pt x="148" y="709" on="0"/>
      </contour>
      <contour>
        <pt x="151" y="223" on="1"/>
        <pt x="151" y="171" on="0"/>
        <pt x="203" y="111" on="0"/>
        <pt x="252" y="111" on="1"/>
        <pt x="271" y="111" on="0"/>
        <pt x="288" y="114" on="1"/>
        <pt x="288" y="586" on="1"/>
        <pt x="272" y="589" on="0"/>
        <pt x="251" y="589" on="1"/>
        <pt x="205" y="589" on="0"/>
        <pt x="151" y="525" on="0"/>
        <pt x="151" y="469" on="1"/>
      </contour>
    </TTGlyph>
    <TTGlyph name="Oacute" xMin="57" yMin="-20" xMax="542" yMax="955">
      <contour>
        <pt x="348" y="775" on="1"/>
        <pt x="241" y="775" on="1"/>
        <pt x="268" y="821" on="0"/>
        <pt x="321" y="909" on="0"/>
        <pt x="348" y="955" on="1"/>
        <pt x="500" y="955" on="1"/>
        <pt x="506" y="955" on="0"/>
        <pt x="511" y="945" on="0"/>
        <pt x="506" y="940" on="1"/>
        <pt x="481" y="912" on="0"/>
        <pt x="443" y="869" on="0"/>
        <pt x="399" y="819" on="0"/>
        <pt x="364" y="781" on="1"/>
        <pt x="358" y="775" on="0"/>
      </contour>
      <contour>
        <pt x="303" y="-20" on="1"/>
        <pt x="302" y="-20" on="0"/>
        <pt x="302" y="-20" on="1"/>
        <pt x="185" y="-20" on="0"/>
        <pt x="57" y="109" on="0"/>
        <pt x="57" y="232" on="1"/>
        <pt x="57" y="461" on="1"/>
        <pt x="57" y="545" on="0"/>
        <pt x="119" y="660" on="0"/>
        <pt x="228" y="720" on="0"/>
        <pt x="296" y="720" on="1"/>
        <pt x="414" y="720" on="0"/>
        <pt x="542" y="591" on="0"/>
        <pt x="542" y="469" on="1"/>
        <pt x="542" y="239" on="1"/>
        <pt x="542" y="156" on="0"/>
        <pt x="480" y="40" on="0"/>
        <pt x="372" y="-20" on="0"/>
      </contour>
      <contour>
        <pt x="190" y="232" on="1"/>
        <pt x="190" y="172" on="0"/>
        <pt x="237" y="106" on="0"/>
        <pt x="300" y="106" on="1"/>
        <pt x="351" y="106" on="0"/>
        <pt x="409" y="171" on="0"/>
        <pt x="409" y="241" on="1"/>
        <pt x="409" y="468" on="1"/>
        <pt x="409" y="528" on="0"/>
        <pt x="363" y="594" on="0"/>
        <pt x="299" y="594" on="1"/>
        <pt x="249" y="594" on="0"/>
        <pt x="190" y="529" on="0"/>
        <pt x="190" y="459" on="1"/>
      </contour>
    </TTGlyph>
    <TTGlyph name="Obreve" xMin="57" yMin="-20" xMax="542" yMax="947">
      <contour>
        <pt x="206" y="947" on="1"/>
        <pt x="220" y="914" on="0"/>
        <pt x="264" y="888" on="0"/>
        <pt x="300" y="888" on="1"/>
        <pt x="336" y="888" on="0"/>
        <pt x="380" y="914" on="0"/>
        <pt x="394" y="947" on="1"/>
        <pt x="477" y="947" on="1"/>
        <pt x="487" y="947" on="0"/>
        <pt x="492" y="939" on="0"/>
        <pt x="490" y="927" on="1"/>
        <pt x="484" y="890" on="0"/>
        <pt x="439" y="824" on="0"/>
        <pt x="368" y="783" on="0"/>
        <pt x="324" y="783" on="1"/>
        <pt x="276" y="783" on="1"/>
        <pt x="232" y="783" on="0"/>
        <pt x="161" y="824" on="0"/>
        <pt x="116" y="890" on="0"/>
        <pt x="110" y="927" on="1"/>
        <pt x="108" y="939" on="0"/>
        <pt x="113" y="947" on="0"/>
        <pt x="123" y="947" on="1"/>
      </contour>
      <contour>
        <pt x="303" y="-20" on="1"/>
        <pt x="302" y="-20" on="0"/>
        <pt x="302" y="-20" on="1"/>
        <pt x="185" y="-20" on="0"/>
        <pt x="57" y="109" on="0"/>
        <pt x="57" y="232" on="1"/>
        <pt x="57" y="461" on="1"/>
        <pt x="57" y="545" on="0"/>
        <pt x="119" y="660" on="0"/>
        <pt x="228" y="720" on="0"/>
        <pt x="296" y="720" on="1"/>
        <pt x="414" y="720" on="0"/>
        <pt x="542" y="591" on="0"/>
        <pt x="542" y="469" on="1"/>
        <pt x="542" y="239" on="1"/>
        <pt x="542" y="156" on="0"/>
        <pt x="480" y="40" on="0"/>
        <pt x="372" y="-20" on="0"/>
      </contour>
      <contour>
        <pt x="190" y="232" on="1"/>
        <pt x="190" y="172" on="0"/>
        <pt x="237" y="106" on="0"/>
        <pt x="300" y="106" on="1"/>
        <pt x="351" y="106" on="0"/>
        <pt x="409" y="171" on="0"/>
        <pt x="409" y="241" on="1"/>
        <pt x="409" y="468" on="1"/>
        <pt x="409" y="528" on="0"/>
        <pt x="363" y="594" on="0"/>
        <pt x="299" y="594" on="1"/>
        <pt x="249" y="594" on="0"/>
        <pt x="190" y="529" on="0"/>
        <pt x="190" y="459" on="1"/>
      </contour>
    </TTGlyph>
    <TTGlyph name="Ocircumflex" xMin="57" yMin="-20" xMax="543" yMax="946">
      <contour>
        <pt x="193" y="775" on="1"/>
        <pt x="81" y="775" on="1"/>
        <pt x="70" y="775" on="0"/>
        <pt x="70" y="783" on="1"/>
        <pt x="70" y="787" on="0"/>
        <pt x="76" y="795" on="0"/>
        <pt x="89" y="808" on="1"/>
        <pt x="100" y="819" on="0"/>
        <pt x="138" y="857" on="0"/>
        <pt x="181" y="899" on="0"/>
        <pt x="218" y="936" on="0"/>
        <pt x="228" y="946" on="1"/>
        <pt x="361" y="946" on="1"/>
        <pt x="369" y="946" on="0"/>
        <pt x="379" y="939" on="0"/>
        <pt x="392" y="927" on="1"/>
        <pt x="400" y="920" on="0"/>
        <pt x="435" y="885" on="0"/>
        <pt x="479" y="840" on="0"/>
        <pt x="525" y="794" on="0"/>
        <pt x="543" y="775" on="1"/>
        <pt x="426" y="775" on="1"/>
        <pt x="415" y="775" on="0"/>
        <pt x="404" y="779" on="0"/>
        <pt x="396" y="785" on="1"/>
        <pt x="384" y="795" on="0"/>
        <pt x="333" y="837" on="0"/>
        <pt x="301" y="864" on="1"/>
        <pt x="271" y="839" on="0"/>
        <pt x="218" y="796" on="0"/>
      </contour>
      <contour>
        <pt x="303" y="-20" on="1"/>
        <pt x="302" y="-20" on="0"/>
        <pt x="302" y="-20" on="1"/>
        <pt x="185" y="-20" on="0"/>
        <pt x="57" y="109" on="0"/>
        <pt x="57" y="232" on="1"/>
        <pt x="57" y="461" on="1"/>
        <pt x="57" y="545" on="0"/>
        <pt x="119" y="660" on="0"/>
        <pt x="228" y="720" on="0"/>
        <pt x="296" y="720" on="1"/>
        <pt x="414" y="720" on="0"/>
        <pt x="542" y="591" on="0"/>
        <pt x="542" y="469" on="1"/>
        <pt x="542" y="239" on="1"/>
        <pt x="542" y="156" on="0"/>
        <pt x="480" y="40" on="0"/>
        <pt x="372" y="-20" on="0"/>
      </contour>
      <contour>
        <pt x="190" y="232" on="1"/>
        <pt x="190" y="172" on="0"/>
        <pt x="237" y="106" on="0"/>
        <pt x="300" y="106" on="1"/>
        <pt x="351" y="106" on="0"/>
        <pt x="409" y="171" on="0"/>
        <pt x="409" y="241" on="1"/>
        <pt x="409" y="468" on="1"/>
        <pt x="409" y="528" on="0"/>
        <pt x="363" y="594" on="0"/>
        <pt x="299" y="594" on="1"/>
        <pt x="249" y="594" on="0"/>
        <pt x="190" y="529" on="0"/>
        <pt x="190" y="459" on="1"/>
      </contour>
    </TTGlyph>
    <TTGlyph name="Odieresis" xMin="57" yMin="-20" xMax="542" yMax="927">
      <contour>
        <pt x="263" y="791" on="1"/>
        <pt x="131" y="791" on="1"/>
        <pt x="120" y="791" on="0"/>
        <pt x="120" y="802" on="1"/>
        <pt x="120" y="927" on="1"/>
        <pt x="252" y="927" on="1"/>
        <pt x="263" y="927" on="0"/>
        <pt x="263" y="916" on="1"/>
      </contour>
      <contour>
        <pt x="480" y="791" on="1"/>
        <pt x="348" y="791" on="1"/>
        <pt x="337" y="791" on="0"/>
        <pt x="337" y="802" on="1"/>
        <pt x="337" y="927" on="1"/>
        <pt x="469" y="927" on="1"/>
        <pt x="480" y="927" on="0"/>
        <pt x="480" y="916" on="1"/>
      </contour>
      <contour>
        <pt x="303" y="-20" on="1"/>
        <pt x="302" y="-20" on="0"/>
        <pt x="302" y="-20" on="1"/>
        <pt x="185" y="-20" on="0"/>
        <pt x="57" y="109" on="0"/>
        <pt x="57" y="232" on="1"/>
        <pt x="57" y="461" on="1"/>
        <pt x="57" y="545" on="0"/>
        <pt x="119" y="660" on="0"/>
        <pt x="228" y="720" on="0"/>
        <pt x="296" y="720" on="1"/>
        <pt x="414" y="720" on="0"/>
        <pt x="542" y="591" on="0"/>
        <pt x="542" y="469" on="1"/>
        <pt x="542" y="239" on="1"/>
        <pt x="542" y="156" on="0"/>
        <pt x="480" y="40" on="0"/>
        <pt x="372" y="-20" on="0"/>
      </contour>
      <contour>
        <pt x="190" y="232" on="1"/>
        <pt x="190" y="172" on="0"/>
        <pt x="237" y="106" on="0"/>
        <pt x="300" y="106" on="1"/>
        <pt x="351" y="106" on="0"/>
        <pt x="409" y="171" on="0"/>
        <pt x="409" y="241" on="1"/>
        <pt x="409" y="468" on="1"/>
        <pt x="409" y="528" on="0"/>
        <pt x="363" y="594" on="0"/>
        <pt x="299" y="594" on="1"/>
        <pt x="249" y="594" on="0"/>
        <pt x="190" y="529" on="0"/>
        <pt x="190" y="459" on="1"/>
      </contour>
    </TTGlyph>
    <TTGlyph name="Odotbelow" xMin="57" yMin="-239" xMax="542" yMax="720">
      <contour>
        <pt x="303" y="-20" on="1"/>
        <pt x="302" y="-20" on="0"/>
        <pt x="302" y="-20" on="1"/>
        <pt x="185" y="-20" on="0"/>
        <pt x="57" y="109" on="0"/>
        <pt x="57" y="232" on="1"/>
        <pt x="57" y="461" on="1"/>
        <pt x="57" y="545" on="0"/>
        <pt x="119" y="660" on="0"/>
        <pt x="228" y="720" on="0"/>
        <pt x="296" y="720" on="1"/>
        <pt x="414" y="720" on="0"/>
        <pt x="542" y="591" on="0"/>
        <pt x="542" y="469" on="1"/>
        <pt x="542" y="239" on="1"/>
        <pt x="542" y="156" on="0"/>
        <pt x="480" y="40" on="0"/>
        <pt x="372" y="-20" on="0"/>
      </contour>
      <contour>
        <pt x="190" y="232" on="1"/>
        <pt x="190" y="172" on="0"/>
        <pt x="237" y="106" on="0"/>
        <pt x="300" y="106" on="1"/>
        <pt x="351" y="106" on="0"/>
        <pt x="409" y="171" on="0"/>
        <pt x="409" y="241" on="1"/>
        <pt x="409" y="468" on="1"/>
        <pt x="409" y="528" on="0"/>
        <pt x="363" y="594" on="0"/>
        <pt x="299" y="594" on="1"/>
        <pt x="249" y="594" on="0"/>
        <pt x="190" y="529" on="0"/>
        <pt x="190" y="459" on="1"/>
      </contour>
      <contour>
        <pt x="381" y="-239" on="1"/>
        <pt x="230" y="-239" on="1"/>
        <pt x="219" y="-239" on="0"/>
        <pt x="219" y="-228" on="1"/>
        <pt x="219" y="-101" on="1"/>
        <pt x="370" y="-101" on="1"/>
        <pt x="381" y="-101" on="0"/>
        <pt x="381" y="-112" on="1"/>
      </contour>
    </TTGlyph>
    <TTGlyph name="Ograve" xMin="57" yMin="-20" xMax="542" yMax="955">
      <contour>
        <pt x="359" y="775" on="1"/>
        <pt x="252" y="775" on="1"/>
        <pt x="241" y="775" on="0"/>
        <pt x="236" y="782" on="1"/>
        <pt x="202" y="820" on="0"/>
        <pt x="157" y="869" on="0"/>
        <pt x="119" y="913" on="0"/>
        <pt x="94" y="941" on="1"/>
        <pt x="90" y="946" on="0"/>
        <pt x="94" y="955" on="0"/>
        <pt x="100" y="955" on="1"/>
        <pt x="252" y="955" on="1"/>
        <pt x="279" y="909" on="0"/>
        <pt x="332" y="821" on="0"/>
      </contour>
      <contour>
        <pt x="303" y="-20" on="1"/>
        <pt x="302" y="-20" on="0"/>
        <pt x="302" y="-20" on="1"/>
        <pt x="185" y="-20" on="0"/>
        <pt x="57" y="109" on="0"/>
        <pt x="57" y="232" on="1"/>
        <pt x="57" y="461" on="1"/>
        <pt x="57" y="545" on="0"/>
        <pt x="119" y="660" on="0"/>
        <pt x="228" y="720" on="0"/>
        <pt x="296" y="720" on="1"/>
        <pt x="414" y="720" on="0"/>
        <pt x="542" y="591" on="0"/>
        <pt x="542" y="469" on="1"/>
        <pt x="542" y="239" on="1"/>
        <pt x="542" y="156" on="0"/>
        <pt x="480" y="40" on="0"/>
        <pt x="372" y="-20" on="0"/>
      </contour>
      <contour>
        <pt x="190" y="232" on="1"/>
        <pt x="190" y="172" on="0"/>
        <pt x="237" y="106" on="0"/>
        <pt x="300" y="106" on="1"/>
        <pt x="351" y="106" on="0"/>
        <pt x="409" y="171" on="0"/>
        <pt x="409" y="241" on="1"/>
        <pt x="409" y="468" on="1"/>
        <pt x="409" y="528" on="0"/>
        <pt x="363" y="594" on="0"/>
        <pt x="299" y="594" on="1"/>
        <pt x="249" y="594" on="0"/>
        <pt x="190" y="529" on="0"/>
        <pt x="190" y="459" on="1"/>
      </contour>
    </TTGlyph>
    <TTGlyph name="Ohungarumlaut" xMin="57" yMin="-20" xMax="653" yMax="963">
      <contour>
        <pt x="244" y="783" on="1"/>
        <pt x="137" y="783" on="1"/>
        <pt x="164" y="829" on="0"/>
        <pt x="217" y="917" on="0"/>
        <pt x="244" y="963" on="1"/>
        <pt x="396" y="963" on="1"/>
        <pt x="402" y="963" on="0"/>
        <pt x="407" y="954" on="0"/>
        <pt x="402" y="949" on="1"/>
        <pt x="377" y="921" on="0"/>
        <pt x="339" y="877" on="0"/>
        <pt x="295" y="828" on="0"/>
        <pt x="260" y="790" on="1"/>
        <pt x="255" y="783" on="0"/>
      </contour>
      <contour>
        <pt x="490" y="783" on="1"/>
        <pt x="384" y="783" on="1"/>
        <pt x="410" y="829" on="0"/>
        <pt x="463" y="917" on="0"/>
        <pt x="490" y="963" on="1"/>
        <pt x="643" y="963" on="1"/>
        <pt x="649" y="963" on="0"/>
        <pt x="653" y="954" on="0"/>
        <pt x="649" y="949" on="1"/>
        <pt x="624" y="921" on="0"/>
        <pt x="585" y="877" on="0"/>
        <pt x="541" y="828" on="0"/>
        <pt x="506" y="790" on="1"/>
        <pt x="501" y="783" on="0"/>
      </contour>
      <contour>
        <pt x="303" y="-20" on="1"/>
        <pt x="302" y="-20" on="0"/>
        <pt x="302" y="-20" on="1"/>
        <pt x="185" y="-20" on="0"/>
        <pt x="57" y="109" on="0"/>
        <pt x="57" y="232" on="1"/>
        <pt x="57" y="461" on="1"/>
        <pt x="57" y="545" on="0"/>
        <pt x="119" y="660" on="0"/>
        <pt x="228" y="720" on="0"/>
        <pt x="296" y="720" on="1"/>
        <pt x="414" y="720" on="0"/>
        <pt x="542" y="591" on="0"/>
        <pt x="542" y="469" on="1"/>
        <pt x="542" y="239" on="1"/>
        <pt x="542" y="156" on="0"/>
        <pt x="480" y="40" on="0"/>
        <pt x="372" y="-20" on="0"/>
      </contour>
      <contour>
        <pt x="190" y="232" on="1"/>
        <pt x="190" y="172" on="0"/>
        <pt x="237" y="106" on="0"/>
        <pt x="300" y="106" on="1"/>
        <pt x="351" y="106" on="0"/>
        <pt x="409" y="171" on="0"/>
        <pt x="409" y="241" on="1"/>
        <pt x="409" y="468" on="1"/>
        <pt x="409" y="528" on="0"/>
        <pt x="363" y="594" on="0"/>
        <pt x="299" y="594" on="1"/>
        <pt x="249" y="594" on="0"/>
        <pt x="190" y="529" on="0"/>
        <pt x="190" y="459" on="1"/>
      </contour>
    </TTGlyph>
    <TTGlyph name="Omacron" xMin="57" yMin="-20" xMax="542" yMax="912">
      <contour>
        <pt x="121" y="912" on="1"/>
        <pt x="468" y="912" on="1"/>
        <pt x="479" y="912" on="0"/>
        <pt x="479" y="901" on="1"/>
        <pt x="479" y="801" on="1"/>
        <pt x="132" y="801" on="1"/>
        <pt x="121" y="801" on="0"/>
        <pt x="121" y="812" on="1"/>
      </contour>
      <contour>
        <pt x="303" y="-20" on="1"/>
        <pt x="302" y="-20" on="0"/>
        <pt x="302" y="-20" on="1"/>
        <pt x="185" y="-20" on="0"/>
        <pt x="57" y="109" on="0"/>
        <pt x="57" y="232" on="1"/>
        <pt x="57" y="461" on="1"/>
        <pt x="57" y="545" on="0"/>
        <pt x="119" y="660" on="0"/>
        <pt x="228" y="720" on="0"/>
        <pt x="296" y="720" on="1"/>
        <pt x="414" y="720" on="0"/>
        <pt x="542" y="591" on="0"/>
        <pt x="542" y="469" on="1"/>
        <pt x="542" y="239" on="1"/>
        <pt x="542" y="156" on="0"/>
        <pt x="480" y="40" on="0"/>
        <pt x="372" y="-20" on="0"/>
      </contour>
      <contour>
        <pt x="190" y="232" on="1"/>
        <pt x="190" y="172" on="0"/>
        <pt x="237" y="106" on="0"/>
        <pt x="300" y="106" on="1"/>
        <pt x="351" y="106" on="0"/>
        <pt x="409" y="171" on="0"/>
        <pt x="409" y="241" on="1"/>
        <pt x="409" y="468" on="1"/>
        <pt x="409" y="528" on="0"/>
        <pt x="363" y="594" on="0"/>
        <pt x="299" y="594" on="1"/>
        <pt x="249" y="594" on="0"/>
        <pt x="190" y="529" on="0"/>
        <pt x="190" y="459" on="1"/>
      </contour>
    </TTGlyph>
    <TTGlyph name="Oogonek" xMin="57" yMin="-240" xMax="542" yMax="720">
      <contour>
        <pt x="178" y="-115" on="1"/>
        <pt x="178" y="-83" on="0"/>
        <pt x="200" y="-30" on="0"/>
        <pt x="219" y="-10" on="1"/>
        <pt x="141" y="11" on="0"/>
        <pt x="57" y="133" on="0"/>
        <pt x="57" y="232" on="1"/>
        <pt x="57" y="461" on="1"/>
        <pt x="57" y="545" on="0"/>
        <pt x="119" y="660" on="0"/>
        <pt x="228" y="720" on="0"/>
        <pt x="296" y="720" on="1"/>
        <pt x="414" y="720" on="0"/>
        <pt x="542" y="591" on="0"/>
        <pt x="542" y="469" on="1"/>
        <pt x="542" y="239" on="1"/>
        <pt x="542" y="127" on="0"/>
        <pt x="431" y="-5" on="0"/>
        <pt x="344" y="-17" on="1"/>
        <pt x="296" y="-39" on="0"/>
        <pt x="296" y="-76" on="1"/>
        <pt x="296" y="-113" on="0"/>
        <pt x="339" y="-113" on="1"/>
        <pt x="353" y="-113" on="0"/>
        <pt x="377" y="-105" on="0"/>
        <pt x="387" y="-98" on="1"/>
        <pt x="406" y="-98" on="1"/>
        <pt x="406" y="-206" on="1"/>
        <pt x="406" y="-220" on="0"/>
        <pt x="358" y="-240" on="0"/>
        <pt x="324" y="-240" on="1"/>
        <pt x="256" y="-240" on="0"/>
        <pt x="178" y="-174" on="0"/>
      </contour>
      <contour>
        <pt x="190" y="232" on="1"/>
        <pt x="190" y="172" on="0"/>
        <pt x="237" y="106" on="0"/>
        <pt x="300" y="106" on="1"/>
        <pt x="351" y="106" on="0"/>
        <pt x="409" y="171" on="0"/>
        <pt x="409" y="241" on="1"/>
        <pt x="409" y="468" on="1"/>
        <pt x="409" y="528" on="0"/>
        <pt x="363" y="594" on="0"/>
        <pt x="299" y="594" on="1"/>
        <pt x="249" y="594" on="0"/>
        <pt x="190" y="529" on="0"/>
        <pt x="190" y="459" on="1"/>
      </contour>
    </TTGlyph>
    <TTGlyph name="Oslash" xMin="38" yMin="-76" xMax="561" yMax="776">
      <contour>
        <pt x="561" y="776" on="1"/>
        <pt x="527" y="707" on="0"/>
        <pt x="493" y="639" on="1"/>
        <pt x="542" y="575" on="0"/>
        <pt x="542" y="469" on="1"/>
        <pt x="542" y="239" on="1"/>
        <pt x="542" y="156" on="0"/>
        <pt x="480" y="40" on="0"/>
        <pt x="372" y="-20" on="0"/>
        <pt x="303" y="-20" on="1"/>
        <pt x="239" y="-20" on="0"/>
        <pt x="191" y="-1" on="1"/>
        <pt x="183" y="-18" on="0"/>
        <pt x="167" y="-50" on="0"/>
        <pt x="161" y="-64" on="1"/>
        <pt x="157" y="-73" on="0"/>
        <pt x="151" y="-76" on="0"/>
        <pt x="144" y="-76" on="1"/>
        <pt x="38" y="-76" on="1"/>
        <pt x="47" y="-57" on="0"/>
        <pt x="71" y="-6" on="0"/>
        <pt x="95" y="45" on="0"/>
        <pt x="104" y="64" on="1"/>
        <pt x="57" y="128" on="0"/>
        <pt x="57" y="232" on="1"/>
        <pt x="57" y="461" on="1"/>
        <pt x="57" y="545" on="0"/>
        <pt x="119" y="660" on="0"/>
        <pt x="227" y="720" on="0"/>
        <pt x="296" y="720" on="1"/>
        <pt x="359" y="720" on="0"/>
        <pt x="407" y="701" on="1"/>
        <pt x="414" y="717" on="0"/>
        <pt x="427" y="745" on="0"/>
        <pt x="432" y="757" on="1"/>
        <pt x="438" y="770" on="0"/>
        <pt x="446" y="776" on="0"/>
        <pt x="456" y="776" on="1"/>
      </contour>
      <contour>
        <pt x="186" y="227" on="1"/>
        <pt x="186" y="221" on="0"/>
        <pt x="186" y="216" on="1"/>
        <pt x="229" y="310" on="0"/>
        <pt x="319" y="509" on="0"/>
        <pt x="357" y="593" on="1"/>
        <pt x="334" y="603" on="0"/>
        <pt x="299" y="603" on="1"/>
        <pt x="247" y="603" on="0"/>
        <pt x="186" y="536" on="0"/>
        <pt x="186" y="463" on="1"/>
      </contour>
      <contour>
        <pt x="413" y="473" on="1"/>
        <pt x="413" y="478" on="1"/>
        <pt x="369" y="389" on="0"/>
        <pt x="296" y="241" on="0"/>
        <pt x="244" y="136" on="0"/>
        <pt x="232" y="112" on="1"/>
        <pt x="258" y="97" on="0"/>
        <pt x="300" y="97" on="1"/>
        <pt x="353" y="97" on="0"/>
        <pt x="413" y="164" on="0"/>
        <pt x="413" y="237" on="1"/>
      </contour>
    </TTGlyph>
    <TTGlyph name="Oslashacute" xMin="38" yMin="-76" xMax="561" yMax="955">
      <contour>
        <pt x="347" y="775" on="1"/>
        <pt x="240" y="775" on="1"/>
        <pt x="267" y="821" on="0"/>
        <pt x="320" y="909" on="0"/>
        <pt x="347" y="955" on="1"/>
        <pt x="499" y="955" on="1"/>
        <pt x="505" y="955" on="0"/>
        <pt x="510" y="945" on="0"/>
        <pt x="506" y="940" on="1"/>
        <pt x="481" y="912" on="0"/>
        <pt x="442" y="869" on="0"/>
        <pt x="398" y="819" on="0"/>
        <pt x="363" y="781" on="1"/>
        <pt x="357" y="775" on="0"/>
      </contour>
      <contour>
        <pt x="561" y="776" on="1"/>
        <pt x="527" y="707" on="0"/>
        <pt x="493" y="639" on="1"/>
        <pt x="542" y="575" on="0"/>
        <pt x="542" y="469" on="1"/>
        <pt x="542" y="239" on="1"/>
        <pt x="542" y="156" on="0"/>
        <pt x="480" y="40" on="0"/>
        <pt x="372" y="-20" on="0"/>
        <pt x="303" y="-20" on="1"/>
        <pt x="239" y="-20" on="0"/>
        <pt x="191" y="-1" on="1"/>
        <pt x="183" y="-18" on="0"/>
        <pt x="167" y="-50" on="0"/>
        <pt x="161" y="-64" on="1"/>
        <pt x="157" y="-73" on="0"/>
        <pt x="151" y="-76" on="0"/>
        <pt x="144" y="-76" on="1"/>
        <pt x="38" y="-76" on="1"/>
        <pt x="47" y="-57" on="0"/>
        <pt x="71" y="-6" on="0"/>
        <pt x="95" y="45" on="0"/>
        <pt x="104" y="64" on="1"/>
        <pt x="57" y="128" on="0"/>
        <pt x="57" y="232" on="1"/>
        <pt x="57" y="461" on="1"/>
        <pt x="57" y="545" on="0"/>
        <pt x="119" y="660" on="0"/>
        <pt x="227" y="720" on="0"/>
        <pt x="296" y="720" on="1"/>
        <pt x="359" y="720" on="0"/>
        <pt x="407" y="701" on="1"/>
        <pt x="414" y="717" on="0"/>
        <pt x="427" y="745" on="0"/>
        <pt x="432" y="757" on="1"/>
        <pt x="438" y="770" on="0"/>
        <pt x="446" y="776" on="0"/>
        <pt x="456" y="776" on="1"/>
      </contour>
      <contour>
        <pt x="186" y="227" on="1"/>
        <pt x="186" y="221" on="0"/>
        <pt x="186" y="216" on="1"/>
        <pt x="229" y="310" on="0"/>
        <pt x="319" y="509" on="0"/>
        <pt x="357" y="593" on="1"/>
        <pt x="334" y="603" on="0"/>
        <pt x="299" y="603" on="1"/>
        <pt x="247" y="603" on="0"/>
        <pt x="186" y="536" on="0"/>
        <pt x="186" y="463" on="1"/>
      </contour>
      <contour>
        <pt x="413" y="473" on="1"/>
        <pt x="413" y="478" on="1"/>
        <pt x="369" y="389" on="0"/>
        <pt x="296" y="241" on="0"/>
        <pt x="244" y="136" on="0"/>
        <pt x="232" y="112" on="1"/>
        <pt x="258" y="97" on="0"/>
        <pt x="300" y="97" on="1"/>
        <pt x="353" y="97" on="0"/>
        <pt x="413" y="164" on="0"/>
        <pt x="413" y="237" on="1"/>
      </contour>
    </TTGlyph>
    <TTGlyph name="Otilde" xMin="57" yMin="-20" xMax="542" yMax="954">
      <contour>
        <pt x="406" y="897" on="1"/>
        <pt x="453" y="897" on="0"/>
        <pt x="483" y="938" on="1"/>
        <pt x="502" y="938" on="1"/>
        <pt x="502" y="830" on="1"/>
        <pt x="502" y="822" on="0"/>
        <pt x="500" y="813" on="0"/>
        <pt x="495" y="808" on="1"/>
        <pt x="479" y="792" on="0"/>
        <pt x="434" y="771" on="0"/>
        <pt x="401" y="771" on="1"/>
        <pt x="358" y="771" on="0"/>
        <pt x="291" y="799" on="0"/>
        <pt x="229" y="828" on="0"/>
        <pt x="194" y="828" on="1"/>
        <pt x="147" y="828" on="0"/>
        <pt x="117" y="787" on="1"/>
        <pt x="98" y="787" on="1"/>
        <pt x="98" y="895" on="1"/>
        <pt x="98" y="903" on="0"/>
        <pt x="100" y="911" on="0"/>
        <pt x="105" y="917" on="1"/>
        <pt x="121" y="934" on="0"/>
        <pt x="166" y="954" on="0"/>
        <pt x="199" y="954" on="1"/>
        <pt x="242" y="954" on="0"/>
        <pt x="309" y="925" on="0"/>
        <pt x="371" y="897" on="0"/>
      </contour>
      <contour>
        <pt x="303" y="-20" on="1"/>
        <pt x="302" y="-20" on="0"/>
        <pt x="302" y="-20" on="1"/>
        <pt x="185" y="-20" on="0"/>
        <pt x="57" y="109" on="0"/>
        <pt x="57" y="232" on="1"/>
        <pt x="57" y="461" on="1"/>
        <pt x="57" y="545" on="0"/>
        <pt x="119" y="660" on="0"/>
        <pt x="228" y="720" on="0"/>
        <pt x="296" y="720" on="1"/>
        <pt x="414" y="720" on="0"/>
        <pt x="542" y="591" on="0"/>
        <pt x="542" y="469" on="1"/>
        <pt x="542" y="239" on="1"/>
        <pt x="542" y="156" on="0"/>
        <pt x="480" y="40" on="0"/>
        <pt x="372" y="-20" on="0"/>
      </contour>
      <contour>
        <pt x="190" y="232" on="1"/>
        <pt x="190" y="172" on="0"/>
        <pt x="237" y="106" on="0"/>
        <pt x="300" y="106" on="1"/>
        <pt x="351" y="106" on="0"/>
        <pt x="409" y="171" on="0"/>
        <pt x="409" y="241" on="1"/>
        <pt x="409" y="468" on="1"/>
        <pt x="409" y="528" on="0"/>
        <pt x="363" y="594" on="0"/>
        <pt x="299" y="594" on="1"/>
        <pt x="249" y="594" on="0"/>
        <pt x="190" y="529" on="0"/>
        <pt x="190" y="459" on="1"/>
      </contour>
    </TTGlyph>
    <TTGlyph name="P" xMin="38" yMin="0" xMax="543" yMax="700">
      <contour>
        <pt x="216" y="0" on="1"/>
        <pt x="90" y="0" on="1"/>
        <pt x="85" y="0" on="0"/>
        <pt x="82" y="3" on="1"/>
        <pt x="79" y="6" on="0"/>
        <pt x="79" y="11" on="1"/>
        <pt x="79" y="574" on="1"/>
        <pt x="49" y="574" on="1"/>
        <pt x="44" y="574" on="0"/>
        <pt x="41" y="577" on="1"/>
        <pt x="38" y="580" on="0"/>
        <pt x="38" y="585" on="1"/>
        <pt x="38" y="700" on="1"/>
        <pt x="305" y="700" on="1"/>
        <pt x="429" y="700" on="0"/>
        <pt x="543" y="591" on="0"/>
        <pt x="543" y="489" on="1"/>
        <pt x="543" y="422" on="1"/>
        <pt x="543" y="325" on="0"/>
        <pt x="430" y="216" on="0"/>
        <pt x="331" y="216" on="1"/>
        <pt x="216" y="216" on="1"/>
      </contour>
      <contour>
        <pt x="310" y="574" on="1"/>
        <pt x="216" y="574" on="1"/>
        <pt x="216" y="342" on="1"/>
        <pt x="323" y="342" on="1"/>
        <pt x="360" y="342" on="0"/>
        <pt x="402" y="386" on="0"/>
        <pt x="402" y="423" on="1"/>
        <pt x="402" y="489" on="1"/>
        <pt x="402" y="537" on="0"/>
        <pt x="360" y="574" on="0"/>
      </contour>
    </TTGlyph>
    <TTGlyph name="Q" xMin="57" yMin="-158" xMax="570" yMax="720">
      <contour>
        <pt x="303" y="-20" on="1"/>
        <pt x="302" y="-20" on="0"/>
        <pt x="302" y="-20" on="1"/>
        <pt x="185" y="-20" on="0"/>
        <pt x="57" y="109" on="0"/>
        <pt x="57" y="232" on="1"/>
        <pt x="57" y="461" on="1"/>
        <pt x="57" y="545" on="0"/>
        <pt x="119" y="660" on="0"/>
        <pt x="228" y="720" on="0"/>
        <pt x="296" y="720" on="1"/>
        <pt x="414" y="720" on="0"/>
        <pt x="542" y="591" on="0"/>
        <pt x="542" y="469" on="1"/>
        <pt x="542" y="239" on="1"/>
        <pt x="542" y="176" on="0"/>
        <pt x="506" y="79" on="0"/>
        <pt x="473" y="46" on="1"/>
        <pt x="495" y="10" on="1"/>
        <pt x="506" y="-8" on="0"/>
        <pt x="526" y="-17" on="0"/>
        <pt x="548" y="-17" on="1"/>
        <pt x="570" y="-17" on="1"/>
        <pt x="570" y="-147" on="1"/>
        <pt x="570" y="-158" on="0"/>
        <pt x="559" y="-158" on="1"/>
        <pt x="529" y="-158" on="1"/>
        <pt x="477" y="-158" on="0"/>
        <pt x="424" y="-123" on="0"/>
        <pt x="398" y="-81" on="1"/>
        <pt x="356" y="-15" on="1"/>
        <pt x="331" y="-20" on="0"/>
      </contour>
      <contour>
        <pt x="190" y="232" on="1"/>
        <pt x="190" y="172" on="0"/>
        <pt x="237" y="106" on="0"/>
        <pt x="300" y="106" on="1"/>
        <pt x="351" y="106" on="0"/>
        <pt x="409" y="171" on="0"/>
        <pt x="409" y="241" on="1"/>
        <pt x="409" y="468" on="1"/>
        <pt x="409" y="528" on="0"/>
        <pt x="363" y="594" on="0"/>
        <pt x="299" y="594" on="1"/>
        <pt x="248" y="594" on="0"/>
        <pt x="190" y="529" on="0"/>
        <pt x="190" y="459" on="1"/>
      </contour>
    </TTGlyph>
    <TTGlyph name="R" xMin="38" yMin="-8" xMax="560" yMax="700">
      <contour>
        <pt x="216" y="0" on="1"/>
        <pt x="90" y="0" on="1"/>
        <pt x="85" y="0" on="0"/>
        <pt x="82" y="3" on="1"/>
        <pt x="79" y="6" on="0"/>
        <pt x="79" y="11" on="1"/>
        <pt x="79" y="574" on="1"/>
        <pt x="49" y="574" on="1"/>
        <pt x="44" y="574" on="0"/>
        <pt x="41" y="577" on="1"/>
        <pt x="38" y="580" on="0"/>
        <pt x="38" y="585" on="1"/>
        <pt x="38" y="700" on="1"/>
        <pt x="305" y="700" on="1"/>
        <pt x="423" y="700" on="0"/>
        <pt x="532" y="594" on="0"/>
        <pt x="532" y="495" on="1"/>
        <pt x="532" y="439" on="1"/>
        <pt x="532" y="374" on="0"/>
        <pt x="477" y="284" on="0"/>
        <pt x="427" y="262" on="1"/>
        <pt x="486" y="156" on="1"/>
        <pt x="497" y="136" on="0"/>
        <pt x="518" y="124" on="0"/>
        <pt x="540" y="124" on="1"/>
        <pt x="560" y="124" on="1"/>
        <pt x="560" y="3" on="1"/>
        <pt x="560" y="-8" on="0"/>
        <pt x="549" y="-8" on="1"/>
        <pt x="513" y="-8" on="1"/>
        <pt x="462" y="-8" on="0"/>
        <pt x="405" y="24" on="0"/>
        <pt x="383" y="67" on="1"/>
        <pt x="292" y="243" on="1"/>
        <pt x="216" y="243" on="1"/>
      </contour>
      <contour>
        <pt x="308" y="574" on="1"/>
        <pt x="216" y="574" on="1"/>
        <pt x="216" y="361" on="1"/>
        <pt x="308" y="361" on="1"/>
        <pt x="392" y="361" on="0"/>
        <pt x="392" y="439" on="1"/>
        <pt x="392" y="496" on="1"/>
        <pt x="392" y="574" on="0"/>
      </contour>
    </TTGlyph>
    <TTGlyph name="Racute" xMin="38" yMin="-8" xMax="560" yMax="955">
      <contour>
        <pt x="347" y="775" on="1"/>
        <pt x="240" y="775" on="1"/>
        <pt x="267" y="821" on="0"/>
        <pt x="320" y="909" on="0"/>
        <pt x="347" y="955" on="1"/>
        <pt x="499" y="955" on="1"/>
        <pt x="505" y="955" on="0"/>
        <pt x="510" y="945" on="0"/>
        <pt x="506" y="940" on="1"/>
        <pt x="481" y="912" on="0"/>
        <pt x="442" y="869" on="0"/>
        <pt x="398" y="819" on="0"/>
        <pt x="363" y="781" on="1"/>
        <pt x="357" y="775" on="0"/>
      </contour>
      <contour>
        <pt x="216" y="0" on="1"/>
        <pt x="90" y="0" on="1"/>
        <pt x="85" y="0" on="0"/>
        <pt x="82" y="3" on="1"/>
        <pt x="79" y="6" on="0"/>
        <pt x="79" y="11" on="1"/>
        <pt x="79" y="574" on="1"/>
        <pt x="49" y="574" on="1"/>
        <pt x="44" y="574" on="0"/>
        <pt x="41" y="577" on="1"/>
        <pt x="38" y="580" on="0"/>
        <pt x="38" y="585" on="1"/>
        <pt x="38" y="700" on="1"/>
        <pt x="305" y="700" on="1"/>
        <pt x="423" y="700" on="0"/>
        <pt x="532" y="594" on="0"/>
        <pt x="532" y="495" on="1"/>
        <pt x="532" y="439" on="1"/>
        <pt x="532" y="374" on="0"/>
        <pt x="477" y="284" on="0"/>
        <pt x="427" y="262" on="1"/>
        <pt x="486" y="156" on="1"/>
        <pt x="497" y="136" on="0"/>
        <pt x="518" y="124" on="0"/>
        <pt x="540" y="124" on="1"/>
        <pt x="560" y="124" on="1"/>
        <pt x="560" y="3" on="1"/>
        <pt x="560" y="-8" on="0"/>
        <pt x="549" y="-8" on="1"/>
        <pt x="513" y="-8" on="1"/>
        <pt x="462" y="-8" on="0"/>
        <pt x="405" y="24" on="0"/>
        <pt x="383" y="67" on="1"/>
        <pt x="292" y="243" on="1"/>
        <pt x="216" y="243" on="1"/>
      </contour>
      <contour>
        <pt x="308" y="574" on="1"/>
        <pt x="216" y="574" on="1"/>
        <pt x="216" y="361" on="1"/>
        <pt x="308" y="361" on="1"/>
        <pt x="392" y="361" on="0"/>
        <pt x="392" y="439" on="1"/>
        <pt x="392" y="496" on="1"/>
        <pt x="392" y="574" on="0"/>
      </contour>
    </TTGlyph>
    <TTGlyph name="Rcaron" xMin="38" yMin="-8" xMax="560" yMax="946">
      <contour>
        <pt x="57" y="946" on="1"/>
        <pt x="174" y="946" on="1"/>
        <pt x="185" y="946" on="0"/>
        <pt x="197" y="942" on="0"/>
        <pt x="204" y="936" on="1"/>
        <pt x="216" y="927" on="0"/>
        <pt x="267" y="884" on="0"/>
        <pt x="299" y="857" on="1"/>
        <pt x="329" y="882" on="0"/>
        <pt x="382" y="926" on="0"/>
        <pt x="407" y="946" on="1"/>
        <pt x="519" y="946" on="1"/>
        <pt x="530" y="946" on="0"/>
        <pt x="530" y="939" on="1"/>
        <pt x="530" y="935" on="0"/>
        <pt x="524" y="927" on="0"/>
        <pt x="511" y="914" on="1"/>
        <pt x="500" y="903" on="0"/>
        <pt x="462" y="865" on="0"/>
        <pt x="419" y="822" on="0"/>
        <pt x="382" y="785" on="0"/>
        <pt x="372" y="775" on="1"/>
        <pt x="238" y="775" on="1"/>
        <pt x="231" y="775" on="0"/>
        <pt x="220" y="782" on="0"/>
        <pt x="207" y="795" on="1"/>
        <pt x="200" y="802" on="0"/>
        <pt x="165" y="837" on="0"/>
        <pt x="121" y="882" on="0"/>
        <pt x="75" y="928" on="0"/>
      </contour>
      <contour>
        <pt x="216" y="0" on="1"/>
        <pt x="90" y="0" on="1"/>
        <pt x="85" y="0" on="0"/>
        <pt x="82" y="3" on="1"/>
        <pt x="79" y="6" on="0"/>
        <pt x="79" y="11" on="1"/>
        <pt x="79" y="574" on="1"/>
        <pt x="49" y="574" on="1"/>
        <pt x="44" y="574" on="0"/>
        <pt x="41" y="577" on="1"/>
        <pt x="38" y="580" on="0"/>
        <pt x="38" y="585" on="1"/>
        <pt x="38" y="700" on="1"/>
        <pt x="305" y="700" on="1"/>
        <pt x="423" y="700" on="0"/>
        <pt x="532" y="594" on="0"/>
        <pt x="532" y="495" on="1"/>
        <pt x="532" y="439" on="1"/>
        <pt x="532" y="374" on="0"/>
        <pt x="477" y="284" on="0"/>
        <pt x="427" y="262" on="1"/>
        <pt x="486" y="156" on="1"/>
        <pt x="497" y="136" on="0"/>
        <pt x="518" y="124" on="0"/>
        <pt x="540" y="124" on="1"/>
        <pt x="560" y="124" on="1"/>
        <pt x="560" y="3" on="1"/>
        <pt x="560" y="-8" on="0"/>
        <pt x="549" y="-8" on="1"/>
        <pt x="513" y="-8" on="1"/>
        <pt x="462" y="-8" on="0"/>
        <pt x="405" y="24" on="0"/>
        <pt x="383" y="67" on="1"/>
        <pt x="292" y="243" on="1"/>
        <pt x="216" y="243" on="1"/>
      </contour>
      <contour>
        <pt x="308" y="574" on="1"/>
        <pt x="216" y="574" on="1"/>
        <pt x="216" y="361" on="1"/>
        <pt x="308" y="361" on="1"/>
        <pt x="392" y="361" on="0"/>
        <pt x="392" y="439" on="1"/>
        <pt x="392" y="496" on="1"/>
        <pt x="392" y="574" on="0"/>
      </contour>
    </TTGlyph>
    <TTGlyph name="Rcommaaccent" xMin="38" yMin="-249" xMax="560" yMax="700">
      <contour>
        <pt x="216" y="0" on="1"/>
        <pt x="90" y="0" on="1"/>
        <pt x="85" y="0" on="0"/>
        <pt x="82" y="3" on="1"/>
        <pt x="79" y="6" on="0"/>
        <pt x="79" y="11" on="1"/>
        <pt x="79" y="574" on="1"/>
        <pt x="49" y="574" on="1"/>
        <pt x="44" y="574" on="0"/>
        <pt x="41" y="577" on="1"/>
        <pt x="38" y="580" on="0"/>
        <pt x="38" y="585" on="1"/>
        <pt x="38" y="700" on="1"/>
        <pt x="305" y="700" on="1"/>
        <pt x="423" y="700" on="0"/>
        <pt x="532" y="594" on="0"/>
        <pt x="532" y="495" on="1"/>
        <pt x="532" y="439" on="1"/>
        <pt x="532" y="374" on="0"/>
        <pt x="477" y="284" on="0"/>
        <pt x="427" y="262" on="1"/>
        <pt x="486" y="156" on="1"/>
        <pt x="497" y="136" on="0"/>
        <pt x="518" y="124" on="0"/>
        <pt x="540" y="124" on="1"/>
        <pt x="560" y="124" on="1"/>
        <pt x="560" y="3" on="1"/>
        <pt x="560" y="-8" on="0"/>
        <pt x="549" y="-8" on="1"/>
        <pt x="513" y="-8" on="1"/>
        <pt x="462" y="-8" on="0"/>
        <pt x="405" y="24" on="0"/>
        <pt x="383" y="67" on="1"/>
        <pt x="292" y="243" on="1"/>
        <pt x="216" y="243" on="1"/>
      </contour>
      <contour>
        <pt x="308" y="574" on="1"/>
        <pt x="216" y="574" on="1"/>
        <pt x="216" y="361" on="1"/>
        <pt x="308" y="361" on="1"/>
        <pt x="392" y="361" on="0"/>
        <pt x="392" y="439" on="1"/>
        <pt x="392" y="496" on="1"/>
        <pt x="392" y="574" on="0"/>
      </contour>
      <contour>
        <pt x="312" y="-249" on="1"/>
        <pt x="207" y="-249" on="1"/>
        <pt x="218" y="-199" on="0"/>
        <pt x="236" y="-107" on="0"/>
        <pt x="246" y="-62" on="1"/>
        <pt x="378" y="-62" on="1"/>
        <pt x="384" y="-62" on="0"/>
        <pt x="391" y="-69" on="0"/>
        <pt x="389" y="-75" on="1"/>
        <pt x="373" y="-118" on="0"/>
        <pt x="344" y="-193" on="0"/>
        <pt x="327" y="-239" on="1"/>
        <pt x="326" y="-243" on="0"/>
        <pt x="319" y="-249" on="0"/>
      </contour>
    </TTGlyph>
    <TTGlyph name="S" xMin="63" yMin="-19" xMax="543" yMax="719">
      <contour>
        <pt x="282" y="-19" on="1"/>
        <pt x="210" y="-19" on="0"/>
        <pt x="93" y="11" on="0"/>
        <pt x="66" y="38" on="1"/>
        <pt x="63" y="41" on="0"/>
        <pt x="63" y="46" on="1"/>
        <pt x="63" y="171" on="1"/>
        <pt x="82" y="171" on="1"/>
        <pt x="127" y="139" on="0"/>
        <pt x="225" y="109" on="0"/>
        <pt x="292" y="109" on="1"/>
        <pt x="355" y="109" on="0"/>
        <pt x="412" y="149" on="0"/>
        <pt x="412" y="176" on="1"/>
        <pt x="412" y="206" on="1"/>
        <pt x="412" y="223" on="0"/>
        <pt x="401" y="248" on="0"/>
        <pt x="367" y="268" on="0"/>
        <pt x="330" y="279" on="1"/>
        <pt x="235" y="308" on="1"/>
        <pt x="169" y="329" on="0"/>
        <pt x="98" y="386" on="0"/>
        <pt x="71" y="451" on="0"/>
        <pt x="71" y="481" on="1"/>
        <pt x="71" y="527" on="1"/>
        <pt x="71" y="581" on="0"/>
        <pt x="135" y="668" on="0"/>
        <pt x="247" y="719" on="0"/>
        <pt x="319" y="719" on="1"/>
        <pt x="395" y="719" on="0"/>
        <pt x="498" y="690" on="0"/>
        <pt x="514" y="673" on="1"/>
        <pt x="520" y="667" on="0"/>
        <pt x="520" y="654" on="1"/>
        <pt x="520" y="508" on="1"/>
        <pt x="402" y="508" on="1"/>
        <pt x="397" y="508" on="0"/>
        <pt x="395" y="510" on="1"/>
        <pt x="392" y="512" on="0"/>
        <pt x="392" y="519" on="1"/>
        <pt x="392" y="590" on="1"/>
        <pt x="354" y="597" on="0"/>
        <pt x="321" y="597" on="1"/>
        <pt x="201" y="597" on="0"/>
        <pt x="201" y="520" on="1"/>
        <pt x="201" y="500" on="1"/>
        <pt x="201" y="480" on="0"/>
        <pt x="214" y="454" on="0"/>
        <pt x="252" y="433" on="0"/>
        <pt x="288" y="422" on="1"/>
        <pt x="383" y="393" on="1"/>
        <pt x="475" y="365" on="0"/>
        <pt x="543" y="276" on="0"/>
        <pt x="543" y="217" on="1"/>
        <pt x="543" y="172" on="1"/>
        <pt x="543" y="117" on="0"/>
        <pt x="480" y="30" on="0"/>
        <pt x="364" y="-19" on="0"/>
      </contour>
    </TTGlyph>
    <TTGlyph name="Sacute" xMin="63" yMin="-19" xMax="543" yMax="955">
      <contour>
        <pt x="364" y="775" on="1"/>
        <pt x="257" y="775" on="1"/>
        <pt x="284" y="821" on="0"/>
        <pt x="337" y="909" on="0"/>
        <pt x="364" y="955" on="1"/>
        <pt x="516" y="955" on="1"/>
        <pt x="522" y="955" on="0"/>
        <pt x="527" y="945" on="0"/>
        <pt x="522" y="940" on="1"/>
        <pt x="497" y="912" on="0"/>
        <pt x="459" y="869" on="0"/>
        <pt x="415" y="819" on="0"/>
        <pt x="380" y="781" on="1"/>
        <pt x="374" y="775" on="0"/>
      </contour>
      <contour>
        <pt x="282" y="-19" on="1"/>
        <pt x="210" y="-19" on="0"/>
        <pt x="93" y="11" on="0"/>
        <pt x="66" y="38" on="1"/>
        <pt x="63" y="41" on="0"/>
        <pt x="63" y="46" on="1"/>
        <pt x="63" y="171" on="1"/>
        <pt x="82" y="171" on="1"/>
        <pt x="127" y="139" on="0"/>
        <pt x="225" y="109" on="0"/>
        <pt x="292" y="109" on="1"/>
        <pt x="355" y="109" on="0"/>
        <pt x="412" y="149" on="0"/>
        <pt x="412" y="176" on="1"/>
        <pt x="412" y="206" on="1"/>
        <pt x="412" y="223" on="0"/>
        <pt x="401" y="248" on="0"/>
        <pt x="367" y="268" on="0"/>
        <pt x="330" y="279" on="1"/>
        <pt x="235" y="308" on="1"/>
        <pt x="169" y="329" on="0"/>
        <pt x="98" y="386" on="0"/>
        <pt x="71" y="451" on="0"/>
        <pt x="71" y="481" on="1"/>
        <pt x="71" y="527" on="1"/>
        <pt x="71" y="581" on="0"/>
        <pt x="135" y="668" on="0"/>
        <pt x="247" y="719" on="0"/>
        <pt x="319" y="719" on="1"/>
        <pt x="395" y="719" on="0"/>
        <pt x="498" y="690" on="0"/>
        <pt x="514" y="673" on="1"/>
        <pt x="520" y="667" on="0"/>
        <pt x="520" y="654" on="1"/>
        <pt x="520" y="508" on="1"/>
        <pt x="402" y="508" on="1"/>
        <pt x="397" y="508" on="0"/>
        <pt x="395" y="510" on="1"/>
        <pt x="392" y="512" on="0"/>
        <pt x="392" y="519" on="1"/>
        <pt x="392" y="590" on="1"/>
        <pt x="354" y="597" on="0"/>
        <pt x="321" y="597" on="1"/>
        <pt x="201" y="597" on="0"/>
        <pt x="201" y="520" on="1"/>
        <pt x="201" y="500" on="1"/>
        <pt x="201" y="480" on="0"/>
        <pt x="214" y="454" on="0"/>
        <pt x="252" y="433" on="0"/>
        <pt x="288" y="422" on="1"/>
        <pt x="383" y="393" on="1"/>
        <pt x="475" y="365" on="0"/>
        <pt x="543" y="276" on="0"/>
        <pt x="543" y="217" on="1"/>
        <pt x="543" y="172" on="1"/>
        <pt x="543" y="117" on="0"/>
        <pt x="480" y="30" on="0"/>
        <pt x="364" y="-19" on="0"/>
      </contour>
    </TTGlyph>
    <TTGlyph name="Scaron" xMin="63" yMin="-19" xMax="547" yMax="946">
      <contour>
        <pt x="73" y="946" on="1"/>
        <pt x="191" y="946" on="1"/>
        <pt x="202" y="946" on="0"/>
        <pt x="213" y="942" on="0"/>
        <pt x="220" y="936" on="1"/>
        <pt x="232" y="927" on="0"/>
        <pt x="283" y="884" on="0"/>
        <pt x="316" y="857" on="1"/>
        <pt x="346" y="882" on="0"/>
        <pt x="399" y="926" on="0"/>
        <pt x="423" y="946" on="1"/>
        <pt x="536" y="946" on="1"/>
        <pt x="547" y="946" on="0"/>
        <pt x="547" y="939" on="1"/>
        <pt x="547" y="935" on="0"/>
        <pt x="541" y="927" on="0"/>
        <pt x="528" y="914" on="1"/>
        <pt x="517" y="903" on="0"/>
        <pt x="479" y="865" on="0"/>
        <pt x="436" y="822" on="0"/>
        <pt x="399" y="785" on="0"/>
        <pt x="389" y="775" on="1"/>
        <pt x="255" y="775" on="1"/>
        <pt x="248" y="775" on="0"/>
        <pt x="237" y="782" on="0"/>
        <pt x="224" y="795" on="1"/>
      </contour>
      <contour>
        <pt x="282" y="-19" on="1"/>
        <pt x="210" y="-19" on="0"/>
        <pt x="93" y="11" on="0"/>
        <pt x="66" y="38" on="1"/>
        <pt x="63" y="41" on="0"/>
        <pt x="63" y="46" on="1"/>
        <pt x="63" y="171" on="1"/>
        <pt x="82" y="171" on="1"/>
        <pt x="127" y="139" on="0"/>
        <pt x="225" y="109" on="0"/>
        <pt x="292" y="109" on="1"/>
        <pt x="355" y="109" on="0"/>
        <pt x="412" y="149" on="0"/>
        <pt x="412" y="176" on="1"/>
        <pt x="412" y="206" on="1"/>
        <pt x="412" y="223" on="0"/>
        <pt x="401" y="248" on="0"/>
        <pt x="367" y="268" on="0"/>
        <pt x="330" y="279" on="1"/>
        <pt x="235" y="308" on="1"/>
        <pt x="169" y="329" on="0"/>
        <pt x="98" y="386" on="0"/>
        <pt x="71" y="451" on="0"/>
        <pt x="71" y="481" on="1"/>
        <pt x="71" y="527" on="1"/>
        <pt x="71" y="581" on="0"/>
        <pt x="135" y="668" on="0"/>
        <pt x="247" y="719" on="0"/>
        <pt x="319" y="719" on="1"/>
        <pt x="395" y="719" on="0"/>
        <pt x="498" y="690" on="0"/>
        <pt x="514" y="673" on="1"/>
        <pt x="520" y="667" on="0"/>
        <pt x="520" y="654" on="1"/>
        <pt x="520" y="508" on="1"/>
        <pt x="402" y="508" on="1"/>
        <pt x="397" y="508" on="0"/>
        <pt x="395" y="510" on="1"/>
        <pt x="392" y="512" on="0"/>
        <pt x="392" y="519" on="1"/>
        <pt x="392" y="590" on="1"/>
        <pt x="354" y="597" on="0"/>
        <pt x="321" y="597" on="1"/>
        <pt x="201" y="597" on="0"/>
        <pt x="201" y="520" on="1"/>
        <pt x="201" y="500" on="1"/>
        <pt x="201" y="480" on="0"/>
        <pt x="214" y="454" on="0"/>
        <pt x="252" y="433" on="0"/>
        <pt x="288" y="422" on="1"/>
        <pt x="383" y="393" on="1"/>
        <pt x="475" y="365" on="0"/>
        <pt x="543" y="276" on="0"/>
        <pt x="543" y="217" on="1"/>
        <pt x="543" y="172" on="1"/>
        <pt x="543" y="117" on="0"/>
        <pt x="480" y="30" on="0"/>
        <pt x="364" y="-19" on="0"/>
      </contour>
    </TTGlyph>
</ttFont>
